<mxfile host="app.diagrams.net" agent="Mozilla/5.0 (Windows NT 10.0; Win64; x64) AppleWebKit/537.36 (KHTML, like Gecko) Chrome/136.0.0.0 Safari/537.36" version="27.0.3">
  <diagram name="Page-1" id="PumAMWzPEfC8tQoPljru">
    <mxGraphModel dx="1042" dy="567" grid="1" gridSize="10" guides="1" tooltips="1" connect="1" arrows="1" fold="1" page="1" pageScale="1" pageWidth="850" pageHeight="1100" math="0" shadow="0">
      <root>
        <mxCell id="0" />
        <mxCell id="1" parent="0" />
        <mxCell id="K5ybPOd9x1aPTzwEkU7R-5" style="edgeStyle=orthogonalEdgeStyle;rounded=0;orthogonalLoop=1;jettySize=auto;html=1;" edge="1" parent="1" source="K5ybPOd9x1aPTzwEkU7R-1">
          <mxGeometry relative="1" as="geometry">
            <mxPoint x="420" y="200" as="targetPoint" />
          </mxGeometry>
        </mxCell>
        <mxCell id="K5ybPOd9x1aPTzwEkU7R-1" value="Himalayan Earthquake Data&amp;nbsp;&lt;div&gt;1970-2024&lt;/div&gt;" style="rounded=1;whiteSpace=wrap;html=1;" vertex="1" parent="1">
          <mxGeometry x="340" y="120" width="160" height="50" as="geometry" />
        </mxCell>
        <mxCell id="K5ybPOd9x1aPTzwEkU7R-7" style="edgeStyle=orthogonalEdgeStyle;rounded=0;orthogonalLoop=1;jettySize=auto;html=1;" edge="1" parent="1" source="K5ybPOd9x1aPTzwEkU7R-6">
          <mxGeometry relative="1" as="geometry">
            <mxPoint x="420" y="280" as="targetPoint" />
          </mxGeometry>
        </mxCell>
        <mxCell id="K5ybPOd9x1aPTzwEkU7R-6" value="&lt;b&gt;&lt;u&gt;we define simulation parameters:&lt;/u&gt;&lt;/b&gt;&lt;div&gt;&lt;br&gt;&lt;div&gt;&lt;span style=&quot;background-color: transparent; color: light-dark(rgb(0, 0, 0), rgb(255, 255, 255));&quot;&gt;Tstart, Tend (Time window)&lt;/span&gt;&lt;/div&gt;&lt;div&gt;&lt;br&gt;&lt;div&gt;&amp;nbsp;Min.lang, Min.long,&amp;nbsp;&lt;span style=&quot;background-color: transparent; color: light-dark(rgb(0, 0, 0), rgb(255, 255, 255));&quot;&gt;Max.lang, Max.long (Spatial Bounds)&lt;/span&gt;&lt;/div&gt;&lt;/div&gt;&lt;/div&gt;" style="text;html=1;align=center;verticalAlign=middle;resizable=0;points=[];autosize=1;strokeColor=none;fillColor=none;fontSize=8;" vertex="1" parent="1">
          <mxGeometry x="305" y="200" width="230" height="60" as="geometry" />
        </mxCell>
        <mxCell id="K5ybPOd9x1aPTzwEkU7R-19" style="edgeStyle=orthogonalEdgeStyle;rounded=0;orthogonalLoop=1;jettySize=auto;html=1;exitX=0.5;exitY=1;exitDx=0;exitDy=0;" edge="1" parent="1" source="K5ybPOd9x1aPTzwEkU7R-8">
          <mxGeometry relative="1" as="geometry">
            <mxPoint x="419.8888888888889" y="450" as="targetPoint" />
          </mxGeometry>
        </mxCell>
        <mxCell id="K5ybPOd9x1aPTzwEkU7R-8" value="&lt;font style=&quot;font-size: 8px;&quot;&gt;Estimate Expected Background events&lt;/font&gt;&lt;div&gt;&lt;span style=&quot;font-size: 8px;&quot;&gt;&lt;b&gt;&lt;u&gt;N_background&lt;/u&gt;&lt;/b&gt;&lt;/span&gt;&lt;/div&gt;" style="rounded=1;whiteSpace=wrap;html=1;" vertex="1" parent="1">
          <mxGeometry x="340" y="370" width="160" height="40" as="geometry" />
        </mxCell>
        <mxCell id="K5ybPOd9x1aPTzwEkU7R-9" value="" style="curved=1;endArrow=classic;html=1;rounded=0;" edge="1" parent="1">
          <mxGeometry width="50" height="50" relative="1" as="geometry">
            <mxPoint x="500" y="390" as="sourcePoint" />
            <mxPoint x="590" y="360" as="targetPoint" />
            <Array as="points">
              <mxPoint x="550" y="390" />
              <mxPoint x="530" y="360" />
            </Array>
          </mxGeometry>
        </mxCell>
        <mxCell id="K5ybPOd9x1aPTzwEkU7R-11" value="&lt;font style=&quot;font-size: 8px;&quot;&gt;Compute area A = (lon_max - lon_min) × (lat_max - lat_min)&lt;/font&gt;&lt;div&gt;&lt;span style=&quot;background-color: transparent; color: light-dark(rgb(0, 0, 0), rgb(255, 255, 255));&quot;&gt;&lt;b style=&quot;&quot;&gt;&lt;u style=&quot;&quot;&gt;&lt;font style=&quot;font-size: 8px;&quot;&gt;N_background ~ Poisson(μ × T &#39; × A &#39;)&lt;/font&gt;&lt;/u&gt;&lt;/b&gt;&lt;/span&gt;&lt;/div&gt;" style="text;html=1;align=center;verticalAlign=middle;resizable=0;points=[];autosize=1;strokeColor=none;fillColor=none;" vertex="1" parent="1">
          <mxGeometry x="590" y="340" width="240" height="40" as="geometry" />
        </mxCell>
        <mxCell id="K5ybPOd9x1aPTzwEkU7R-18" value="&lt;font style=&quot;font-size: 8px;&quot;&gt;where u : N_mainshocks/ A x T = 0.000334 events/day/deg^2&lt;/font&gt;" style="text;html=1;align=center;verticalAlign=middle;resizable=0;points=[];autosize=1;strokeColor=none;fillColor=none;" vertex="1" parent="1">
          <mxGeometry x="625" y="370" width="240" height="30" as="geometry" />
        </mxCell>
        <mxCell id="K5ybPOd9x1aPTzwEkU7R-45" style="edgeStyle=orthogonalEdgeStyle;rounded=0;orthogonalLoop=1;jettySize=auto;html=1;" edge="1" parent="1" source="K5ybPOd9x1aPTzwEkU7R-20">
          <mxGeometry relative="1" as="geometry">
            <mxPoint x="425" y="530" as="targetPoint" />
          </mxGeometry>
        </mxCell>
        <mxCell id="K5ybPOd9x1aPTzwEkU7R-20" value="&lt;font style=&quot;font-size: 9px;&quot;&gt;Generate N_background events/Spontaneous events&lt;/font&gt;&amp;nbsp;" style="rounded=1;whiteSpace=wrap;html=1;" vertex="1" parent="1">
          <mxGeometry x="340" y="448" width="170" height="40" as="geometry" />
        </mxCell>
        <mxCell id="K5ybPOd9x1aPTzwEkU7R-22" value="" style="curved=1;endArrow=classic;html=1;rounded=0;" edge="1" parent="1">
          <mxGeometry width="50" height="50" relative="1" as="geometry">
            <mxPoint x="510" y="480" as="sourcePoint" />
            <mxPoint x="600" y="450" as="targetPoint" />
            <Array as="points">
              <mxPoint x="560" y="480" />
              <mxPoint x="540" y="450" />
            </Array>
          </mxGeometry>
        </mxCell>
        <mxCell id="K5ybPOd9x1aPTzwEkU7R-23" value="&lt;span style=&quot;color: rgba(0, 0, 0, 0); font-family: monospace; font-size: 0px; text-align: start;&quot;&gt;%3CmxGraphModel%3E%3Croot%3E%3CmxCell%20id%3D%220%22%2F%3E%3CmxCell%20id%3D%221%22%20parent%3D%220%22%2F%3E%3CmxCell%20id%3D%222%22%20value%3D%22%22%20style%3D%22curved%3D1%3BendArrow%3Dclassic%3Bhtml%3D1%3Brounded%3D0%3B%22%20edge%3D%221%22%20parent%3D%221%22%3E%3CmxGeometry%20width%3D%2250%22%20height%3D%2250%22%20relative%3D%221%22%20as%3D%22geometry%22%3E%3CmxPoint%20x%3D%22500%22%20y%3D%22390%22%20as%3D%22sourcePoint%22%2F%3E%3CmxPoint%20x%3D%22590%22%20y%3D%22360%22%20as%3D%22targetPoint%22%2F%3E%3CArray%20as%3D%22points%22%3E%3CmxPoint%20x%3D%22550%22%20y%3D%22390%22%2F%3E%3CmxPoint%20x%3D%22530%22%20y%3D%22360%22%2F%3E%3C%2FArray%3E%3C%2FmxGeometry%3E%3C%2FmxCell%3E%3C%2Froot%3E%3C%2FmxGraphModel%3E&lt;/span&gt;" style="text;html=1;align=center;verticalAlign=middle;resizable=0;points=[];autosize=1;strokeColor=none;fillColor=none;" vertex="1" parent="1">
          <mxGeometry x="630" y="448" width="20" height="30" as="geometry" />
        </mxCell>
        <mxCell id="K5ybPOd9x1aPTzwEkU7R-25" value="&lt;div&gt;&lt;font style=&quot;font-size: 9px;&quot;&gt;&amp;nbsp;• Sample time ∈ [T_start, T_end] uniformly&lt;/font&gt;&lt;/div&gt;&lt;div&gt;&lt;font style=&quot;font-size: 9px;&quot;&gt;&amp;nbsp; &amp;nbsp; &amp;nbsp; &amp;nbsp; &amp;nbsp;• Sample location uniformly within spatial bounds&lt;/font&gt;&lt;/div&gt;&lt;div&gt;&lt;font style=&quot;font-size: 9px;&quot;&gt;&amp;nbsp; &amp;nbsp; &amp;nbsp; &amp;nbsp; &amp;nbsp; &amp;nbsp; &amp;nbsp; &amp;nbsp; &amp;nbsp; &amp;nbsp; &amp;nbsp; &amp;nbsp; • Sample magnitude from exponential (Gutenberg-Richter)&lt;/font&gt;&lt;/div&gt;&lt;div&gt;&lt;span style=&quot;background-color: transparent; color: light-dark(rgb(0, 0, 0), rgb(255, 255, 255));&quot;&gt;&lt;font style=&quot;font-size: 9px;&quot;&gt;• Label parent_id = -1 (no parent)&lt;/font&gt;&lt;/span&gt;&lt;/div&gt;" style="text;html=1;align=center;verticalAlign=middle;resizable=0;points=[];autosize=1;strokeColor=none;fillColor=none;" vertex="1" parent="1">
          <mxGeometry x="535" y="428" width="320" height="70" as="geometry" />
        </mxCell>
        <mxCell id="K5ybPOd9x1aPTzwEkU7R-29" value="&lt;b&gt;&lt;u&gt;define the conditional intensity function to capture the inhomogeneous process&lt;/u&gt;&lt;/b&gt;" style="text;html=1;align=center;verticalAlign=middle;resizable=0;points=[];autosize=1;strokeColor=none;fillColor=none;" vertex="1" parent="1">
          <mxGeometry x="200" y="535" width="480" height="30" as="geometry" />
        </mxCell>
        <mxCell id="K5ybPOd9x1aPTzwEkU7R-34" value="" style="shape=image;verticalLabelPosition=bottom;labelBackgroundColor=default;verticalAlign=top;aspect=fixed;imageAspect=0;image=data:image/png,iVBORw0KGgoAAAANSUhEUgAAA68AAABnCAYAAADvy3StAAAAAXNSR0IArs4c6QAAAARnQU1BAACxjwv8YQUAAAAJcEhZcwAADsMAAA7DAcdvqGQAAK6OSURBVHhe7N1leBzX+fDh35KWtGJmRsuSWWaIMXbSMHPaQNu0iRsopP+mb9OmbahhJgcdO2aImUGSLbCYmWkFu1qe94Mh9lqyZcdO7GTu65ovmrPa3dmB8xx4jkQQBAGRSCQSiUQikUgkEokuYVLnP4hEIpFIJBKJRCKRSHSpEYNXkUgkEolEIpFIJBJd8sTgVSQSiUQikUgkEolElzwxeBWJRCKRSCQSiUQi0SVPDF5FIpFIJBKJRCKRSHTJE4NXkUgkEolEIpFIJBJd8sTgVSQSiUQikUgkEolElzwxeBWJRCKRSCQSiUQi0SVPDF5FIpFIJBKJRCKRSHTJE4NXkUgkEolEIpFIJBJd8sTgVSQSiUQikUgkEolElzwxeBWJRCKRSCQSiUQi0SVPDF5FIpFIJBKJRCKRSHTJE4NXkUgkEolEIpFIJBJd8sTgVSQSiUQikUgkEolElzwxeBWJRCKRSCQSiUQi0SVPIgiC4PxHkUgkEv1YbPS2NtDW2YvR7rzv4nJx9cbHPwgfjcR5l+hCEez0tbVhd/PCVaVE/nM41IIZo8GE0eKCl5dabDUXiUQi0XkTg1eRSCS6pHSz/+3/49Ul68loO357lqLU6nDzcEN13jV/G5YBC1aLCaPZjNlqQ3CcWiJg7PXc/du/8qsp7shO3SW6IBwYmkrYsXI3LnOvZlxUEJ4/hwNtbaQwt4j8ancmLRhFmE7hXEIkEolEomERg1eRSCS6xNSv/wf//t/7LD/UzYAdwJXoSfO57s4bmejrwvl11umpK66ipaGUI5VVVDV2Y+wzMmDopbdvAJPNAd5juer+J3jhjwsIlDu/XvR9CQO1rPvH0xRMepo7p8cSojvvlojLjrUlh/3795Nhm8YDvxiBh/L8zmKRSCQS/byJwatIJBJdahxtHHzvWZ5/7Qu21VlwAC6RM7juoT/zz/vG46u8AEGPzURHbTZ7137JV6t3cbC8jf5+KVFz7+LR557ltmgxer2wbHStfox7D87luUdmkRCk/ZkNn7XSlLmeDSs30n3l8yye6ib27otEIpHonMmeeeaZZ5z/KBKJRKIfkURLSLgb/S2NFObX0usQsOtraOvuwR4yhfQoV2Tft+NKKkfjFUpC+pVcc80cRnoO0FKRT2G/CrnPCBaO8kf6fd9D9B1bMa/+ZglB9z/ElDgfXH92bQMydEoLna0NfL25h2lXJuMunl8ikUgkOkcXPngVHNisFuwS+fevXP0UCQ7sNisOieySrhgKdhs2hwOQIJVcwh/058Jhx2pzIAASqeQ8h43+cBw2CzYHSCVSxNPnPGnDSAp20NtZSkZpJ4IAhuY2erpM+E2eTry79IKdB1KVF1HjZjJ9VBDS/EwKmlREzh9PuOJCvcNPmCDgcDiwO45dn5LBr08h8388vDaWux+YQry3mhOxq3D0tSABiQQEBw6HA0EQQCJBIpEgCA4cDjuOo29w0a4pQXDgsDsQjt/3BQd2u9P7nvQ3ybl+Fo0CS2cjzd/uoGvS1Yz2OpcXX04EbGYzdokM6WVwv/45EewWrHaQSC/Ss0mwY3ccvzYEHHbHsevn6N8ufw7sVhuOY/ern8RXEv0oBLv1vK/FCxu8CmZ6avbxzv13sSrwduZG/uyals9KX76Pb9/4NWvUdzA11HnvpcJKybIXeHP9IVrc4kgJ0DgXEP3ABgqW89//rWBvs4aRaSGonQtcUswcfO5uni3QEh4WQoCYnOW8yf1iCZH10F9xiCOtNsBEW2cfHf0+TJudiPsFHXcqRxeSSGyoDHtTBvnSGcyKUTkXEp3CjknfSNGejaxZt5WyPg1+oYHoBnn0FX72BEt01/LYnER8td9dE4aGHWz+NpfaAVc8vDVYGo6wd/1m9uS1Ynf1xs/dTlf1YTav28T2oj6U3sEEul2EAbeCia7KAnav2UWh1JcoXzmWhiy2fPMVqwqtuIdG4qeBvqIdLP98OVldMnz9fdEp5efQEKvG0ddKff235LjM46okV+cCPwEOHP3FvH3NLL7wvpXJ4WpUP4uU0peHxiW3cddyBUnJYfjpXC740P3eoqUs/7YDl+AA3Gkkf8M6NhX0oPT0wlOnvPw7dfoy+fiJ59jY6IJnXAz+SucCItHwtHz9ML9ZZsAnPJRgL9U5TSM5JXi15H/Nqx98xvqMZmy6AHw8XVEN978JJjord/DeH55g/8IlvH1d4OV/kV4ExvYaSg9vpyX2bmaGOe8dJpuJ/tZKCo/kkl3SwQAavL3UQ//wDiu2zmJ2lkBEgHYYLRwyfOKjkReuY/2mQzR5pDEmVAxgfywDBUt49uWd9EVdwT13TSfY5VJvyZcTPCGVgc+e4v1iV4Ijowj1cHEuJBoWOZ7h/sj79dQczKfJBpg7aO1opkYygkXjA4e+7s+LDJ2fG7ZeIyUbqwhbkIb3ha7dXSjGJvIPZZOTU0hpaTnlp2zNdA/I0QW4oQKwG+lrLebgjkMUnlyurAKTazQ+Osk5BGDHWJrJWfk2L76wlIroBdwwKYD+jA957Nlc4q+ZiI+tkJVfNhGdGogcEwc+fI7i6Ae5YXww7scfrJ3beOvLDnT6DJatXsvHn22gWdAROTYa++Ev+eLtJawuHaCuWcboyZEo8lfx7H/34L1oNnEXuAWrKz+DQ1uWkqdRUPx/v+GDw03srg7hyqvH4Lv/cRb9pQx13UesUszhF1ek0b7kHp7M9GdcQgQB7udwfRuaqanIZ0dvMndNCXbee5mzYek9wjs3zGP5vJW8c3ME7qoLN0JC9P3pUmYRtOsxntqkJCE5kiAP1YUJYAUHlD7PY5vHkNbwFA+9+w07txgInj6dEYaV/PWtw5i8gomP8OIcrpYLo7+SzBWv8OSvH+Uvb26mxBDAyPERuJ3rFzdk8+bv/kVW8JVcfeN8xvrKh1GfFIkG55o4hYCsf/KfTQY8w6KI9NcMuz5zyqnrEjmNycFGMpc+y30LH+SVtYdotJ1cYmiGxlJ2vvMcS72f5KW741Gc60UhOitreyHr33iYq2amkjT+ChbddBe/uuda7v/zP/ggq8+5OADCQCeNqxczYcJ1PLSqHptjePm5JIoAJt54KxNdW9n30YesKh/miSC6sLr388lra2nzG8/86+YQo7k8KkJSZTTX/fH3RGZ9zKff7COv7QdesPQnRKKKYdZtt3Pvg7PxB0DA3JDHoWUv81qWwbn49yZRRpB+zf3834u3ED3cJ8mPwNp8gJUfv8jf/u8xHnn0IX714K/41e9+z+/+/GeeeftTNuS3flfY2E7tro947JFfHS330IM88OjTPP2PJWQaHdiHd1v8jqOVzOXv88aSAtQ3/JU/X51GRFwKIyZPJq1rPS9+UoD50Fp2ygJRIgDttDU4iA0LxkXxXa9r+76D6JIicPVXYGuswmfMXOZdfyNTUxKJCA3E2m/FponmlvsXkBYegK8fOPryKW885dN8f0Iz1f09lFnGc0WQkfp2DT2BC/nH4zOJCwoiOTYcc/VK8sY8x58XJBMdFkmou0B/RTXtxgEszv/vDKRSCS5mE+bKelqcd17mrH1dZPznPp5TPcPbD43ATS27LO7XPycSmRdT/vhvFlS9xQtL9lPQZHIucl4Eh0DOlyWMX5SAxNqJqS+VW/9wB3MnJDJiwhjCuw+Sk1tBVbfzKy8yczXblrzJ859XoJ5yEzeGl7J+xZu8uqndueRZdLPjpX+wTjGZ+QtmMSlEde4NfiLRSSQyDyb87q/M71rNx59v5kCV0bnIkE4NMbV+jLpxMfenhxAg7GXbgWLK64dxYffXU3NgKe/t9uLmB68j7AyZMFtXP8q1sxbx5xW51Az/c/7MWWnZ+RJ/+OXveHG3jNSb/sR/X/gj980egZ+pj8bWbupbepxfBNjo19ey6t1vqDd6cMMvUpAO+24jRe49lhkzU/HtzmD90i3UOa0JKbrYBshe9jGbevyJnzSJiaGKy+hhIcUl5EpuuzqI2g0r2HmohK5zDRBEx0hR+E1gzlXXc8eCwKN/cphoyc9g+T9eYfcFj1+lyF2UaLTKYbeC/hjk4Vfy6L8/ZO07j3PVmAAGDErSFj3M/5ZvZv2S5/nD9Snojhd2DSB49ELum+qPInwhf/r8W/bt+5Zv173JrZGyc25s1edsY9f6XbT4jGLe7Eg0LnKkMle0bhGEhvdRWFDE7nVtTJvvdyx4EXA4QOY0t0c3+ZdcOyURtb4Ffeh4Jk0cxxg/FxSONlrbWzB7xTJ2+mTCNC7IB/oxt3TTrUogLuL4fxCwmbrY+ZfpPLSqmwHbsYusK5OvX/k3/++vT/P0GbcX+GjVAerMPiSOnMotN6Rga2il1T+ZW26biJ9agWC3UV5cgMTnBu6cE4S7Wo5M2kpDlQ1taATeGjUKgIEqNrz/Mm+8+hx/e+41lmw4RIv5u+96nOToMgcIx+YI/2RY9PRkv89fv3ThzsfvJEqjGLJHr3PbP3no2qt45J0tFPQ67/2R2XrpynmVa0aO5ur3qrAPs8H78iFB7jqW+x4Yi37DEtYdqqT5tPO0laLtS3nztOvFefsrf3/udb6tPzpvL+a+Z/hFRD0VmRb802eQFOSNTiFD1tlGu6Ge+p4BjMOoUl9IXTk72LdjGx3uSjy1RnJ3NyM4LMgV53Z3N+x7ize3SBkxbRKjRvgiH+rkFomGTYJcm8Ytd43DkbWGDfuOUDPgXGZwp55+EikKTQjTpo0gwF9F4f4cyquaOPO1ZqOzoYTta7fSHX8NN6WdaQhGJVu+OkBZQS8CIBu6oOgkzZv/zZ/+/TnlsTfyuz/+mT/cfSNXX3Uts8cnE+kBSoUctXqQiQdmPT2lq1mSLSALXsANKS7nFvxIXQgePY6R8QqasreyObvfuYToYqrbypodpbhEjmX0yFhcz+1Z8+OTqkhYsIAkdSG7d+dSWHdaDeEnoI+S9V/yxVtL2K933ncBSV3wTZ3HNbfcww3RR//ksLZRlruKZ/++lvqfYce2RK7GzdMHhbkHi0GPQxtHZFQqqbH++Pl44qY5Np/NYaS1YBufvvIeB0f8nY1fP8c9kxMJD/TH388Lrfxch+H3UVddRVGHC14JaSSfmH8qQy5XoaMZ/e63WR39S67yOvNDTunpi4eqjvKCNtTaCMKC/Y4G0h1NNLTYsAXEk5agRQboO9sprq5GkzKJtBNTRSXIXNxIvfN//GGGG8rjc3XcU5h/56/49e9+z+/PuN3HdVekEahUoNa64oqepuIyzG6pjIpyQYIdq7WDooJ2VHPnMkYtQy4B2vezu8zOiNQ4PN00SICadR9SrYokZf4DPDLLjdb6QjYcOqn3+yfNgbGnkc1LPqUq9jbuG685epwGVce+9ZkcyWzDagPZJXZft/T3ULTmQw62tCLI1Re1gcFu7ifj2cn8vz02TD/o4C4FvnNuYK6uhs0bDlFW59yC4E10+gJuPe16cd5+x28euJ2pAUcTmrmGhODRU0J+k5TkkbG4aVVIgLqSXHr0noQEeOLh5vRWF1UbZXnF5B2S4e49gZmL5nDXX//C4sXP8OvJHs6Fh2avZv2SrdSGjGdychRhqjPf10Si4ZPjPW0RM306ydyaSV5Zl3OBQQ1yBsrwmzSdkf6BuJZlkl9ZQ/2ZImFTC/XFu9hQomLUVYsIOdNgfn0peTV99KliCPfV4TpIvCVyUrOS195dz07LJK6cN5OZIwLxdNOi0ShRKGRIJOCuc8XP28v5lVj6eqjetZFqqZrI628g2eVoq/e5kHknkpwUi093Pge3ZXKuA01E5694xxpym/xIGJFIfLDinH+7S4EiZArTUtzpzthNXlEVzlWEy58do76DrpZWjFbnfReWVOlF4oxrufWXdzJKDeDA2ltJ4ebXeWFdg3PxnwkbdRW1tDd3IISFExAeQtDJwYCphZJtn/D8S6vomvkn/vnL2SSE+qBz+T7DOfvRt/fQZfLALTiYkxPmSpAgletw857LnTcloHV6E313N3b7dy0NEqkUSVM5JR0yvCJCCAnUHi3XUEdLhwlXvwjCPSUgdNBUd4TDuQpSJyahbj7M9hw9guDAYujBHhBPlPtJGexlaty8vPHx9cX3jJsX7jo1CglIJAK9+m7KW3pRjx9LshzAjGWggEOHYOz4VJTHuo1bty/nsHE8E0f60Jezl9L2HPbvb8Vs0+Lt741PeDAuTR20FFYP/sxQKpD7uOPu/PfLlbUHfeVmPt1rZewttxCpPMOztrea4rouOiVhBPl44XWB5y5/P3YspnaKDtdjk3mTmuh7UTPkCg4HPY2lNPQJFzVIHozUdQJXzNQhZG5gf3k9Lac0AMpRatzwPO16OX3z8fbkeP41iUyK9fA2Mk1jSB7hhlYjAToozG6gK2AsY+LDCPshf29jC/XNzdQ5PPHwCyM5cQIL7rqfu+YnE6QZpPo/lLxVLM3vJS59LNEhvmdomBGJzp1UO5qpU7xRl+wgo6CcumE0ZA169sr8pzN1TBChbmXszy2npG7o8b3m9kZqD2XSokhm6gTv79L/D6Y4mxyDEdOYMUT7eOImXgBn1dvZj/+Mh/j3//2Wm9IjcTu+dIWjC323nq5uN7zcfQjxd26+NdGnL2PHmjrk6nCuujKe82orkHoQHhlOlE8PdWXZFA+vUUT0fTmKObi7lka3ZCIjQvG/XBP2yvwZmRqOu7mIouo6mi74ENdLgCAg/CBD66S4eEQzfs413HFT6tGM0w4rhvo8Nv/vL3xQ4lz+56CK8sIWmhvshMWEExEZeuIZZG0vYtdXH/D2+l5G/2oxv5o7gnAfzbmNPhmUB55+XvgE2RHs9hNDqx0D7bSW72J7qQsK71AiPAQMBsuxgbIBhEZJ6errwW4/df5Fd/kRGnrd8Q8KwN9DChhprquj2a7CLzGOEBnQ1UxzcTnFLiOYlORCZ9ZOyiUCPZlf8EnWVl6+7k0y7Q6+Xwd8N10dZdRWqkgcGXc00ZXFhLkkj13mNOZNcjt27FrZu+kI/RNmkerTxOH8Lqw9bXS0mhkwg1QKyBVIe/T0d3ee1mBlNA7Qpu9B6ed/iWdNHz5bv56Gvd9SZktl7nTfM9eDqgop7u5Cn5xMWEjgpZUQTRjAZCjm0GE5ctU0Zow8l0zS58chCAg/xO3TmURNyvgx6BSFHC5upuUCzUWtyN5HL554qeXIJTCQv4LVJd7MuO4qpqaG8IN2WrY1UN/aTI2nFx6B/gS5qHF198RDO/SQ9sHk795Egz6S0YlB+Hs61zVFou9JoiIhLRVP12qOlNVSN2iL56kGP3/lXoxPTyMoyJWa/YcoK6k+7QF0lIXujkaKjrSh8EkmOdD5LidARyUZ+/azb88+lq/dQmNPH74eFhpKjnAwq4yWbiPnN5VSQLAbac5dw6evvcIrSzZS2GbG6jia2Gj7sg94+5ONZNd0YTq/Nzi6np2xgczl7/Pqq0vYXWvA4pzZw9ZNdWUrHXrTeX6PM9PEzePmm69hYXo0fjqX71pzu1ppaG+j3uaPp3sogb6nvg5TD/ryA6yrk+PiPZVp8WfqEj8TKR5BIQSE6mhrqSS/8qcYfVxEli5aCraz/MstlJ42gkHA0l1JflUf1uNz1Y6ryyaruQOXiEgC/c7UKOTA3NtI0c6v+fDNd/hw9X5q+4+un2WsO8g3777CK5/upcFwbK3G8+AY6KI+ZzNffPAhn204QqdzD6MgYGnOI7/JhNX5+kBOUHwCnm4GSioaaGj9KQ4d/gFJFLhFpDPvlgd4YIYnAA7rAK2Fe3nv72+S/XO7PFsqKG5tp8HsSWRIAOHBGhCsdBdvZ/mSr1jfGsN1v7yNBWPjCXYb+ioajK2vidL9a/nswzf53wdfsy2nGr3JDqiInjybBeOCMe34iNeWbmDt52/x4uufsUsfyU33LMC7ci8rP3+dzwqOn+8uJI1OoamyHqPFekovU3NVFYbwMCIjgvGTAbRRV9eCTfAlLj7iaGZSFzUqV2+8DS1Ul27m257xzApX0m7zJF1Vwy6TAu9jYfJ5G+hB39pNu0ss6WP8ALCbTLQW5tIVMY1pocfn63rg56vATdXMjs+2Qnw0nr5uYD86r/cEhw27w+YUUJsw9HfS3+NC2ojY7/d5Lxk2jP2t5B6swuE9ilGhg1SrumrJzcxg3559rFq3lYqWdtx1VrpqS8jIKKKutfd7Njx8H1YG9A0U79nHvh272LNhEzsHpBDixcDhfezfk0utwX7uSc1+LIINi76e/K1f895rr/Hah2vYX2UYNEBWJ4wiTqegvKCa5rbBa7nDJwCV7NvagdqvlpWfrWfzly/wz3eKCL76bm5ZMI5w95PqcBeNma6aYvIO7GPL5t3kl1UjUVjp76glc88BcgoqaT/zXEAnlRzc2UaPfyIxvu64nyF2tRs6qD78LV9+8CYfLN1CVpMJBCvGjnL2LP2AN9/9moyWc0nv9gNwmGkvP8Tmrz7k/Y9WsCO3gV4b2PoaKdmzjI/f/4K1++sYuBgVfMDW30LFgW/4+N1PWbmn5vT3EQQMVXlU6e04VxN/FLZeGnJ3sOKjj1i6KZOqHqduUocFY08rJWWdOFcVz0QVM4JoTy2NpbXUNp69JWmIdV4lqNyNlO3Jozi3ElX8SBJGJBJw2pJ/ehqKdrPq80IM467l4SuPtdYe53DQtu1F/vrOSnbu3camfYU0dpmR2rqpK80ms05BSEwE4f66M1TOB2PDrC9ly/P/x9vV7sSE+CAtXsHrH+6n35rPZ0sLsHnosBStZ8WeDtTBIYQFuB1NKjFsNkz6Utb96/+xxZGIW9WHvPVpNV7p4wl3V55I8FG+8v/x0mvLqdJGEhYRjMdZ3mSgo5bK3F10xA1vqRypUourVoWL/NQsswOVB9i8ZTM79EGkz1vEDZPCTjn2lq56Cla/wvu5VgJ/8ShPLQg/v55XQCrpo764gD3ZPajjJnBlirdzEdEQ+utz2fHR07yxtQ7dmGs5VicE7DjMh3nt9sd5fa/AmNmJeKu/aw3VZy3l801F6MYsYu7EJIKcxx8CCAZa87ez+uNP2dLlSZibnfaMFby/NAOjrZB3PynFd0QAPVvf5K39KsZOjMZTJR+ixWoIxjqO7NzA56vzGVB0kbN8Ndv1oUwfH3LsfLLjsBzmtTue4PVDrqRPjzntPWTSDnK2ZZDZ5cvItGTSQn9KazuaaD6SR32nDd8Jk4k6OurzopLIlGi9fPBxddB2+ADlveCwm9G31VOtSuPq9OAffimGH0lP7mqWbdxNTmcU0xctZH66B027Pue9/73MikoXwmfeyW3TwtCdyzi3gRr2fPIC/31jFdldMjzCIvAVmshYt5WCbgU+MVEEengRGBZPQlwUIUH+BASGER0XR0JCMiNSUhmVEktYXAJJ4UF4Hxuep1G1sOHNUkIWTiDcS4PLsY+kdAsicUw6o+JC8FTJAQVajwgS00aTlhiEuwsgV+PuH0HKqBHExCeRHJ9ApI8ahUJO1+YXOJD8JPene+LyfYZ4ShWoPEKIGzOe8YkBaGUgkcpReoaTNmk6Y6Pcjz1D5XhGjSQtPonkxGRGJEfh59ZJ3jcZmCJSSRwZja+9lsy99ZjcIhg3OYYTs+ssbVTnZLPvgCuzHp5P7E+i69VId/NBlr28jeqRN/HUjSNO61Hu3Pcuz3+wjA3bt7J53xGqWwwI1h5aqo9wqMqCa1Ak8eGe51hHuUAs7dQeXsUbL37M2r172b0rmyr9AHaZkdbSw+zb30LwzGlE6Y72JF5IDpuZqk2vUBz/OAtizj1x2qkcmDsrOfT1C/z95WXkmHwJDfdGZ6pn+zsvs1k5jenRrshPXsNRbaJ09TayGrWkThpBfLjH9/gNBNDv5Z3nNuL74D+5b3oikWFhxIwYx6T0FCJ8XTlDLtMLx1zK1s+WsOTzlWzcd4iCylaMpgH62qvIzy6ktldFyOiRhDifpEPp3M1H73xLVfRCbpqTSqTX0Xm8zvpq9rF++VJWZRvxDJTTV76HNV+vJ6Olm6KvV1PtFYaudRvvvZ+FbvpsYrX8+MvsmOvY/fmHrNpbTr/GF0VHDjs2bGF/Vg5lFRnsrQCdo429W9dwyBzH1GSfC5rE0NZRyP4tK/hsTytKexUbvthCnnokc5KO3TEFK/bGNTz+0D9Y0hHLolGBaFwu5Cc4R45u8td8xsZ95TR21VOwaxvZTSpCR8bhe6zS0ddQwJbXF/PK2np8pswgerh1IpWZyi17OVQO0WNGkBrnc8ZrcchLSeqTzqRRwUR6NXIgr5T8ykEiYXMvvR2NVFhckHl7cto8dIkU19RreejXj/C7u9PxtymQes7lzgd/w2OP/Z7f3T6TlBCPcwxcj6ajL133DsuYwW0L5zLjiiuYPzuCrpz1vPu/rdgTxpPi0UJ+/iG2r9lDYX07gy8kMzRrXxfl699li8c13LhwBskulRRnfMm24gEGTjQn1JO9KYuDO+voMlo55y9yPhx2LEYDteWlNDTU4xrsg2+wN4Jej/7E1kFTfSWZeyqQaXSkzxr1XdbN8+Gqw9XdE9deA90tHQy3c6d6/T/485O/5deP/Po8tt/xl/++y7bLeiqfgc6mcg5uqqJdr8HD56RdDhuO8m18uieDLJMcNZJTLsbGmkr6+hy465SolYPf4ftrjpB5YC+lPrO44co5zJw1iQkpGoo3Lee99w7jN3c+Y4RDrN1ziL3Ld1NuMp9TSxhCHzU5ORw62ELElfNJj/dmIOcwGev3U328zPHvsT+brC4rSmGQm4qXLz5qDZLWLvQ9/Yh9r9+f3NWf+Cm/4K675xEEINix9lVy8OO/849v28+7l/3yYqOutIL2tk7s4VH4uxkpWbmEt9/8jE2HCigobqSlqhbDaSfkGQwU89Wzf+c/HxxBNmIm866+igXTp3HF7PmM8e+lujSbvFoDSNV4hsQycvwYRiZEE52QyIjkBCIDvdH5RjP+inRSE1KI9f7uoeAScy03JWRzsKSLHuN3zetuUWMZOyKGII/jzYtaAuJSSR2TQMjxdh6ZGvfgWEZNm8DIqDhig7XIpTbkslZ2rvFgzkIre3a1Y/s+TfMyLT5hCYxPT8TvWEVEolDhETuFeZNCTwnI3KInMWl0MskjEwn2UOMijSAiRoJEZcFkAQb6GfDWoQnw5eTbnrWjgda2ZvrTr2Li0YEDlz/bAKaOaooNciR+Pt8F6ifRJM7jzvsf5nf3TiNao0XqOplf3P4gi//we35393wmxvuesaJ2Ucnc8IudwS2P/Jr7b7+SJHkfSl0sNz/1Vx595BF+98iNpHkpLnjgemHZ6ak9zIbX/8q/luYhGX87d1y3gCsmjSOgcRVrdu3k6y35GG32U+fWKnzx91Giam2iu7ef0wZHnQtBwJq7nYyBONKmjSN9dDyx8amMHpNMuI/2hwlcAeSBjJx9PXf/9i7mj4nGR+JN0oSruH/xYn73yC+59aqJ59bIWldOqcmE3NMTpcsQPcfdhRzYk0d+dzizfrGAObNmk54cCjlrWLFsNSVBM5gSaSRr1U6yDqxmd8XRfuofl5nSjV+T2SEnKH0B8+fOYv7EaDxN+Sz7ajsHyr1ITPHDUbmOLbsPs29fOYOt6XHebC0UHcol47CCyVdNZ2SonNbcLPbsKOT47DzBbqP70BpWHzxMrUGOXRj06P9gOrLWsq/eijp1AdMT3ZA07+ZgdhaFJ9Y8M9DdXMjOr7MpLunFMdwGEgCFN37earTdrfR09XC29LBDX05SVzy81KjVDloPHaGksIoO57PNZsMyMIBJpcI3yP/0fyaRoAkfx6xZs5kRKGCUCpAyiytmzmPB7DnMSY8n1Et9bi0ZdgN9jVksX+5gwi2/YPrICPx9fAj090Iu7adGkcqCaWnEq7tp6uzDERSCv4cb53KtgglDdxHfftHPqJvmMTpygNpcIw67D94esu+yJDfnkFnbTZt3PKG+Xnhc5ODV3p7Nmjf+wRMPP8QfX1vF3nIjptosNr/3N377m9/wmxPbIzz+zMssLZKgUaUyfcz3Cl1BpsVVo8NLYsZ2Djd4j/CxjBs/iUnp57NNZGxqEqHf86P/qMydtDWUkNnqjmvwaFJOGtot2G10HN5NveAgcdJ4PFyOZUY9ZqDfgN3qg6+XK1rNSTuOszRTllNEbpkv6Vddwbj4UPx9fPD1dsUusdGiS+euuYn4GqsobregTYojSKE4t/aVzgoKKirJdxvDlWOC0RlbKLPLkXp6nWgMcdhs1O75lnrBQeyoRHQK+ekPN4U7Xq5KNCYD5gHTOa0JKRqKHLVPPOnX/JJHbkk5+rvarZhqDrL0Py/xbeMlMsTooqqjrKCFtmYL7tI6MndnkNHkRvrChUwfG4+9vZTynK1kDrsBrIs97/yXD5Z9S0fSlSy65ipmjYojzNcTH285CocUlUSFRvNdv7ZEKkPu4oLi5HUjJBIkcjlK57UkVBEs/M1V2DbtoqajB9Px30cqQyo9dWSNRCZFJnNKKiWRIJXJcTn+fwUrNnMDJZ1+uBTlYPDVIJz2ED4XEiQSGfJTPrcEZHLkgzykpQo5MunxTM1ejF2YjktvNw3lpRzJqUflF8iIcTGcuH3ZOqkpq6a01psrb0rF87QbxY/Ppq+jvLCYuvbe4U83stuxGY30yuX4hwWfXg8C1MGpTJp6BTPD1UgUDuxx6UycvoCFs+cwZ1IKMf6u53ZvvpBkGtwCk5g0azITUrwwdylR6cZzzfVzmDN7DnNmjyVMK+PkDktsJgwDFqxO87d/LObWIjJXvsrLGyrQJ9zBo3cuYHJKOH46gdaiAlotEgJD/JCfOF+P88Tb3wWVvZd+i/m8n02Cw4a+YjuffbiFZkHDQG0FrSYHErkM6fl0LwpWBvSNFOcVUdk5jOw1J5N5ET5iHFNnpBDhowOrHxFx6cxdMIc5s6eTnhZ1opdsWPp66HfYCQjwQa0c7IUmanP2Ut7QS8iUK5k+KpYQfz+8vTxRD0iQmHyYcP0kYnT91Jb34HBPJiHke05xuBBaDrDm0ACK8AnMmpJKTIg/Ab6eeGis9Lt64jViOlPD1Fg6K+mVaAiODXOKIwSwGukxWgcdkn42poZCSmsq0MfO5IpoDxSdNdQp5Eg93I81FArYrQPk7dhDnyBnVEo4Lue4vNEF5agja3MtA4poxkwJR2MeoLtJjkrpiu74gTF20lmbx4EeV5TRI4k9ccCGc6w88PBRoaYPo2ngLKvcDBm8mqnbuYRv8jrpsbrh1pFNaVkJlZ1OxQQQBJDKZWi0Zw4PG3L20WoyEjs6BT/d97tRS1VuBM+9iWvivotsukrz6LRZ8Ro7mWhvHd4jb2LxX5/nlX/cw6ykwO8eoMMhSJCpvQibeytXhctxVH7LF0U2rEkLuSJSheZYE2lPcSYV+i7kSfGE+HnjepGvRpPBgF2mwFXRT4e+hwZLEBHRyYxODCXAL+DE5qt1QdJdRYXVFWVMOmlnGuXbXcjOnfnUdBgY+hapQq3SoFM7EKz2Yc/t9UyczYJF13H9ddefx3YtV85IJ+YyTkfp6Omgs7qIKrU73mmphJ+47wjYbXpy9uZjE/yZMCro9JuSAAha1CoXFIM1yTtAGRRD8vQrmBJy9Oy2mQx0VBXTq9IQlD6NWFclHpN+x6uvvc7Lf72aeFfluV13Eg0hcSOZOmscup4GKjO30uruScqsqUd7+3Bgt7WTtbMYm8Of9HFhuAw6pEWHm06JSmbHYb8M13Y0d1JTWsSR7FxyT9vyKalpoL6liYp8531Ht7wjRZS2nu1WfB5kGjwiJnD1Pfdx68ijkwYEu5WunK/573/WUmV0nm/4E9NeSkFjJ81GkEq0BMWkMWP+fBbeeANzJqczQtlNdcURNu8tP8O97SRVm/lg2S7y2wMYPTOFUE8LreXFZGz7mvdeeI1vW31JnDCZsYGDXZDDIcNv7K3cPsXMgZ0lNHYODPteOjgXNJ6jue2vtzMhMpXxsVpkFzu7zpCk+KZdxfxpaUR6yFCGjWPW9MmkR7kfrWQIFtrKi8kvbsdtyiJmRZ7TE/mHYS1m41uv8J+/Ps1Tr60mo7xj+L+PAEil6HRnnhLRUniYlp4uQpPjCfL1HmZvqwPrQBcNBaffW4az5Ve20GUYxhVg7qe/7ggHDGoUI8czdsiG437yv3mBfz/3KbvL2hg6nefRIMzQ1UTZIJ8rNzuXvNx8yjoEOirzOJJz+v7c7Fxyy1rQG84wZsjeQe2R7XyzZA8NkghmXbuQFD85IEGu9mbUPf/l+edf5Nnr49CcNi5Zi85djkJuxS58n4RnEiRyN4Ln/IZn/n4XEwM90CqcA+XhEuhtKmbLW0/x9N/+yXPPLSPvfKJqfStNnZ20uAfgExTEed+2BDsIAq4aFfLBWrFwINHGkDx6IlNG+aGWAJYeejrrKB/wwD10DBOjPXGPnMdjr7/K//79BPNDzjZk2IK+oZLSvEHOh7NseXkFFLcMo4vFoSAq/QompiUSpD16XnS0NtPW0ohPWBCxKfEEhaYy+4GXeOW5v/CbRbEnjT4RsFva2fvGYzz+j3VUmq3nfO4IMi8iE0cza2Yk9tZa8vbl4fAMYvIVycfex4bdVsK+Le0IQhoTR+lwOT7XZFAWeptrKD9y+jE565aTR2GTEcfQkSUIMtxHTmfSmJHE2is4UlpGtiOaiMSRpB6LMSw97TSXHKZBqyNozEiCJJzDsVLjqpOjdLFjExxnvfc6X8ngMFO9/SPe/WALXYFXcOXc0ST6tZFbVExBWYdz4aMn9lm1k5vVgMkUwviUANxcz/cqAqQqXANSWHTzWPxP/I5WijMP02dRMnp0DG5aJaqQ8cy7+mZunp1KuLf63G4iEgUajxiuuGMS/nYLFZu/Is/oIGHeIuI9VMfmKtmoOlJIV4+BqMQI/H3cz60H+TwovOKZeNVt3DwvjQRfKcrwNKZc/yC/f+S3/Pak7f7brmZCsAW5VkPAuDRCzvDl2zK+4JNvdlHS2neGCp4MqUyO/Fx/NpkClUqFWq0+j02FUnmO8zMvMX0dbdQW5yPx0JGUlnBSA4oNm6WKvXt6EWSjGR/ngotTVGkXOPPFq/AiYsQops+IP9aDIWDs66EitwiJypPxY6ORSeVoY+dyxx13cuPkcLSDBpZn4BZK/MjxzE5yob2+lIztrWi8kpkxM/zo/GrBhm2gmH1ZJgT5aCYmaXEZdGyZHLlCivQc3/6SYe2no7mJutq6QbZ6Wtq76NTraa133ndsq2ukped8ah9nJ1G6EzByHvc9fDvjjv4oCEIn2Rll6K1OQ+R+YvrKC6npaqdHlcT46Vdz262zmTQiGHf3EJJGjmJaqhe99VXk79pJ0dnGIAENu5eS09THgNYboSaTvd+uZd3WAxTU9KPwS2XGtdcye/JguR/OgSKAsQtnMyHaE41McoZW6GGQKHDRxTD92qmkjkgkRHnq1IMfnCaUEakJxEWGEJ6USmJsOL7HR0ILINcEEDVmCjOmxeE+2G3ix2ZrpmDPXnZt3cL6AyXUtg8Mr94gCOAY+un5nS4KjzTS2+PDyLhA/L2Gm4XCgc1ioKtxkHvLMLaGth76zWd8mgBgNfTRWpRHp1pF9KTRpwz3PpUcucWMQ6NBoXA5c71HsGHu19M6yOeqq62jrq6eln6B/rZ66p33Hd9a9RjMQ9czrR3VFGXtYluNC35BY5iVdnzgtgS50ouE+fdwz913MTdWi/y0xh0pcjnfO6OyRCpFG5jClOvv5Z67FjJxRAR+avmpvdXDJmDSt1K8Zw1btu9m15Yc2pyLDIOppZHWjnaMgb54Bvuf/9Sxs546SvwSxjNmwliijs0dPN5wX6F2xzs1lQiFEo3vCObfeRu3XTOeYPnZel6tGLvaaKkb5Hw421bXQLP+DI0dx3klM2taGiPCj09d7KGhppG6SgXBAeEkRGtReoWRPPM2brlmPhPDncbACjIUZiM2dy9UklNHzgyHi18cSaOnkh5opLH6CDtybPiEjGPh6GPzKexWbA2H2NkoQYiayVh/+VnmhNsZ6Omk9XyOWW0djd2WM083kvoyYsZYUkaEYC7PoagkH2t4HElpqfi7ADjo6+qksrAMuU5Hclr0d3l4hnWspMjlkqPZ6ofh1GIOIxWbP+SdN5ZR7j6R+VffzJ23XsGIhAB6juSTf6SE5lPuIYN/hNP0F5BZYMakHUNqpBbd93n4S2TIVR4Eex8/kQRwVLB/VwcWcyLjR3qhVQ/z2w9JikyhwcfHBZu1jm3LC7E5Ypg3Nxat8niUUUfB4VZ6ukNJig3E12uw4RQXloubHwGh/kiN/Rg7+giKjSctfRzxUZFEntiC8fGU09/Sh0qtIjEl/rTkEd/ppWDHXsr6BSRS+Rl65WzYbVYs51r/tpkxGPrp6+s7j82AccAyRAvN5cBAW3Md+YeNeLpHMXrESV3Idgu2ugy2NUsRYieQ5nl6ogrJ2a4umRKtqxvebsfOO8FIn76Kw5lm1KpkJqaduQdgWBQa1Fo33O0tNFbmsKPVC4/4KUw73oVst2CvzGJnpxQheTLjvIa6uVqwmO3Yh1O/uxQpPQmJjiVxRBJJp20JRIUGEuTnT0SC875jW2IsUb7f56Z3JhIUrgEkzb+XR+6Zig8ypJpUbn9wJiHqy7vx58zs1JeU0N7RiRA5gUnTJjEmwpOjK4mpCEhIZszkUYQYmqkrOsCGPL3zPzhNQ0UpJosZj/QZjI6LJzokgvgRyYyeeAULb7yZa2aNIsr7AvyObglMSY/Cz83le1eaAZCdNJXlxyaV46JUoXKRn/qZJHLcQ6JIHpNGxJkHaf14FDFMv+kGbrn7Vzxy8wzSIj3PfA8+xTBKGkvJK+lDL0smPtwL72HfoqUoVB4Exg1ybxnGlhDui6fmjCEmYMfY10FpTgUuKn/Gj410LnASFZGz7uCeO+eRFupx5kSQEgUaD38iB/lcSSOSSEpKIMpTgmd4IgnJg+wfkURSpB/umqFrJ33NDVQV5tDq5oN7/ChSnJOvSGVDjAgCsGOxCHz/0c8S5CoNGs3xTYlccr49rxJc/SKZeNMj3Hfnrdz1q0UkDP31h9TRUE1bWyOefr4EBvid/7PgrF9Chspdh85DeyJRYH97GzVFR3B4uJGYlnCO0/YAXHALDCcqaZDz4WxbUjwxfsO4T6s88HTToDnem2msp7quiQpjKIEhscQO3XoDSJAqPBhxw2Ieu2cCgS6ycz6+MqUWjc4DZV8T9UWHyLX54j96GqnHqooOq5munP0USyT4TJlAtEJ2hjo6gAKdXzCR53PMkpOI81efeYi7xAU3dw0aTR/leeVUFtqJioplZPLxc6uf7o4ainLsuLnGM3rE8QtxuMfKjsUqcNIy6Gf03f9wdFO64UPeeWMpRa4Tuer265iaGEhw8mRGxCQQ1FNASXEBRa0nXeUSCRKZDLvVSk/3GSoHlZlkdFiwJo4lzlOLRgr01ZBXVENT17kOnRKwW/tpr6qgusN8tNWzYTdbq22YwyYxKkDNiftcVxl5FY209g6jFWYwDiu2zhy25ztw+E9nSpzyux6yjiMcru2n220U8SE+nIilLzZDFXkltZS3+JIQEUNypNMT0NFHn76Osio5KqUP8ZGDjLt1GGguL6esYDubs9qRa5QYWrvR95qGmCc3gNFkoHdAhkSpOHNL60maD37Gh+++xquvv3oe2+t8uHQd2cNY7+mSZO6gvbmK/DYv3PxGkBj43S6HxUL74b2USST4TRlLkFxO55E9lHcMcLyBWSoDiURPb78J86AZjuyY+zporqunuccK5m70ddns7XBFFT2B0cdvvIIALYfZVdKF2XZuV9px1q42msvzaHDzIHjsaCKOXQMOi5nmrD3USSSEzZxAoFw2xLnRR0+fmQFBjlQ+1I3rEqZwIyA0nOjYGGJO26IIC/DFz8ub4CjnfUe36OgIQj0vZuOWDLnCncBAOVJ1JLMfeILFt44lQHkZHuvhcjRRmNdMe5sZv4QoQoL9T5kaIveJJX7UJCZGWemsK+PAhsM0n+X0N1vsCAJEjZvNtFnzmH3FbGZPn8CopHB83VU4T2H9XuQuyGRDtUD/BEmkyGRSnGdHXFLkYUy44S4eXPwYj944haSgYUaXEgnIZGC309lxhoXQa4+Q19ZHX0QKkf5euMsBQyOlZVVUt/SdoR4kRa7U4Rt5+r1lOFtkkBc61VkOvGCkv6eKvBwrKs0IJiSqj47icHRTtO0wDSb70YZkczfVuTmU2XwJ8PXA7WxZiCRyVG7ehAzyuWJiY4iOiSLEXYJ7UPQQ99cYYkK8cFUNXW0fMBro7epE6eGGf0IU55YHrJ9evQ2rzQWF5GzBwQ9FgsYnggk3PMbixb/hgXunMdjqS2dmpKWxhc42CPb3JyRwqHPZgc3UQ33JIfbsOExxXc/pI/BkcpBI6Orpx2I9bS8ANkMXbQ0NNLX3Y8VIW0s9+YcNeLpFMHrE8V/EjnWgmezdw0l8pMDVN4jQ6EHOh7Ns0dGRhA2nM0kw0dVQR2NLD/0WsDRXUV1fQ4tPCAHR0QQdu2Rshk7aqnIpbj9WORPs2PpaKT2UQ4VrEin+qvPsYT+qv72VmsI8LF7uJIwbydEau4DNMkBJ5iGMEgVpk0agkzvlQDiNHI1XwJD1kDNv0UT4KIfXmGqso6KmiSpDGKHhMcT6Hzs5TZ10NpaS2+2Ja9hYRvqe67Ey0N9jxWxRoJAOVZf8ztF3dXRTsPZd3nrlHTKV6Sy6717mp4Xi5QLoYhmXmkBS+ABlpaUUFrd9d5N1cUGl1eFuMqNv6xiyl6wlaxd1VjMBo1Lw1aqRY6ExYx07cqto6j/23wQDDUe2s+rjj1m5/Qh1Q0ykcAx007z/U154+VVe/SKHHkGgbf8mSuw2XNPTiFArj7X+WKjb+w17j1TTajgpIjM2ULhrFZ98vJLNOXWcvOs0gh2HvolauwSS0ohTyU5k3OsvyKK0vxdpShIRPp7ohvxBLqyB6sMUVlbS4j2K+MQUYp1jU3M/fW21lPaoUbpEEhHqtB/A2kVjeQUluzewt8EFL1cLXS3tdPSbT79xAVgNGAx99Mg1qLw9h92KJkhluLgoUarOZ3NBoZAhPdPvcwmzdbfSUlNCpUyDi6c/Pieeinaspnaydh7BLtEyYWICLtIm9n74LSVdhhMJI9w8PFAoe+juMWAcZPqGtb2Mwxs+4IXXlrBsWznd+k6ajhykTqvGZ9xIwo+VE4QBSla9wdYq84nAGMDSmMH6rz7i/VUZlLYahrx2ASwDBvq72lDptETGRBy7qTiwWLrI2VeIROLNlIlxyIbq/jHp6TKYMbt5onH9rnVWdGHYjd3U7FvG+2taSLv3MR5/ZBExmh95COnF1plHdnUnLf0+JEaHEOLvdFeSehGWkMqk6TEouuqozdzA7tozneXg6eWBTCbD280VxSBzu2ztxeQXllDWMmhrkugnQObqT0hkCL7u6uFn15XJUejc8bHZ6GpuGfwZCrQfOUhdfy8eyfH4e3qgxErrkR3sPXSEiu6hQ9cfhLmHnoYCMjo1KCNGkeoJOGwMlG/g/fUVGGwOsNaxd9NByqoOsf6TpewtaqbnPPsFLiSlUomrqytqlRI/70FCV8GOtT2DVTvqMJ3WgNtFZ6sFk9YPd43m1KUef0wSOUpXH8Kiw3G+tQ1POy1NvXR2BODr7Yf/oL2IVgxtVWSuWsWBBj3dna0UfPsW60psp05n8PLBSyans70Lk3mQ4XfmJvJ3ruDdF9/gy40HqelspaWuhOxmL3R+KSQdTZCBYOmnu2gN72yvuySms7TnrmHpBy/xwhc7yK3V01ZZQV1NDaqgAEIjw46OWBRMdNcUcmDVVkoNgGDBqC9n+7p9VNZl8vVLn3Co2+G0BrKFpsxVfPXR+6w8WEnL8RhnCKYBI/rObtxcfUiK9jr2VxsWUw0HdncikSQwZZwPsqGjvh+WUY/e2IfeJxDvoGD8jz0qrZ1ttJTlU+/hjn9aCuGS4Ryrk/XQ1W7CqPRG56o7a5whxaGncP37vPniG2y1j2LR/ffyi7GR+JwYeqsjdlwqSYlhmMoKKcw7QuPxZ7fCDXfvUGJ0FqytHSfSOztrrC3DblMwMi4IjVKBqf4AGw60onDzwsdDfbSS1VXK7lXv8+9nn+Vf73zDloKTguSTWPo6KFz7Cu8sXc3O4g5sphq+XXeYAasdr0BfXOQyJNjpK9nCyowO5Godnrrvqsv68t2s++jfPPuPf/HW0i3ktQz2LsdIJEjUmqMteRI5smMjKOz6AjauPUBDh5GIlGj8vdx+oBY7AxVZuVRUduA9JpnE1OhjrTQnGTAw0NZEo1SFQhNKgLuAw9pL/YFvePftzznY4cCOCp/IcFy7KulxHcG4cQmMSArGy1U5+AO7r4cefQcGTw8CwkKGfYMPmnQPD/5mMY8/9vh5bI/x4O2/OGld1MtLf1sL9WWF9NrsOIxmzAKAgNXQSfG2z/hibxcSiTcjYj2hfgvf1nnjrZZzfHRTYGQMOp2ULr0Jw8DpV3tfbS57VrzNp+t3kVvTRntzBfv3loBCjleAD3JAsA/Qdfhr3jsoISnCA8WJ4NJA2aaPeev5f/CPf73B6qwq2s9QH5fLXVApXQEJEokUEHCY9bQcWsmyTBMSRSqTR+pOXT/vZF2ttBr7cQkJxNfbSwxeLyDB3EPLkXV8/MkqKuPuYfHjd5LuM4yRXpcpu9XEwICR1twsSrva6VFEEuHvjofKgvnkZHKCHbWPL0FxKQQIelobMtiwPpeW/gEGLIMHsWGTZhKu1tBcWUev0fTd/3KY6a7JYuvGb9l+uJqOYaehFf0syNWovaJI8rbjaGzFOTPIca2N1VhMAgmR/njo1Jibc9mVWUs/bgT66X7cxibzAAPtzdSoVehGxhMo2LB2l/LtpzuxpKUQpJRhLt7Grmo7nt4DHNmwiYPlreiHitR/QLrAYCKT0/AwDdDT2YH1xONSwGEx0lbwLR9/uJKsZvPpI8tMrTR3mrGHhePr5X5uiT0vZcZmmtq6aZcF4eMXiN9gIwMHumjK3czHK4tRxIxk/GgV5cs/ZEO57dS5jyFxJKhV2Do6MJnNpwee3SUc2LKCd7/azL6ielrrqijLOUSFTI2Lpy9eiqN1kZ66Q6xZmo18ZNSgy0n9sIyUb1/ON19+wcbDFTS3VlGQX0xxZTfurq74uLuD4KC/pYzsg3s51BNItI8Mh6mPzoJd7GlWEurXzdb3lnK4xykgM5Tw7cev8/w//sFzr6/lUHXnGbNYK+RyNGrt0b5ECcfqiR2U7ficTVVypMFXMCFMcmFH/nwfLi6o5QrUSJAgRQoI5k5qijLZvrsEmbsbCakxqIZzrE5mbqet24g5IAQfP2+GGitwnJSGHbzz4mus7xvB7Pse5bbJUfgfy7x1nDI8leT4WKLMJeTnHeJgzfGVPl1x9wohPsLOQG0l1UMk1PRNGEegRo2x7jD7Ni1j6eo9tAXNYmpaNKFux97L3Et3dw8dvW2UFuSTk1096JIsEpkcuYcvvkoloYF97F/6CfsVC7lybCCW4l1s272HzeuWs2LtbjrD5jEhJYqTR/+Yervp7u6gp6OU4vwcMqsGe5djJAoUvqlcMysGbfFGlm7cybaNX/Pl1x/y4doK2vR+pMYH4X1ifb6LzFBGZk4l5d1BjElJJjXi9Cn4tgEDfW2NGLFgsjRQdPgI2TuW8/6L/+SlpYdpNgk4XHyJSAyH7m5cEsYyMW00Y0aG4+emGjQIt3S10t7SgcwngKToM6UuFh01QHtzIxWFrWDpoqVsN8tXbmL7jo2s/vIbNmW14ZuWiKtgovLQJlZ9monymhnEeGhPzB/SRScQ4qaktaGDjp5BzlGVBpXOiwCdDBdbBft3HaLBcxYzohW0Zm1m/Y5dbF69lOUbspHOeoz5MUq+G3llo7u9g/7ePnpLtpFRVEtD76n//mQKzxAiRk4hQdVF9rdfs37rVtZ/+SlLP/uKTR1yJDHTSPeTDDkcZKC+gsZeO0GRwQT5n+2WJBouwdZPe/lOvvn0C3YIM/n14nuZNGgL+09Efxlbl3/OR++9x5tf7KCiqQeHtI+qrM2s+ORrth2uovNYT1B/UzEHt65h6+F6rIChvZ79S//HGx99wVc7qwZNw+8x/jZuv3IK0vyVrFy9hs07drP921Us/2o5qzbtJqfTg7DoOJKCB6sJin6+VKi14aSkyLFVllI2yO0awDNqJIHu7tiaiji0fQXL1+ygSp3K6NFpJHj/yDVTF1dc/aNJ9XZgbSlm96bVfLlsE7nS6Tx0fQJauRRrj5LRV07Du7uCFk0A3l6uaM81ieNFoPSPZ+SsG5gbraJmy6d8tnILu/bsZNv6FXzx5VLWbc+iuC+Ba+ZHo3aOAJrKqew34BkXgb+3+zCzP1/6HM11NHW30xsWjH9wwKDJtwRDJ12l+9ne1Et97iHya1tQJtzGFbGyUzMBuyczIkyNtLaKjj7D6eu0SzS4ajV4BnkitXVReCCTUqM/U8f7Ya/LZMvGbezYtJplG/ZTpp7N764803zqH4oNlZs3GnUgYdp+6nN2cqhNjW/CaPwGqsnZvYHNWzeyfs1W8rpVxF9zJSmuINglyByejL9qEqryLKoDU4l2l5w63NbWRWu7gd6+Hkp2HKCktokzVK/Q+oURP3Y8AeZydq5YzaYdG1n5yed88fEKCmQyPKZNIUF2NEi8JGhCGJGSTIprJ+UHNrNywwbWr/6UT5ZvZMshG55uEYxK8hzesTpZazW1vb1oIkMJ8vc+ayeH7Jn75j2zuVZNzLzf8Oh1aYR6KE9vtVe4opZYUShB5h9PTEQciUGao3OtbL1012Wwo9BE2KyrGeN92qtxDwrB3m/G4pBiai+lWTuJ6xalkxzs9l1Pn9oVtUSGm6sMicyfkIA4JkyKOK0lTO6iwMMvAGu/itBgF1qq9Yz45T+4b7SEjroW+h129PVV6H1ncf2iiSQF6U7pTVS7qpEp3NBKJch9Q/CMncD0aOd3OUYiQ6oIJClRTU9bA20mKbb2Uspr6ygpqKFTN4s775vL2ChPlKd/7UENdNRSmbuLjri7mRnmvPfM+gpW8dWmXNqC5nLT9fOYEut+WrBp622i4tAm1h2sxzTQQn1TC9V5eVSSwMKHnuTuMe64SCRgKuSbV76ibfQ9XDcplgDX04fJHWWjLX8H27bmYwydw63XjSbgbGfVz521icJ9m1m2ohJ7dDLjx/hi7uzHOtBKfd0AAVf+mt9fGUx/jwWHxIreEMMtd80iwvOk+QBqKW37d5NRoyI+LYnkiOMZ8Y7tdtWi1vrgggp3jYAFXybe9iBXRZlpqmmh12FFX1dNX8wdLL41BQ/FyfPrVHi4SbDJvXCXdaCImUFqQjxhzokujpGo3XH3CSAIPZ3tHfRZjLSXlFBZV05xq43g25/mj9P9kQ062d9C9bYlrDkkJemKBcweH37R10P+YZloPpJHfacN3wmTz23x9+/D1k9n+V6++fxLVpQFcf0fnuK+0aeNw/hp6S9h87p9FFU30CvzJTQ6iZTEQHRSMz3tFrRBEUREB+Euh76mIvIz9lPS40lYSgopSTFE+iow9BgxaWKYNCro9EQzcn/ik4PQ9lVR1tyP2dRPe105FdWdEDSB+QvnMCU5kLPmvhH9zEiR2a3Y2vazanczQQtuZZLf6VVNN78ABIsDi12CqbOaNkUSM6+YyoR472OJxn5EChVKnQ/+dgMmoxmbqZ2yLn+uf+xu0tyOVjhlfjFE+fSz562XyPBYyA3zx5Pgq/pelWqHzUzVplcojn+cBTGnJy4cFqkGD58gIoJdMDVXU9ZixGHuprmylJKGXnQjruPXD8wnxvX0inPPvg95b0snsQtuYO64aLxPuylcnnrz1rBmyx6aAqdy5fwrGBM0yHg52wA9TQXs37aejTvyqGxXEDPnNm6aFoDqlOOkRdq0ic172vGZNJnESD9OqS5q3dEpFHi5KlGrJNhlnkROv4Hbp/pjam2irdeCqbuddnkyNz90PUmXRPu1Ei9vJQ65Dx7uciz9EDx2PovmjcXf2klbVyd9fd302zyIm3U9vxjlixyQyJWoAyMIltey5vkXKBz3NH+5KhzNyesHqzxww4rc2xNZh4LY6WNIiA9miOoVclcPPPyC0Bm66ezsxGjroja/gtraAqp73Jj80F+5I1lz2rn7o5G64x/giU4zQKe+jx59N91N5RSX11PbqsB/7PU8eMcovBXDOFYn6c36is821+Iz8SoWTB9BwNnaiAWbRTD2GASz1SE4hDNw2ASL0SD09vQLRpPtu78PNAh5K58WFo6bKNz5QbVgOvk1J7NbBGNPj9DTbxJs9jO8U3+2sOLjj4VX3swUep33HedwCHZzv6DX6wWD5aS/m4xCb49e6DfaBLv9pL8PYuDICmHpR68IL+0b4l3sVsHcUS4c2LROWJtRLxhNR99P32sUWtf/QZiZFCbE3f2+sKe8WzjLW52is3iX8MVTs4T/2+O85+ya93wo/O+F/wofbSsUmgec9x7T3yCUbHxVeOjWW4Sbb75VuOO+Xwm/+edHwo5y46nlyt8Wrk8cI/xhWYlQ328XeptaBX2/UbCeWkoQLE3Cvg+fEO648kbhDx/lCwbn/aLT2FoOCl/9/VohMnamcONzO4RO64DQr9cLPT29gvHE+eoQBLPh6DlsdgiO0y4Jq1D86W+Fq6deLTz+/m6hyunnE4Sj56jF2Cf09PULpuM/nMMu2I39gl7fIxiHvBiPMwvFHz8uvLpsm5DV5rzvKEtfm1CVs0vYuvOAUNhsEAb69UKPvktor84S3r8xTPAOGic8tdci2E77/MeYyoWvHp0nzL3x/4RP9zYIZuf9l71uIfuz14TX/vaCsKXded9FYh8Quit3CUv+eqcwbfavhH+trRQGOz1E58sqDPT1Cj16vaDvGRAs1nO5w4t+lizdQtOBl4WrEyOFeS+VnaEeZBVMfb1CT9+AYLFdeueVw24TTL16oafHKJxctTrO3vCV8MCYKcID7x0SjpQ1CJ19BsH0Pb6G1dgjbH7YR3hwg0Uwnlb5OFd2wXbsWavX9wg9vYN/hxMcXcKOP88Ups38g/D+7mqhZ6hn2GXC3N0g1FQ3Ch09PULOBw8JN46OE677yyfC/kGeS3Zzr9BZVyDs27ldWP3ak8Kv77pJuHbGKCF45N+EnKO1k1NYc14Xbp8wWrj2n+uE7ObBnuI2wWIyCH29/YLBfCw+cNgFm3lA6Nf3Cr2G7/3jXhwWk2DoMwiGAatwPCyxW0yCoU8v9PYZvqtXnczaI7RnvSTMDxgjLN5jFnrrqoR2s/3E608wFwofPf6SsHxrnjB49couDHTVC8UHtghb9x4WqrutwkCvXujpbhcaCzcJT03yFvzirhc+rRZO/98/loEOoSZ3n7B11yGhsLZD6Df0CvqePqGzeJvw6RNXCBEpc4W738n/Lo4Y7rFydAv7nrteuPKKh4QX1xYLnc77ByFFpkDtpsFFPng0fIJEhkKtQeemRa08qdlF5Udw4gzmJ8go3LiG0qHW05MqULu54aZVnmEhdQd9VZV0mA0IceFDr0slkSB10eLu7o7m5HEeSjU6N3e0atmZ1wpy9FFd00GfXiBpkKG3AA5TD407XuXPv36QX/53N+1yNW7u7mgtZaxevokmWRgLF4wnzP/YIuw/gIAp9/L7PzzBPbOShl5rUBtM/Nxf89r77/Puex/w4Qfv8vqf72FGzKnNGKaSbMrlI4mL0eIqqefwvkLq2vpwzr9gbi2ioLgOo08qUyadvFapaCh9LQ00VJRg9fUmIjkRL7kKrbs7bm461CfOVwm4aI6ewy6SQRbslpMwdQGjI3ooLSiguNZw+hxwqRyF2hU3Vy0nVnCSSJGqtbi7u6E+WyuyoZrcSne8XN0IGLTTzkx7yV6+/OdiHv3r83x1ZACV1g2NwkRL3kqW7oHQ8XdxyxjFkK2Cxspd7C0XCBs9geSYwLMOBbn8KPAIiyYqKQ6fsx3vC8KGoa2YPau/4et9MPFXf+DRRVFnWA5LdO7kqFx1uLm74+6mQuE81FAkcqbQ4R49m1sne1G48gvyezl9biBH79lKVx1urqqTchBcOiRSGUqdO25u6kGH0Lbv3EC2ahTjRmrpLcqmorED42kPpuGTyOT4j7qSUf5DTzsZPimyY89ad3c33HSDf4fjbG172Lzfhs/UaaRGBeD2vd//R2Ss59D6z3j79c/YlpNFdlk3XZIxJMUlc/pMLwfG1jL2fv0e72/pZcxv/8Nrb77G878ag4ts8GVd5SPncV2aLw0ZmZTUtjJwWiEZCqUGV50WzfHEHRIpMhcVWncdujMsdfSjUijRuGrQqOQn6jBShRKNqzs6V8139aqT2Az9NOzYQk7wQq4bZeTIhh3UGm2nJb00Vh2m2i0ArZvv6blpAOy91B9ez1t/foQnnn2dbQ1yVDpXVOip2f0layv8Sbzyl8yL+P7rEF8oxqodLH/ljzzyp9f5cn8jdo0OncJIfdFBtmfW4jdiPAtnJJwYJTjcY2XvyGR3pgFV2iTSksLwGsb3vQB3TwXeIQnMvnYmga2b+HJv+2kB0HDZ+xvJyami36xiVNJFytQj2DE05ZBb0U+PYhQjA5wLHGUd6KN8zwqy+3VEeGmR4cDSVcnBr/7Le7luRC56nHumRRH8Q6UZPhdSGXKN9ow37z5DHzIPb7SGJmpyd1Nk06KUa0+tBNv6qMo8TGmzK9FT5zApZpArWeTEQmdzM/UV7fh7+zMy3t+5wPCFT+Pa2aNQN2RzOLeEjtMmm3wPdgMtmZvIlUfgFRCC36BRZS9NlUXkHGzG5hqAVgU2Yxc1hzbz9bvLaE6ZzX1P30eaaogEQZZOstftotltIlOmJhMzyFC6y5+WyKkLuPKmq0gbvB3sArJj6qoma/1yvvm2mqBrHuCxG860jvN5EkzoWxspL2qif9Aa+I8jIyODqqoqLOe84LToUmQ2m6msrCQjI8N512VIhsY9lLn33EKyfi3vbW3BdAldOxdKQ2059sRo/PSllLYqcJGp0X6PaoHMRcPIX33Cg6O/S1b4gxD6qVy7ksPK0cyePYLIIXsDLhMNG3n7vSV8/OUa9mft5EClCeWoSYwZE4ffaQ9nB0Z9GxV5OVQ1tNLc3Ex9bRmVeh1pt8xhxLHEpKeQxjDnnisZYchlX14Z1ee7/ORPgNVqob6pCpdxKQSU72avPpQQtfSUxhe7oZnMzTnIw/0JCB1i/qa1jfqKI+QUGVF7+qOR2bH0NVG0Zy0ff7Af94m/4PEn5uPr/LofUXvRfo5U1GKWueKlliMMdFF/eAOr1m8nRzmHRTfdzVVx390QhnOsEAzUbNnAYXsU6TNGkRQ2vC6yC1Ob1AYSkn4j985UcvDLLzjcOlg6jLMR6K/KpszggXvSTCactC7mBeXopya3jD6lO0nzJxA4xBGQKVT4xU0mISqFX1wZQP3hQxxc+yH/W9lB+LzF/PeRK0gK0J51LaJLlW/qAqZGK+kq3cPabC8mTYglMuSkCXuClb7avew6UIMjfDrXXT2en2TscaE52mlraaS6MQifwJEkRTgXOBeujLzqZhZEmajO3Mfe0m4uWKJTQxW79nQSm55CUlzA4DdXVLj7BxMzfiwpiamkKMrYv3MTa75eyn7lXO7924s8MmaIG41gprNgBSsPShm9cBHTRob/YMtJ/TQ5MOsbyN34FV+vOIxj3J089sspHF9i7cIRsHSXcmDt57z57gFaLqEK+JNPPsl//vMfKioqsNkugTSnovNmsVgoLi7mueee44knnnDefXlycUOXdid/vNWfgx++x8FGw9CZNS9TYWNmkx4KpXuK0IyMxy/Yd4hnx6XMTm/NFj5Z3ULyzbczZ0Q43pdrRe44qwqtuxb38EhkTc0YdUlMXzCZCfGDtajK8QqJY9YNVzM+yk5lVhZ7dm1hU/0onvnN5CF/T1367dyz0Jfmg3vJyqmn1/ITO7mHyUWlJW7CHMZ5dLJj9RGibpmFl0J+SjBlrNrGzq4RjEuJJ85/iCMq1+DpH8KIUeMZOWICIT372LdtHSu/2ExT3G38/vmnWXRsmaFLhWtALGHRY5iaHkOAax8FO9exfNVODvWlcOsDv+axq2NOWY3k7MfKTn/9bpauryNk9jXMG59AwDAbw2TPPPPMM85/PHcSXFw9CIoKRXbgQ5Y1hTMhJQI3l3Oprdrp61UQFBnH6FGRuF7wStkx9j765UGExI5mbLTrkNG7VKnGK34ckT37WPnNUtZsPky5JZkb/vg3nrh5DCHuw1zQ18lAZy1Vebvpir+LGeeYsOmC8kllwfx0EhInMGtiIkFe6pNaQwRM3WXsWfE1h0yhpF9/K/Ochh2LhmBtp7q0kPwOT+LmXcW1YwJPTwxzLtQhJETIqMvOpaTFjm9MBP6uiiHP22EzttMfOJ0JSREEH8/4fRol3gEBBAcIVO9ayZp12zhYa8F3+gM8/ceHuTJmqNZqAUNzJsvf/IT61Du4ZeEEEn2GGgMgGg6bsY3iTZ/w6RdbaU++g8ceu53UC77egIDN2E7x9lWs21uAMOdubk0YKs3ED6+9vZ1ly5YBEBQUhLu7OzLZ5V7r/Pk5Hri+//77bN68mZtvvpmpU6c6F7sMSZC5qAkeNRrPPc/zflUY40dE4KGWnVdd4VKkjZnJ3NGJjJ4xg9Qwb9yHqJdfyqxdxWx842X2BN/Lr29KJ8Hv+yWduiR4RxAq7aOnsYiS/iBm3X43N89OJWiIyodU7UVAXDqzJqYQGRRK0rj5LJqfylBx1lEawtNicBzeRFa9DVVQOMFemvNLsnUZk7po8U6ezzXjokmaOY9R3k49iYCptZfAKZNJjgzAbahHlNQNn8AQAj305G5azor1uyho15B482P8ZfHNTPC79OpMmpBEQrVmmrI3snr9FvaXWvGdcBO/fvRerh8XhHPId7ZjZe0uZ9sHr7PTdRG33jCDMWHaYV+LEkE4ZTni70ew0NeYy4rnXqbtrk94YsIZr4Sfpd6aw2SsfZvqqe/xQJrz3kuFjaqNH7K+XkHk1GtZlHjBa8k/aXarFZvNjkypumBrc5nLvuXDNZUIMVO545qRQ2auuzRYyH37j3yj+wW3zx1Pgq/Y8PF9CJZ+avcs4Z0PVlLkcz2P//Uhpl7osUSCDVNfK+W7vuaDd5eS5TqPP770d666WCNgzkN3dzcPPfQQO3fuZOHChdx///0kJSWh0+mQy4fZXCv60TgcDoxGI/n5+bz//vusWbOGKVOm8N577+HjM9hiHpcrBw5jFV898juq7/yc303yQOdcqxP9aFpWPsbfqxfyuzsnEeeruWxHz/1oDEf45sWVtMdfwcyFU4i/JLIHiy5H7Rv+j/+Uj+fGa6YxJtzttNVTzuTCBq8ikUgkumAEq5GOI9/w9tufscs2lQeeepybEobq8T5XAg6bFfNAP32d1Rxa8zHvf7CUHX0jufLev/DqX2dyWq6PH1l+fj6PP/44hw8fJjQ0lOuvv55FixYRFhaGRqPBxcUF6Rmz9Yl+SHa7HavVisViobOzkx07dvDuu+9SVlZGamoq//rXv5g4caLzy0QikUgkGpIYvIpEItGlyGGhO28Fr730Bqt6RnPXo0/y8OTz7aESsNtsOBwCgsOOzW7HbrPQ11TC4S1f8tGyzewp6QKk+E+4kV8+/SJPTb80+/dzcnL4+9//zsGDBxkYGCAoKIhp06axYMECUlNTcXW9dLsCpFIpMpkMuVyOUqlELpcjOT3V+BnZ7XYsFgtWqxWbzYbd7py78dLR3t5OaWkpubm5bN++nby8PFxcXBgxYgR//OMfmT9/vvNLRCKRSCQ6IzF4FYkuIIvFgs1mQ6lUivPxnAiCgNl8NGWy2EN2Ng6sDdt489kXeW2rkeT5i7hucsT3yCzcSWVuGU29RvpbKyiuqqSqqQeTySnwkYYw6YZf89eXfsvkSzN2BaC+vp5///vfbNiwAb1ef0kHcCfz8PAgMjKScePGMX/+fNLS0vDw8EAmk501iLXb7ZhMJhoaGli3bh2ZmZmUlJRQXV3tXPSSJJVK0Wg0TJkyhT/96U+MGjXKuchlxWazYTabcXFxQaG49OaniS4dx599EokEhUJxQZ99RqMRqVSKUqk86z1EJLpc2Gw2LBYLMpkMpfL0ydti8CoSXUCvvPIK69ev56mnnmLWrFniw+Qkra2t/Pvf/2ZgYICHH36Y1NRU5yKiYwRjPp//7R+88vG3lF7IJZLOQhI5i1t+8zSvPzB2yGW2LiUrVqzg9ddfJz8/H6vViiAIXE6PtLFjx/LYY48xY8YMXF1dB71fCIKAxWIhNzeX1157jc2bN2MynU9G/+EZ7DN8HxKJBIlEQkxMDA888AC33nrrJd07PlwbN27kySefZPHixdxzzz0X/LiJfjpaW1v54x//iJubGw8++CBJSUnORc7bpEmTGDNmDIsXLyYyMtJ5t0h02REEgU2bNvHSSy+Rnp7O//t//8+5iBi8ikQX0rp16/j3v/+Nn58ff//730lJSXEu8rOk1+v517/+xZdffsl9993Ho48+iqenp3MxEQBGcpf8g1eXrGJPow1+wDt06KSbufeR/+POUZdHsj1BEDCZTBw6dIgtW7awf/9+SktL6enpcS56SZJIJGg0Gh555BHuvfdeAgNPz5DV3NzMZ599xuuvv45er7+owbmXlxeJiYnOfz4vSqUSHx8foqOjmTx5MmPHjkWlUl3QXqcfU25uLn/+859pbm7mn//8J1deeaVzEZGI3t5ennzySdauXcuTTz7JXXfddUGffU8//TSff/459913H/fffz9BQZfY+ioi0TnavHkzL774Il1dXSxevJhbb73VuYgYvIpEF1Jvby8ffPABzz//PElJSTz55JPMnTvXudjPSnNzM//6179YtWoVEyZM4A9/+APp6eliT8WQBBxWCxar7QdfJ1Iik6NwUV52yx/Y7XZsNhsOh+OSHkLc1tZGRUUFxcXFZGZmsnfvXrq7u3FxceH+++/noYceOqX3JC8vj//973+sXbsWq9WKWq0mJSWFuXPnkpiYSHR0NKGhoae8x/chkUguaHB5/P/JZLKf3DQKk8nEli1b+O1vf4tWq+W3v/0tv/71r52LiX7G2traePLJJ9myZQvTpk3jqaeeIjU19YI++9ra2rj33nvJzs5m0aJFLF68+II1QIlEP7SVK1fyyiuvUFJSwkMPPcSjjz6Kh8fpK56IwatIdAEJgkBNTQ1vvvkmH3zwAUFBQcydO5c777zzsp/jdT42bNjAyy+/TG5uLpGRkfzpT39i0aJF4hwx0c/S8eDaZrNhtVoxGAwcOHCAd955h8LCQm655RYefvhhoqOjycvL47XXXmP16tX4+Phw7bXXcs011xAXF3diTv1PMSi8XAiCQHd3N8uWLeOpp57Czc2NkSNHcv/993Pttdc6Fxf9zKxZs4aXX36ZoqIiQkJCeP7555k2bdoFX9ZLEASysrJ46qmnKCoqIiwsjGuuuYZbbrmF6Oho5+Ii0SWpurqad999lzVr1tDc3MwNN9zA4sWLiY+PH7SxRwxeRaILzG63U1FRwQcffMDHH3+MVCrFz8+PsWPHsmDBAmbMmIGv74VeqPPS0NraSnV1NXl5eaxfv56SkhI6OzsJCQnhySef5Be/+MVPYr6bSHQhHE/k0tjYyIcffsiGDRu4+uqrufbaa1mxYgVff/01M2bM4L777iM+Ph6NRiM2/FxCHA4HnZ2drFmzhmeffZbe3l7c3d2JiIhg3rx5TJ8+nTFjxoi/2U+cIAi0trZSVVXFkSNHWL16NeXl5XR1dREaGsrf//535syZg1ardX7pBWG1Wjl06BD/+te/yMzMRC6XExgYSHp6OrNnz2bChAmDTkkQiX4sBoOB6upqSktL2blzJwcPHqSxsRGj0ci1117LI488wsiRI4ds7BGDV5HoIrDZbDQ0NLBixQrefPNNOjo6UKlU6HQ6tFrtkBfkcMlkMjw8PIiJiWHUqFFMmjTpvJJAFBUVsX//fo4cOUJJSQldXV3ORc7J8QxxAwMD9PX1YbVamThxIr///e+ZOnUqWq120FY0kejnzOFw0N3dzXvvvcfGjRuRSqU4HA4mTpzIb3/7W/z9/cUA6BLlcDjo7e0lIyODf/7zn+Tm5iKXy0/c69Vq9U/mnufj40N4eDijR49m+vTpREZGDpoJdCgOh4Ouri527drF4cOHqaiooKqqyrnYZel49mmTyURvby82m42JEyfyxBNPMGHChIv+7LNYLFRUVPDWW2+xbt06uru70Wg0uLq6olarxfvHGeh0OkJCQhgxYgRTpkxh5MiR6HQ652JnZDab2bt3L5mZmZSWllJZWcnAwIBzMdExDocDi8WC2Wymv7+fgYEB3N3dufvuu7ntttuIiorCxWXo3Bti8CoSXSR2u52enh6ys7N5//332bp1KxaLxbnYeZFIJMhkMtRqNVqtFh8fH8aNG8e9995LWlqac/HTbN++neXLl5Obm0tHRwcGg4GBgQFsNptz0fMWFRXFrbfeyvz584mNjUWj0TgXEYlEJ2lububtt99m9erVzJo1i0ceeYSIiIiLWukVfX/He9CrqqpYtWoVH374IW1tbc7FLnsKhQKlUolWq8XNzY3Jkydzzz33kJKScsbgyGazUV1dzVdffcW2bdtobW3FYDBgMpkuaubsH0tUVBR33XUX8+bNIzo6GpVK5VzkorDb7bS1tbFjxw6++OILsrKyxABqGGQyGS4uLmg0Gtzc3EhISOCmm25iwYIFZ6239Pf389lnn7Fu3Trq6uro6+tjYGAAk8mEw+FwLi4ahE6nY9asWdx2222MHTsWT0/Ps3bwiMGrSHSRmc1m6uvrqaioYM+ePeTk5FBSUkJHR4dz0fMmlUpxdXVlxIgRPPjgg0POuers7OSdd95hw4YNVFdXYzAYLtgN1sXFhbi4OEaMGMHUqVNJSkoiPDwcDw+Ps96IRCLR0SCopaWFtrY2vLy8CAoKEue0XkaODyOur68nOzubAwcOUFxcTFlZ2QVruLyUuLu7ExcXx69+9Svmz58/aGKV7u5uNm3axMcff0xZWRldXV0X7JlzKZBIJCiVyhPPvunTp5OYmEhoaOiJNZx/aH19fTQ3N1NcXExGRga5ubmUlpbS3t7uXFQ0CJVKRXh4OFdddRW//OUvB83gbLfbOXz4MP/9738pLCykra0Nq9XqXEw0hIiICBITExkzZgzjxo0jIiKCgIAA1OrhrWYvBq8i0Q9AEASsVisdHR10d3fT19eH2Xz+C3jabDa6u7upra2lurqa4uJiCgsLsdlsJCQkcN9993Hfffed8pri4mJeeOEF9uzZQ3t7O0qlktGjR5OcnExYWBjh4eG4u7uf8ppzcTyAdnd3x9fXF61We0Ezl/5c2AbMOKQyZC5yZGKHm0h0WdLr9XR1ddHb20tvb+9FXeLoh9La2kpDQwM1NTUUFBRQUlKCyWQiOjqa+++/n+uvv/6UfA6VlZV89tlnrFy5kvr6eiQSCREREaSnpxMeHk5wcDDBwcGnvMflSCqVotPpTnn2XQqjJQYGBujq6kKv13/vOsdPmV6vp6mpidraWkpLSyksLKS9vR1fX18WLVrEI488ckoW+IGBAb788ks++OADSktLsVgsBAQEkJ6eTmxsLCEhIQQFBf1gPe6XI61Wi06nw9PTE09PzzOO3BiMGLyKRJeh48PU+vr66Ovro7u7m6amJrKysli5ciUqlYqHH374RABbVVXFn//8Z3bv3o2npydz5sxh2rRpREVF4eXlhaurK66urmecYyD6ATTt4I13VtAYeBU3XD2b0UFDB/+CoYOmijz2GRK4adLFqgBa6GuvI39vBR4z55N0eseKSCT6mRgYGMBgMNDX10dXVxctLS1kZWWxZs0aAO69915uuukm/P39qaio4OOPP2bp0qVYrVamTJnCzJkzSUpKwt/fH51Oh0ajuWhJjESi4bJYLBgMBvr7+9Hr9bS1tVFcXMy3335LUVERixYt4rHHHiMyMpL+/n6+/vprXnnlFWpqapg4cSJz584lLS2NoKAg3N3d0Wq1aLXaH6XX/edCDF5Fop8Im81Ga2srhw4d4ssvv6SyspKnn36auXPn8thjj7F161bmzJnDggULSE5OJiQk5JySbYh+AJ0H+eSzfdgjpzN75hjCdEO13jvQV2ay9qP/scr/Cb55ZIxzgfPicIAgwIln7kAzZbu/5l9v13HVmy9yvZiwUiQSHWOz2WhrayMrK4vly5fT2NjILbfcwqxZs9iwYQOffPIJoaGhXHfddYwZM4bQ0FDc3Nyc/41IdElxOBz09PRQWFjIhg0b2Llz54nEk+Xl5fzxj39EEATuuOMOJk2adKITQBxp9sMRg1eR6CfGYrFw6NAh3n77baqqqpg7dy5Llizh3nvv5ZprriE2NlbsYb1U2Xppbu5H4eqOh4cW+VCxq9BL1YHlvPLnD+l+cBlLbv0eUaVgp7+tlJyMw1QYAkieNIXx4UfnnVhbj7Dn42d5cvNI/rf2aaacOXeFSCT6GTKZTBQVFfHhhx9SU1NDQEAAzc3N+Pr68uCDD5KSkiIukSa67BxfNWLVqlV88803JCcno9frqaur4+mnnyY9PR0vLy/nl4l+AGLwKhL9BNlsNnJycvjb3/5GWVnZiXWzgoODxaEslyhjaz4l1XY8wqIIDnBDeawR12Hox2ATELQ63CQD9Ha2UV9dTP7e5bz5STVjn/4fvxoTSGS0D+c0w0awoK/J4cDBEhqsGnz8PfB0DyQ8Lo4QpZHOphoqinLY+unrrOA23nhmIRGhCYQ6T4tuzmZdZhX9pqEyVStw9QoiKiGOiCBvND/I6ddPe8URDmw+wJE2M9qQFGbedBVpP0anjyAwUPktn608gjT1Wq6dGoWnWs5Q7RKDMXXVUHBgC/trtSTO/wVzoi7iUEubgZ76PLZv3E12mxmlNporfnkHEz2dC17KTPS2lZKxYTeHa9qwuXoz9ppHmR/jXE50odjtdnJzc3n//ffZu3cvY8eO5cEHH2TcuHHiM0d02RIEgaamJr744guWLFmCp6cnixcvZtGiRWIiyh+R7JlnnnnG+Y8ikejyJpVK8ff3Jzw8nJiYGG655RZCQ0PFSsQlqjdvHVsremnK3cKOKjNa70BCPVUwUM3B9cv5aNlhWuQ+xAUr6W+sJS/7ELkHdpPdH8nUiRFoZK6EhnoyrJQH9gFay/azecsBChsMSNQe+IbFkjJqFCNjgvBSSzD1tNNQlkN2XhY7d1eiHDWTMT5SlD5R+Dt3oHRWkFFYR/2hNazasI0deyroUyqRywSshn46KrPZt2s72/bm0dAvQxcUiv9Fj2BN9DQWsHvlMj5dup2KXiWJ8+eRdG5L950DKz3NRWRt2kidaxrhJwJ8AcHRQ9abi/nHh5s5UCQQM3MMYe5qFMOOXvupz9nK58+9xJIdFbQLkUycFokOwGbCXLqZ5zd0kjgyGLVEck5B8aAcJgztxezbvIZPl2wgu8JA3A03Mtq50eKSZsHYXUP2xnUs/+Rrdlc04jb5l8yKcC4nulCkUil+fn6EhIQQHx/P3LlzGTNmjFjBF13WJBIJrq6uREZGEhISwvTp01mwYIE4eu1HJg7QFol+ouRyOdOmTePhhx8mKipKDFwvVY5GMvZXYZF7oeot4kBOMdXtx9c+tNDbUkZ5aQlNegtSmQpX3wACfbVYjVbc02Yxb1QsseFeKAEcVsxla3n5iyP0Wu2cMqzG3kdjzla+WbqaHYVtWF3cCYxOZdIVc5gzKZlwD+WxB4IEhcYdvwBfvBX9tEsjmTp3KvFx0QQ6B64APolMnTGbKaFWOhvKKS4y4B47iqnz5jN/3nyuXDifVN8BqrYv4Z3XPmPl5iLaL/p4HzVeoUmkThhJhMzAwICRi7s6h5nepgL2LlvGvkbnfRIchlaa9N1U13VjsjsQzinClOCwmDDoW2jt6aSto/+7ANVmwlC0lje/zKXHIZz6e58vmRpdcAJjZ44isN+A0dCP/aIeu4tBidYripRJY4lyMWI0DmC0O5cRXWhyuZzRo0dzxx13kJ6efs4ZREWiS5FUKiU4OJjbb7+da665RswVcgkQg1eRSCT6MQl2lLEzmRIt0N3cj87dD2+vY12EqhBSZ93Iw7++hSvHhaFWqND5uOOlg4F+N2Inz2BkbBQRwR6caJpwDGC2SPluQoidtiPrWPrVBjLKOxlAjX/MeOYsvJIrJsQR4KZwehBIcNG64+3lgcZsxOE3lumTYomOjsBnsODV1YeI6GiiA11RKiSAFt/gcKLiYomNiydl0gJmp6eQ6GumrfQwWfszKO9z/icXmgKVRxBhUVGE/wBDhR2GTtrKc8hqNDFwSpAkQSLVkXLTE/zhiad46snbmODviuqcglc1/vGTuP4PT/HUEw9z302jOboYiR2LqY3M3dkY+i9gZCZR4KLzIzQqGG/nfZcNGS4abwIiIwi4aL3tIpFIJPoxiMOGRSKR6EelJTAsAFntaj5e1UTQlAVckR6LtwsgccHVL4yIqAgC3Y8NUxpopDRjK+syYfI9d5MecDz0FBDsVszKEEaPjMBdKeXoUoMO+mr2sXXjQaptoYyaNo1x8UG4q87Udmmjp+4IezZtpcTvGh65Jp6zzbLsz/+GZXuqae0NYcqNsxgVG8DRWFdCd+lODmQcpLBVim98CmMmpeGtLyPn0BFK65pp67Xj4mghN6uA6tYB1D6+uB4fbWg30lmRx+GCEsorK6mq78As16JVK1GcvBCutZ+uxkqKCwsprGigrbefnuYKjuzYR4MugWnXLiJZY2KguYhdWflUVddQXTOAa4QPGkknZXuzKCivoKK6ilarFndXNUr50WPkMHZQV15ITkYWR0pLqeswYkWFzlWKpbuWI7s2svTTr9laZ8UjOAqdqZFGkyvh3kqE9hL210vwDwoixMMLv3BfXG2tlOTkUVhSRkV1FVXVLRikajSudvRVpRTm5FNS3UjnAMjkdvrbGmjDm6DAIPy9vfDydMFQf4QDGz/jjQ+3UmsNJCnehY6aTgQvX9yUMvSVB8ktKKG0ooqq6iqquuyo1VqUA42UFeeTV1ROVVs/VqkGH51zT4KZ3rZCNn+wlTptCNPvvo0x7gZqD+0hu7SKyqoqqtrs6Lx0qBUyJIKVnvpSCgoLKSqroKqxkwGUaF01uNh7aKstJTe7gLL6droMViTmRvIOF1PXaUHt5YXK0UPNob0cLj36WY2aMNwsjZTk5VJUVkFduwW5VotGqUB6/Cd3mOhuqKS4oIDC8gpqmzox2pXo3DXHhmTb6G+rInPFCnKtnoxY9BDzvluqUSQSiUSXKTF4FYlEoh+TRIpM1k/+l2+xpjWJ6fPGEKaTI7HLUKtOny9maysle/sWtumTue2+KQQLvdRXdaJQ6yk43EpT4Rrq3McR5iY5VtGX4uofQbDOwYDJgrm/nbqaJvR2BVqdFvWxAO0UQh+NxfvZuL4A+dxfcucINeb2ahps3ngMkRVqyODV0Ud1xhZ27M6mWhLHqBkLuWqiLwNF21n6yVJWbtnPoaJGuhrLKMj4lmVbCmhVxTEu0QuFoYodX33FyrUHqLJKsJn0NOXtZ29uMc0OD/y8PHBTybB1VXB41waWr9pJTnUHJoeNvuZKCrP3k5Fbi8n7WPCq6kNfsJE3PvmSNRt3ceCglZRbJhEsrWbXe1+wfPVaNu3aTYl8BGkxQfi4yjHUHWLHxm9YtiWH8oYuehpyyNi/h4x6UHu7o+08xMovlvPNxjx6kOIQ7PS211Mvi+aKRE8clZt59dOvWb9uC7v3GImcP5owoZIdK1ax4pt1bN6xk4yCDqRBMUSEyWjZu5avlqxmW249Fo0PPp7Qsv9rPv1mPRt2F1JnDGL8aE9adn/OV59+zqqSASQ2B1JZN7Vl3binjCHcw4XmfZ+ycs1qVm/cwY49OZSZvYiNCcenL59vV3zO15syKOxywd0vjOQQ5+5p5+D1dsa4dbL/lSd5dWUGRfVN1HTpSBgZjrdLL8U71rFm6XoO1vdgtJtoKzlETnYpnXjg7WGjOXszSz9dxurtGeSVNtBeV0zugU2s2l2BXhvJiNABDn/5Lp8uW8vm3XtptGjobmujt6uF6qx1rN6WTbnZh4hgX7y0CiTGZgr3b2HF15vIqmzDKJhoK88jJ7OYdoeOgDA/tFIxeBWJRKKfokFqLSLR5cREa0k2hzIOcODgUNshcktqaO014bggk8KcGeisPsL+b9ey8ptlbNqXTY3euczPiZ667L1sWbOSb77ZRFZ1B71DJaIVHWUsZVdGJ25JyUSpWqkor6NObwdHD/VH9rBhzQ72lXZiAfr13bS0daGNGEGisofOqgNsz+3A3FFNQUMTmR++zq5mB7aTz3WFF9HTb+Lue65hYpiM3qYqSgqy2Ld7LxlHamnvt3HKtEZbL93tzbT2+5KWHIypp4X87fupHTi50FCaKdq/hXXfLGPZ8q/44vMP+HpbES3yZCZdfSNXz5tErLsWj8BAgnyhYd929uzYyO4qLTH+PRzetZZP1hdichio+PZ1/v23/8cXVb6MnL6QX1zzC65M11G3/j1eeeEd1uXU0WnuoXrPSj7478t8tqcBl7jpLFwwm0lJXtDfRmP3SR9NpkTlG05aqJ2SjCwyMyvoFQQEPIkYk4CmpZiCQ5kcru2hzyLAQD0HV7/P8//9mG31SpKuvI1rJ0ajrt/C0nUb2ZCnR6H1wT8olHAdyNWuhCRPZOL4sYyN8gCJDIlXNOkJSmpyssnKKKXTZMWu9CN6ZCphsjbqCg9xqKEfGwq0cg1qoZc+mx2pXzzJsUH4uHsSGBRIgKOBzKwjFFR0YZfIUbv5kRAbAhIpErcoxqRPZGL6SMLcFMgl4B4+ktRYT0y1peRlFNNjBZlKiUItY6DDgNXhSWRSPJF+Z1v/SEBwmOku2cvug1X06SJIHjOB9LRwvFQKuvNX8cn/nuXlb2uRR0ziyqt+wYLRHnQe/IZ33l/BriorniGB+Oos1O3dws6duzjcoCbUvYOMHetZurUMm0JHcPIofDsyycrIZN36TRT16kicOp+58TKqs1by1ifbOFLbjRULLdnf8vkr/+WDzeXYwiaz4OqrmZvqRX/ucl5562u2Vxicv8QFZsdi7KG9to66YW7NXSas9ovyALrsCDYLvbU57N68mmXfLGfZthL0Nscgc7b7aC7MZOe61az4Zhnbsyto6Xcuc6kz01GVx8Eta1m9YhkbDpbQoLc6F7q8CXZM3Y2UZu5g/cplLFu1mg27symrb6OtoZADhR3Or/hhWdso2rOJjTtyqOkewHr6iTYEC4buavJ2bmLNN8tYvXELBW3OZY7SV2ewe+NKVqxYxrJ9ZbT1WpyLXPJMzYUc3LGelSuXs2xzLg09A1zACSkXlBi8ii5zJhqO7GPvzhV89MoL/OfZZ/nvO1+wfN0Wtm/bzvZtm1j71cd88M7bvP/FOvbk1dFzwa9GA63lB1n79ov8/fHF/Pv9FRw8LWnLz0k3Vfu+4c3/9xee/MM/+epAJW1m5zIXg5m2skMUlVbTfrHrrheasZX2Pg0h7v00VtZhEGSoPTRgayV/4ye8+O93+fpAI1bA4RCwyiU4FEY6j2SRXdSAS1QUbgQwdpSB7J7ZTI6SMFiHKnI3wsYv4q5f3sa8ZFf6G8opyMsl6+B+DmYX09B9rIHHLiDYpeAiQ9JfxuHMIxT1BxLj7/wPB9NA0aH97Ny6gx07trN9Tz4d2lim3vUYT/3mDq4bH4iLwoOApHFMnz2aCEGCzjuIaffey8K5N3H79ddw8+xoNJZyvnn5E7J7rMRfeysTo4Pw8/Ajds5CpkX448hcwZq9eZTV5LNr2x725+kJHzOBGVekExUURFz6VObMm8opq6MoNOhiJnPDVRM59asEM/aaRYwPc0VzUme3qXoLqzZlUFjrydgJ6aSPjyEsNpXxM6/l2pnjGRMbQkBCOrPmTCTBHVRuPiTPvp3bb7yO68YFgVSGNHQSt141Dn+57LsHrms06Qvu4KH7ryAt3AO70YzDbkUKmPoFfBPHc9U9d7BoUhIRgcEkjJrM9JTvPrGL1oO4Kddz7cTQowGy33iuueU2brttAWl+SlykEJC2kOvue4QbJkQSoDYyYLVjsksRbL2YVFGkTL+Z+2+YxrioM6+BY7f2UbV/JUtee4kt2tv49TP/5PFf3s1di0YTorNQsOIrdhc20BMQhZeLhd6GOvrUHnj6KGnIzye7sA//UelMmZJCiEOKV0gk0++6l0Xzb+T2667imqkxuCv9SZl3O/NGgEQCxtCFPHjTFBJDA4iNCEKlUmJr76LfZMZqbyFj82b2ZZVhD/DHUyelt76RfjR4Biqpq8lja2aL89e4wAx01Gax5o23eOfdj/j8m/VsXL+WlZ+9w5tvvMlbb77LF6s3smHjOlZ88g7vvvUm72wupvUyrNBeDILNRE/ZXta//w8W/+EPLH5hG41mpwY0APTU52zlyxef5enHF/O/5Xsp/pHjoHNnpqUkg7XvPMff/7SY/7dkBzkNxxPy/RTY6W8sYP+aL/js82Ws2bSN7du3sHH9N3y95APe//g9Xt9Y5fyiC85hMdBRnsGWQQJlc9Um3v3P//Gnv/2Xrw7W02EcbvRqpr+jhH3L3uO/TyzmL/98njXlzmWO6izbw+p3/o+/PLWYxe/toqz1cquEwEBdDjs/f56//OlxFv97NUeae7lUm1kGq96IRJcRLSGp05g+MxZZVTE5u/eQ1+tNZOoM5s6ey9zZM5mS6sVA/jre+Osz/O3NleypvdA3FR2BCSNJjg3CfaAHff8AxtOfwj8j3sRNHkekqxR7Tycms+Wk5EEXUzdH1rzLslW7KDj9+XVpc4tj6oyJxKg7abSHEx4YQrQHIHUlIG40069IZ2yMFypAFxBF2sTZpLjqKaluptN7HteP1SH180ObvYK8sTeR0teIWRisJ+MYmYbA5Dnccs+93DgtBJqPkJWRRU5JLY1dJlB6ERQ/ljnpYdBQSW2DlZQb5xI8rCeGN6OueoDH/vov/vXPl3j1tXd4791XefbRm5iW4I3Laf9DiVLhTVCwBz7j7+Glt17lX7ckIO/L40CRgN0OKqUcydEJvCANIMBXhVrdS019B13FRZR3tFLvcMFFoUBxAVcw6K0qprW7AyNq1GoXVErQJVzBDY++xBtPP8ht4/2cX3JOgqZcx8TESAKaD7LzUAE5BfvIKLMg90hmfJzzUN7z4JbG3KtGERsqULB9Dzn5Rzi8+witak+ixicRdvqodCd2LIZ6tr37d/7xVSna1PGMCNCdNNe4lvL8fvp7BFyMzVQVZXPw4EEO5rdg94ll4thkor3VJ7Xeq1CrvPAP9SN8+gO89Op/+Mt18act8RQQF49W7rQWrtGAyWbDZqqlurGL1l6w97VRW5J79D2LmzG6xTF13EiizxyPf3/2XppLd7Pyi2XsLGlBbxUQbAZasz7lzbff4q13vyC7T0CQCZj0teRsXsLb6w/TrP8pBS3nTyJX4RU5htnJrvR099LTZWXwm5UnEeMmkBSow6W/hx6jBfNl92zVEJA4ieRQLS6WHroMFqekbpc5cwtHNi/h3c82U+Xx/9u77/CoqvSB49/pkzIz6YEQAiQECAFpAoLSFSs2LGvvuu6uDXvv3UXE3hEBpVepgYTeQgkEQkJ6Ib1nenl/f0yAEHVt6ML+7ud5eB6ezJ175s7ce8577j3nPaO464lXefWZR7j7/Hi8h1bw3febyP8LUn27myo5sOzfPDkvu/1LOIv3sSunhKKMjew4XEuD49eeREZMEQkkD0ymg7uRxoZmmn9mFFlk0rmM7B0ErhYam514T8NRFsFxgxjXNwyf3UpjnQvvCcO3Ti0/CiMUitOLjuie/RgwpC+xwYHoAEN0N3r2G8TgoYMZPHQUF910DReMGkSss5i9GTtYtb28/U7+oABC43qS2LMz0UpmS8BMzMAxDOseQujPzI/8M3ibSikuPEJJnQvnn99Wnlz6RC6edD833Hwf9183hsE9wtACaGMYeMU/eO7lB7jpnFg0gC4yiXOueoA3Hr2Jiy+/lZvHxBEAuJ0OMrfson+/MPZvzaLJ+x86r0epNZi7DOKim+7lnquG0UnXSHGNHVTBxPa7gFtfeJF/Xn4B19w1kYEh7d/884wBQZjNIYSEBBNo0B7PhPyrCbhBjueiasOO3eHF6wGtRoda7d//n9GY6fX61iWmvPh8vtZpBxp0BgN6vQY83p94WuTBZa/k4MZD1LZ/qT3zAMaO7kV8bBPb1q1m3qcLyNSG0WHoILr/0mjen+Ao3kF6UTOONkFH15ETGZqUQEhBGmkrvuWz1GYskX0YnvxrOt4q1DozsQPGMDI+kH2fPMUHC3dT0uLBH5upUen8X35w1yGMu+Rabrj+Bm64/u88/OzrvPvOg9w4LrE1cdcfVF1Brd2G3atGo1Wh1kBIt/6MuOR6f5k338ukJ1/no9cf5u9jO7d/98nlsGNvsqNOHM3dr03lzcf/wZ03X8eVZ4b7M0yrohl+9Z3cccc/eWLyZ7x6/RlEa9w4vT91vvz/o9LqCercm6F94tq/1E4wUT370jM+gpCA9q+dLrREdOtDUkIYIb+U9e50VLOf9L0Z7PF2oefgoQzoEk5YVFf6jrmBvz/6MNf2/QuCInHjbCknJzOfppYf9y7N/S7ksnPHc8H4a7hsSCxRpl/bIukIDO1MQr8+xIe1f+1E5rj+nNmzI0H6X7wjeMrSdUxicN9uGA3tbyeeev6M9l6hOLV4BfH5A3mdBgzao/fzBZ/HQXN1Cfk52Rzcl0FWXj4llY381I05n7OJ6tJCcjL3czD7ELnFlTRYXT8bjHgcLdSW5ZKbm0tubgGFxbXYWl8Tn5uWmjIKc/2vF5RW09hUS1nuAfZlFVLd0kDNkZLW10upqqujtuYIRXn5lFTWYT02aUPwumw0VJWQn5tLbm4eeYVlVJ9wp9NKVX4eea1llTe4cHvBXldGSWHr5yssp7bZidfVTG1Fsf9vBSWU1zbjsDdRW1ZIbm4eBUXl1P7UbWO3lbojReTl5ZKbX0pVQwuuX+g8eR3N1JUXkpubS35xGVV1jTRWFJKbX0RptbU1OBbEY6eurIDc3IPszThIzuFCyuqsuI7e2fQ5sdaVkrlyCSsycjhYVc2RolxyiyuoaT4+TE+8LmwNlZTk+485r6CUykbnz/5+fzmtkeAgA3rdL1fLao0OQ2AwxmNPGQXUGozRQ+mlO0hLj+FEqNsMU/1FGoyRiQw8cwhn92x9bKVSo9EbCDQZf/Rk7E+n0qKOOpOxicFo1Srqq+txta5b623KIbeshUaJpmdcNNGJvekW05EYoxub3YHN5g9exOnA3txIC/6v54T57ipOfKoH4KilxubF4wPEByKEdEmmc3Qkwbp6KmvqqWnwIIDPVk1x7iH259dx7Aw7lgXXRl3ROt75+zccPL73n6ElefSFDOgVT/ChH5i7ZB/WwK4M7dvx13X4Va2/sPjwAcXz7ueFH4qosba5RsPO4qLRPekZW8/WOQvY3BRA1BnJJPyqznEAQZbx3PfOZCY/cQl9o0uZ/dyLzNhWRIPLi9CDM8d1JybKiKOuDqtHhdEcQmhoCMG0UFVeRmmN9T/WA7+ZuRf9e3cnoUMA1iYbNqcQaA4lNNRCIDbqj+RTWPcnD3bz+vARjqnz2Qzr+UtXRyD9zx5BtMtOk9vtP1/Ei6OxirKi/GN1bUW9FZcXwIfTWk9Fa91cUFxGndWDq6ma0vxccvPyKTrSiEv8GZcbjta7uYVUNTv95y/gqC+n9Gj9XlxJVU0NNUeKKMjNJa+whMo664/m/vk8LpprSilobStyc4upbPEcHznjbqSiqMDflhRV0dBYS2VZEfn5JVTWW3H5AASPo5m68iJyD2VxMDOT7IJiymtbWl//41wttVSWHP2MRZRWNHL0mbZ43Tgayo+1rbn5JVRaj3dorNUFFLS2AUfqrTRUlVNSkEdBeT3NDi8eWwNVZQWt31s51Y1WnC11VBTnk5uXT2FZNc3tHv+Kz01LZVHr58klt6iCRof3T8qxcYqx+ddRrijLI3NrGlv3HiKvtIr6FsHUoTfnTTyfvrHBgA+ft4mKY+dWLkcarTRUlLT+HgWUVDfjOGHus+CxNVBdVkjOwYMcPHiAnKJSqhpsreeuP4ZrOJLF3g0LmLOmDk9DqX//eZW0CAhWqq1duWLSM7z8+j84r2ckx/quXgdN1WUU5WVx4GAWB7MLKKlswHqyHu87Gqgo9cc4ubm5lFTWY21tMMTrxFpXTnF+Lrm5eeQXHaG62R9Pis+DvbY1DsvNpaTegb2mhPz8XArK6rG7fYi9jrLi1vO0sIL6Fhv2phrKi/PJzc2nuLyOph+dpx4cTVXHYqDc/GLKG06hGOg3ULINK/5HlLJx+gr2HqlFug3lzMQoLCobjY11VB/YSsraLeyq1ZA8ajyXXjSe3pFaxNVC9eGt/DDve75buoP9O9ezK28/6btrkaAQIqNDMKhVqABnbT4Htq9mwaIU0lLWsTV9HRt3FdOgiSA6OgyLwUXZ7k1s3ZxOXYdBDB11PgmOPaTOfIuP5q9n664c8opVxJ3TgzB3C+WZW1izcBFr0rPIPrSbnTuzqa7Yx/o5X/H+wkzUcUFUrl/FojnzWJqSyZHmaspyt7JiwXI2Z7dgiIwlNtKAu7GSw7s2krp6JWk7D3Ioax8Z6Xs51KLHFGQh3KJHzSGWvPER3y5dzqp1a6kKH0aPThbqtn3D93O+Z96yFNbsbiAguhPdDKVsXj6bz2YtYNXmLErq3Bg85WTtWM+qlDRSU/dRoY8kvks0gRp/0OxpLOLAjlSWLljO5oM5ZOeUUt14hJzNG9hXJsSfewlnJXfxL/3Shr00g43LpvP594tZvyeHkppmqnb/wLyla9hTpiU2MZ5wvZ3KfWuY+8WXLNiTyZa0XeTu3sHuSgeqwFDCQwIxuEvYt/Y7pkyZw4b9Zdg8bhrKc8k60oLW0oleMSa8jiaq8nexcc1ylqzeSlZuNpkZ+zhQ7iMoLJIoi+E3dPRORSq0hkDiz7mQId370beLAc2xNUX+ZE3FZGYXkLvjB1amH6HOqqNTchLRgUEEBxkxBup/3BHz2mmqySd94yY2rsukwRxJ/IC+dDCHEBao8T+9IpyuYYfZmlNNTrWepBgDruYaCtLmMHtnBZ6e13DHTeMZ1q87Yc5SakozyGoMwBgURqiqkYrDe9metoof9lSgskTR7Yy+dIuKwKz34GrMY9PSzRTYI+g3vieGmmrqcjcxZ9F6cmrtaDv0Ibl7F7r2TCDCdoT6I5kcqDeg1QQRLA2UZ6SydO1O9jo6MbxvJJ6aIrK2b2B/vYGorslE1u9lY0MPJk7sQ2hDAXvS01i4ZBe17nB6nzOAHnGRmHStNxcsMQQd2UvWoRyqO13AVVddxgV9w4/dMPDZG6jJ28mGjZtZd6AZU1QPBg9OJMasxVWxn4UpGTSrOzN4SBSHU5ahOvNWRidaCPSvFwOoiQ7zcHBPFpklBkZedQNXXTSUmJ97kuVzYWsoJmPHZtYt2UmlMYZ+Y5JJHn4x3TKmsTzrMFuKg0nqpEMX3IEeiRHU5pZSsDsLa2AgOoMKR105BduWMHdDFlXaSOKDa0hP3ciWzTnYwjvQrW9vOpgthAZoWgNQG+UH9rBl1SxS8yEgYTgDEqKJ9JaSu3st89IOUd0USMKARBK6JdKrs5am+gr27SvB5fURFKyhpbacQ9tXszJ1C4XBAxgY2UT2ti1sTEnlkDOAmL4jSIoNIyLoR2fjb2droLa2hqqwHowZFEcg4HM0UbHjO77Z3IBaHcnoO29ncJgajQrQO6msCqbvgHiiTUJdYRY7Vyxm+cbtpB/IYl/GPvLKGlEFhxNiUVN/eCsrvvmMGYtXsmVfLo3aKHxlu9mctob161axZk8zwbGhSNkhdm5IY9O2dSxdtIECp4XomCgsgTqObJnJnO9nMnfpGtbsLaOmtpyKw7vZnJbKhq27ySp1YDBbMFtMGNVeXNY6CjO2sn71ElZvyyInO5O927aT0aQlKNBCuMWItiGdeV9M5/uFy1iZfgR7SymZW1aycNlmcloCiejYkTBNPQW71rBwwRKWrNzCvr2bSc/OJivXitYcQni4yT91wOvAmbOCyYtzIGI0d94ymAj9T91ws5K7bjmbMnIhaTwjhg7CUrqKxTM+4ptlW9ieXkCVPZDY/nGYHc1U5aazMWUBC1bu5XDBIfbv2Mm+Jh2hYVFEBOvI++Edvpi1iCUr15LbbKQmeytrFs0nZX8tmvBOmJr2kbp4Bt/MXcbqvcXU2nwY63LZuSWV1anrWb+9GFdwDF1iQ9CrfHid9RRlbGPdnFks3ptLfvZ+tm/fS407EHN4OCajFo0KKnbMY216LvUxYxk7bADJHdovT3WacleRuXc3u7ZsY3/6FlZv2kdeRS2NDU3YMBCRcA6XDOtCkM6Lo2UfC1/7kOnLV7AmdR2HXWYcOdvYsH0bG9aksLPIilsTRFhoMAF6Db7mMg5uXcbc+StYnbKZjH1bSD94mIJSF3pzCGGhAbjqi9i+8Cs+m/IFabWC2JtoLs9mR7qDuPP6EKU+zMrJn/HdkmWsWLuWcssguseEYzY4qMnawcp5s1iydh3rd2Wxa+cecgqO0KQKJiTEgsmoATw0Hclh+5IlZEoUZ1x8J+d2bf8l+DVnzOb7DcXURo/m+nF96WrfybRvpjN9YQrbd6ZzxBNCWEw8EZp6yrN3kLp6JSvWbScr5xCZ+w+SXQXBYeGE6hyUrv+Sf385hxVrUslsNqE6nMKC+XNYk9GMKbYrHRq3M+v7WXy3YBlr0o/g9HlwVR0ifdt6Vq1MY1tmOW5zFDFRIRg1/jnBdUUZbFm7nIXLN5OVn8PBvXvZU+wiMDySaIvRvzpBwWo+WZZJvW4AE68cSkJUsH8U2ClG6bwq/kcc77w2+nx46orIPbCH9PQN/DB/Gan7mogaext333Uzl/WxoFGB60gGqV8/xV2f7sfd+0bee/46emoO8O3zr/D+3AK6X3kpvS1aNJ56tn9+P3c8O4O9ppHccs8dnO3bwLJ53zI9J4SEHr0Z0FlzQud1yPCRdGnczLplc1hdqCc6oT+94rqQ1L8jutI03r7pOl5aqeOiZ5/iplFxVM15ipc+WYY1JhlXbT6G+IF0UDWRvW4V67dsZvO+I+iDfNRWHmTh3P3YDZ0ZODSI/GUf8eqz77KmPokr/nU3VwzpTHDFat544nXmlHXi3NFnEG5sojRzL2vnLWHjvoPohtzI6KQo9I155O1azcq0bewoCqHP4IGcGW+gvmA3qevWsXZTBrkF5TQRRc8xo+hvLGLp5A9YuqOQ8POvYVCY4HPVkTPjES67eypbOYvb7r2NCf0tlKZNZ1ZKFsWNAfS98Kc7r15bPVU529mYtoblKTs5WFRHnbEDln3f8P2mLJp7XcHY6FLm/nMCTyzJJuLqafz7H2cRW7mId9/+gG/3mhg4tBedAxvIOZjP4T2ZlNbUo+nUm549e9I1rjMJ3brSLUJDZeZKpr31DK8tLCd0zK08eP0wYlx7+ebF1/imqAsXj08m5FSsoX8TFag0aH7pQdDJlvEZ/3zuQ5ZktKANCiMqKpDG3N1sXpOPuls8CT06/njYqL2E3avn8eHnG2iKCiNQayV/XwYlkWO4oFfr2DqVmuDel3BxLxdHtq1kyco0NmxcwYptFYQMvp2nHr2Rc8/oQJBaS0RCErGhRhqyt7FxYyrr1m9gx+ESqggjzONF1E2U5+VC70sZHKNDGxRHvCaHjMoidqdtZuumdWyrHcjZieVYxYSq6hA7GyPpl9SHs8eOJCnaSGP2dtLWrGbdurVsyPPQYfAE7r5qMBFaLYGBAZhNHvIzi8jN2MreimAue+pfjIsE786pXPtiKoSEERHl4PCmZrqeO5C4sGD84auBaIuDkhoXsedMYML5w+nSZnihvXg7a+Z9xmebWogKNaJ11XC4qgNjLkjCHNGBTrUHOVxxmK1rN1AYez+Tbu5PZ5MOjdeJzeEBlRp1WAxkbaZA3YfREy7hvL5hP/803VVD0c4FvPbKUmqiQrEEN3Bg3SHCzxuJa10KheoIQhy5bEtdQ2XMufRLPpNRg2MJppA9m9eyYlUqqSmp7G/owFkXX8O1Q9XsXjyHr2anY4sKRe+tI+9QHrXR5zC2eyDgxdGUx9Kn7mdaaRQRkVEYyraS2tyDs+qn8frcgzT6gomK8nJkfy6+Dj3pceY4RiZ1IsqTz97Na/hhzVpSUjdzsC6Yfhffzl1jLVQcWM0Xz05jrzGKUFMAjdmbORQxnsuSf3Q2/nYBYXTsMeBYx5Vf6rwGJzD87F50tATgPpLGl889yuuzsgk+6wqu+9tFJLn3sOKLz1l00EtUv37EaerJT9/MhpXL2ZiZR2FVA00hA7niooGEHPiSZz/6nsUHq6jeWUDw+X/j6kEuVn70BbNmbUN15ih6d41EW5dPzrYVrE7bxvY9uTRoI0gcNpphicHU7VrGtM9nsS7LTsSg4SQFN5G/+VtemfQ407M6c/nD93PdyGS6ujbw2gNPMD03krOGJdPB0ERpTjorF65h645NbD+kJja0nkP7Upm/zUZkfBJJ3i1Mf/9NXl5lp/u5t/L0XecQULqer9/8mMW7bfQ4fwyJwerf3Xk9e0APAgp+YPnKFHY3htCpWx96de9GYqIF+4HVfPb8A7y4qJpuV0/igSuHEO9K5ZUHnmSR4xwmnB2LtzKLzLSFLFufwc4tGVR3jke9dwtbli2hOKIPCXGRULiJtWvXkborh/yiRrzBCQw57wwi6rbwzduz2XzYxxkTx9BF1ULlnhk8des/mJIeyVVPPsYN4/pi3DmVF1+aT1mXYfRPiMJiUP/vdl6DwzC01NCUf4CC2kbqKwvJ3rWRlOULWbA0jd210fQblkTnYA1edz1FGbtY9f1CNmUd5lCBED/sXC4Y2Qtt0UrmfPklX62qIjwpmZ5xEXh3f80b70zlw13BjJx4O/dfk4x93wq+nPwtm0q19Bg5iCh3Ffm70jlcmkNWtQpDp/6cO7ArZnMcfc/uQYSqibKDWWxbsojUPZnQ/1pGJHciMjCfBc+8wJRPlmM981puvuMmRhgzWffdFD5eXYS7w0DOTgpD83s7r6O7Y6nfxqy569hToadTlzh6JSUT3zkcR+Y8Pn7jZaaus9Fl/C3ce2U/TDVb+PqND1hU043zzumGtjqL/RsXM2vFbjK3buVQ9Bh6FX7HvKXLyY4cz4g4DQ0FW/hhxQa27z1EYX4V3ph+DBuRhDF3I/M/nsHuZiNxw0aQGOSiNncjsyc/zlNfHUI34g4eu3U0ifpspj/+OO9ld2HChX0J1atQnSadV0Sh+J+wRV4ZO0gSTCbpcslj8uZXSyVlVYqkrEqRxZ+/KHdNOEPiB4yRG1+dLzuLW8QtIs7yDFk9+RrpO+x8mfDSSqltqJHiw7vlg0tMYg4JlfM/K5EWp0/cWVPl4qQ4CTeNk5fXZEu5S6Tih+fl3suHyJB73pd5u6tFpE62ff6YXN3dJGdMuEden7FMPnnsWhlz6UPy8faG4x/TXi0Vy+6VCEukhJ79geS6veIVkZLPL5TkLmFivv4jSdtTJnaXR7xSKSuevlpGdTZJzxvfkhkbtsqSfz8gl4y/W56etl0Obp0hL10SKZH9L5Bbvs1vLcAp9SVp8vJgk4RGxcjEb+vF7RURKZYvL46XruEmmfjJfsmr929dufghuXpYjJh63iqvz82QRhGRum3yzbNXS3dTjAy/9hmZXyQiYpPinbPl0TNMEpt8ljyRJiI+u9iOzJU7I8xiMfWQZzc3SbPr6IEe/T16yz++2iA5zUf/3k7hWvn2sbFisvSRsdd9JBvzd8v8x8fJyIvulKnpNrE3HJJZd5whffv2lXvnVEllVZVUF8+UO5O7SUfTSHl+RZYccYpIm+9q5AOfyoq8NmU07JVlk2+WPqZuMuSiJ2RubpVUVVVJ4f5N8vmNHaRD1xHy6v422ytOax6nR9x2t4h4xOtxicvRfosTOZqaxOHziU9EnHan+Ly+9psc43Y4xOF0irv9C6ccj7TkrZelC1fInvxaaWkploXP3CZPvfu9bCr1tN/4JHKJ3eoQl+PPLKMdr0ecdofY7f/dX8VdXyw7X+4vJpNFQkLPknez3eL0tt/KJTsmXy6je1kk7JLn5bM1h6Sqqkqq8lfKhw9eKr3OuEru+yJdHCJSvnO+vHqxSczdhsi451OkRUTEWilHZl4nJlOIhISOlA/zj5ZRIt9MTJbESJNc9t4OOVjjL616+ZNy06hYMY1+UN5dWdD6GTxSsPZTeXhsqJi6j5IrXlktxdnr5JNroyU0vr+c90F263Ze8bqz5f2RoRIZYpILp2bJkSZvm7o9VCa8vlLSty2Tt/55pYy75RWZublEmrKWyAcPXyR9xt8mD3+5WWrqq2R/yrfyxCiTxPQZIfcuqPbv3lEvjfNuEpM5RExD3pXMZqf89FlzvG4ffteb8vmMr+W52y6XCXf9W+ZnHm9YvFUZsvadyyXMEi99znlJ0qqqpKqqQsoKd8o7I81iMV8lX5VYxeYTKZ12uQzqHiGmQU/KvPQDsu6De+T6cy+Vp6a1tlWH5shrtw0VU8gAuezBabLDLiJSLnuXvyqXmKKl9/BbZVaJT6xVh+S7m8PFFB4tHe9fLUcqKv2/58GP5W9JXSTqgrdlfU6NeERk9/vXyPnJJkm8eYrM3tvU9gBPf84KyVzxrjx09XA5o0+y9O4RL106RUlEiElC4vrJ6CdXSZ1HRMQjzuZMeXeISULMJrlpXqPUH62f7Wny6nkDJMFiknMemSubCpzSvPtree7OcdJnwkPy9vxdUlNXKTvmvCV3DzVJt5HXyvOr60RExFG+X1Y/0VdMHRMl8ZG0tp+s1U9dHwWy7Lm75PIBZ8vtb82W9QV1UntgsUy+73zpGDJUJt73neSIiIhNSnbOOTH2+RnHzqsJr8m8Rd/K2zefJxfd9JLM3lYi9tZmxVe7VWY8O1F6mRJl9HWvypI8fzxyePsSmXx1R+nW/1KZktXm+jBZxBR+jyyrs8mej66R8eeMk4dmZ0lJk1fkyEJ56JLBEmOKl2teXyg7a+SEWLT/VZPky30i0pwtG7/6u/QzxUrysH/KjBx/maV5B+T7O6PEEtpHnt7lFrtHRNZOkn6JHcXU7ylZsr9c7O2O8VTx45tcCsVpLqBzbwacPYZx48cxbvw4Lr3zKSbdfg3jAnaz+P13eOOD5eS7QB/Vm3NufY8FU5/hoX61/DDzU6Z8/DVri/37qWl2IiJUbE2h0G7FRQghFi16HURf9DT//mYdqVPu4fIBESeUX3cghS/ffIoXVzeRMOEWbuzfJmuoSo1aH0yIURB3C43Nduy2ZhpbXHhVRiLCOxASYcF4dEhhq+hwC+GdzmLCpCksXfUpr9zSDWdpEVl7HGi1WgIDj97/16PXdyaxJ3g8XlK370R+d6rfKCLCutG9XU4NATxeL7hduDPTWOQEHyZMwapjU/B+s2AzgTGdSew2gCvfSGH9D59z36AADKZ4Ln9jCd9++SET1KksnjaZKZ8uI6vRhot6bA4Pnp+YgtuWp/oIlQXZFOGgtnQ3y76azOQpk/no61lsrg4jPNxDS137dylOVxq9Bq1RC2hQa3TofuEBh8FkwqDyTw/QG/Wo/sNwa63BgEGvPzXvRJ+gkY3vP8azzz7Ie4t3seOH71laGkdsjz706XQShs3+LB3GQAM6w59ZRjtqDXqjAaPx1P9VIJ+s3fXUV/tQl25n9ZxPmTxlMpO/WMzWgiaCjEYMLtex3AgAAWYznZOSOTHXjxpUPekWq0L9m+tcDRFRkXTpGgOV1TTs28a2mjx2b7GhUWsICj5akhqVqhs9e/vL2LQrA7ujbbbkjnSODsScfDGPfjCflGlPc/3wWIITx3PTIx8y+4UbGW8+xNxpn/Dpdz+wswLcPh/1tt8/H7l8y7e88uJrfFUQydCLJ3BBj+PfSnNdNQWZ6bix01i3g9lTJjN5yhSmfvw9e4gmKroZR5N/OvsxXWKICOrAmH9+wsw1i3n1lhEktn0wH9KRqE5diD8h8aAgeHF7HThsOeza4ELldaM6MJ8p773r/z1nbKPBYCLc7cHh9fHjFEL/QzwOWtwm4kb/i8nfbyB942qWfPU2T995EcPiLRgaqyhfvYA11e3f2I6xFz0TgzAFQUZWDpU1dQT1vZYHn/uYmY9dQLI7nZlffsxXizeQWQNOt48m++8/l6Az5z74Am/NeIfreuspWPwVn06by7p9Jbi9TtweG79qWfOfkr+IN/71BFM3hTL0kgs5p39HDK3NiudIEUdK8inDTmXeVhZ+6Y9HPp25hF31oYRavFjbrk2uUkFCL7rqNPS9dzarNqYw+ZpexJraXvgJxMdGEBXe5k+A+ASv14enrpqaw5nk46Kp5iArp/nLfP+Tz1lXHklUlAdrbWtwd5r4zdWeQnH60dKhQyQdO4aB9RBF+ZvZWeTDWX2A9V9M4vILr+Xul5eQbRrGTXfezRV9Tny3+thCDwIirde3jgBzEAEGLeoTLngVVnSg0RNWtosN01/nvS21xxNVGCyYBt/BCyOFgPLpvPrxMlYs/pA3Z5XiDbuM528/i24df01KQidOlxXrT67648PbWp7ad/KDSKfTTW5JhT8KsFr/vIZZPDjrsln2wuWMOO8q7vxgA46Eq7n13msYFBLMf05k7MVld+Cwu7A6nVjtNlSY6dhtFDc8MIlJD07ikSde4K3pqaSuWMwTQ9q/X6E4nYXRe0BPug65lA6l05k6bSedx57PBSOSsbTfVPEXaqGlxYPbA2FJY7j8pn8x6cFJTHrwRSZ/NpvlP7zPczefyZ+90o/BYCQoKMgfGKu9+DzNNDe3vnhCe+bD19r8qeXnb+oc56Ulbx3fvHQXV1zxd579JgNn/Hhu+NtljIpvv+1vpaZRtATpDBj3L2HBrC/5fn8j7ta2zu320GK1gt5MWNKF3PWgv55/+OHHeXfeZjZtnM2tiQEE/OEm0Y7dUUZeiRefr4mmJn/25NhRd/DgAw+1/p5vM33VWtK+v48x3cNbpwf8jypM5asZM/kwpRCfWoMuJIaEs6/kruen8v6Hr3BVBysO1wFyWh8K/DwzZrMWnQ7UajUqvDQeWMi7D9/MFVdP4u2lJQT1v5TrrxjD4F9KJi6C21qP9edWYAJ89gLWf/w490y8inte/o5d9GDUxIlcNDiB35BY/yepawR9tBG9azUffzaXJZuLsbYmmLQ77dgdDlSE0qX3edzSGo889sxrTJ6Zysp533DfwPZ7/H3qmloor67H5XbRYrOiJoiwDsO4rrXMhx99ile+TmXThjReGKHFcDrc/2uldF4V//vEi9Vqw2pzgMpMgDGCkIAyDm6dy5SXV+OKH879X3/PKzeNIaljKIHtLuCY+GSMBj0qmmi0efAc7a357DTVNdJkdbTpwIVy5tjbmPr1ezz/z0HY9m9izosvML/QnykV3LicZWTsOJdXFkzlxp4GtPpe/G3qSrakTeH6Mzpg/lWNazgR0Z1JSFKDz4u4Ha37d+FylpGX789I261rZ44uj/nj9KqCzyetmSTl52v5n6PVoUnoS08NqFr3dWwfPi++3/3E10+stVQsfIE7vi1B2/Ee5q54j39cOZDuHc0YNeofH84Jclkx5WPef30J5TGd6dIzmWi1F1ELmsAIIiMjiYyMIDwsBAMuTuHlzBSK3yXu5s/55P4JXHDx/bz55Rc8cf0wuv0Fq1Yo/pO+nDEsnIhoNTavGn2QhYiISCIjI4kIMxOk09CaZv3k8glybN1noaGuhiNlZagsoZjj+pEUEk/v/hoQH+Kyt27nQ3xFZB8WvD4NcZ1j0Wl/dqa0n+sAa76bycwZmUSedz2PTX2PBy4dQnyEGeOxdu33Hl8UF9zwJJ9//SJ3X9md8tVzmfn+56wr97etYeHR9Ok3DK1PwA66sKP1fCSR4aEYvO6TnP03CGPgIIaeq0Ul0OjVEBreWl5kJBGWADTyO9rV0423Beuhg+QdyKPY5TuemVoVTKA5jq49zAQEDOKMhHbvA3y+Ntv7Cig8bMfWoiY2rhNmYzZzPviWxSuL6XHDAzz95svccW5/4kKDMPxUz+VYQCB4HE2kPNSdh9a4cfzM3fXypVP4dFEK6SGXcv/zL/L2AxMY1r0DgUb9H/7JYm98likzpjPp3MFEZnzK1K9mszyjDp+AuUt3uiQkEqH2IBoV2uA28UioCQPuk14FBEZ2IK7PADqqfYjag+pYDBRJRHgIAUdjoJNc7p/pp04BheJ/iJuWwhTmz13J0k0tENOHhMFjOadD++0Anw179SYWr229iJ2tQ6TOvpv7B4YSHbCd7xZkkltmwwfYNn/Mwy98wBdphTjb7UrXaTgXXPcwz18XRsGhDbz/6vcUtS6DIFJNZeMa3nhmFilpKaSsT2H5rE+ZPn8FOwrqsB29lfwfBdA1qT/njD8HX0UVOeu3U+wCnE205KSyLCsAY/hlvHp34vGss/p2HVhvKVs25lBS0gw+D25v6zIhv5YmAH3CNTx4nqBWHWbl2mIcrQustmxcw7aGOuoAl5tjT4JPhqa0H9hka6EFcLnAd3TfOsC/JCfU1FDp8tAUHIoptC+Dhl/A9Wc1k5+3ge/mZNPiBbzN1GTO5JFzb+KLonaFKBSnPT3R/UYwasxgenRs23lQ/PfoOef62zirew9UKYtI3bSL7GYv4KF2x3Ree/UZnl1wgD8yGPInHdpDblYO+Q7Ansf+HTtITXMQm9SLsdeMp09sL869ajy6piYOr0ol3wn4PPgOL2dBhuAJmsDTt/Qm3PILndef4q6kvGgvG9LxV9bO48uX/R7GHldy2+23c9u5WnamrmD6l6sp94K6Q3d6jr+eO7tWUp03g48XHfG3yz4nLZmTuaz/Qyyss+M4aQG6iuCwjlz2wCP0cjmp/OxNvsu3tY6yclIw4w7Oe/JbdhTVn5ZLkfwmjVtZ9O1UXvwwlZzm1rPXVUVN4XY2HQzHPPIixrQb0gqQtjyNGod/qZaWtNnMzaukVDeC6887g+SuP7GWl7OIvJxs0jP9N8hxt5alUoFG7w/cPHZ83jJyD0TROUrlz6D7K9UePkjOof1U4cPr9eD6Ixdi0ED+8cr9XDEyGeuSr5i3fC3p9UDEmYwaMZrLBtRyIHMDi5bkYfUC7lqKNn3F41f+k5ml7Xf2B5m7kzTkUu4a5aT8SBrTph2g2Qv4HDhKFvLQ0Ev58LDHv/zW6aL9JFiF4vRSKjOvGyh9OkdIqMUsZpNJzCFhEh4RKZGRrf8iwiWsQw85c+KT8klKjjQ4vOITnzirMmXtlBukf0SoRHXsKn0GDpZhlzwg3017XM6KNIklNEIix06W9JpmsTfly+qXrpGhibESFd1VEnt0lx6jbpNX5++SMttBmf/ibTIiLFRCzGaxhITKwIn3yytfzpfXLjGLyWQWS0iYdOozXK79tlQcDfky7yaTmC0hEhJy9F+ohIaFS3hEpIx8eoHsKd0oH94wXvqFWsRiMoklJEzCxz4gb//QJhORzyv2ygOy9uN/yvheMdKxUxfpldxVOsQlyOC7P5Et5S45nnvGJ9Ztr8hVfWMlOqqr9OjdW/oMvVKeeOAGOWdITzGZQyQ0bJzcf9898ve7R0hYaIiYTWaxhHSV0dffI29Mf1OuiAiXULNJTGaLWOL6SN8nN4j43OKq2yUfXd9ToiIjJTYpSXr36SMjb5ooQ7rFSbTJLCFh4XLRi4tkc+nxjy4i0rh7prxzc5KEh1rEZLKIJTROhlx4v8wvO7qFRxx12bLo/qESaQ6ViM7J0ju5j4y69xv54tmLpH+3KAkLi5DBj86TLYVWad4/Q569arB0C4+S6E7JcvGDU+WHHKv4RMTnaZaiHfPl5b8Nl66RURLTqYv07tdHBoy9S/6dUi3un8/Ro1AoFD/NViqZS56SM1vbmohQs5hMJjGZzBJ2tA26fa7kV1mPv8fnkYYDS2Xy38dK/4QoiegcL92695Qh42+Tl7/bLqX2Rsla/oHce0a4hFr89W1I4jAZPmmmbHppsESGhbSWESrhkcNl8v5l8q/eiRLX2v5ZwiKk/6R5sqnAdjxhU+JAGTbkbDlvUB9JTOgqHaITZMDEJ+XTrdX+hH4+n7gaimXP7Cfl0uQYie4QJ73PSJCoqAjpfs3bsjqvWewen0jJTLl5WG/paDGLubVu7/v3L2TZwZbWg/OKNW+VfHr/eEmKiJBOcQnSZ8hYmXjrJJny0m3SP8IiIZ2Spd/lb8oPrw89fizmMImIvF3mljdIm29KRHa1aQfNEhIaJqPve1/em/K6/GOE2d8WhYZLt9E3yGPLqsTnqpey9Bny3FWDJDo8WqI7dZfkvj2lx7i75fOd9WJz+2TDk32lT5xFLGaTmCxhEhFxhby1ap9UtJZYt36yPHxpdwkLsfi/+7AhctXtT8qUz+6VM8JDxWIyidlskQ69h8u135aJ19EoxSn/lpuGRUtEZKREJvSWpO7dZeRN78iK7Gqxespl8UMXy/C4ELGY/fFJ2HmPyvurC0840tPWoTny2pP3ygXX3ip3XjZU4jt2ks5d4yUxMUZiepwpFz85V7JbjmYuOzFh04CLr5NB/QZI3z5dpGN0uMQMukpeXbpfSlu84hOvNGXOllduGC7dI6Ikrlt36XPWRXL7vx6Rlx6cKMnhFgntdrZc9OhiKXc3SNmur+SeQRFiCY2QuPhkOfuJFKlw+8QnqfJ43xOvjyv+vUEySgtl7eRbZFxyRwnt1E269eovY29+SB55+j65cWQnsYSEycBLL5X73zoe+5jNFolKHCiXftUumBE54bwyh4ZLxMR3ZdW05+TW83v7Y6nQMIlIvkGe+XqH1LkbJSdtujxx+WDpEhktsZ27SO9+/eWsSx6SjzfUir2+RNJ/dH0Mkzd3VEvD0aSY296UiaN6SajFHz+FhifLLW+9Ks9OOhqL+mPM0EFXyV1f7hOfxyoVmatl8i0jJT4yUjp0jJPkfr0kacjf5OXlleLwiBR/Nl56d40Qs9kkJnOohEdcLe9uyJLWFGunFJX8/mwuCsUpwIerpRmbu+3C1j9BpUaj1WMwGtBrW4ecihe3047N5sTr9uLRGTDqdBgNKhw2h3/ohiYAU7ABrVpw223YnR4cVitiMKDTBxBgNGLQg8dux+FwH5sdq9YZ0Ou0qFxW7EeHrajUqL02yub+iwtezmD4fS8xoZP/piEADZnM/3IW28tH8Njcp7lyQAwmt/f4XVuNAWOAkQBdmwET4sXjcmJ3uPD4QKUGEdDoAggMNKBtc9dRPA6sNgceewtWAjAa9ASqPNg8gqhUaFQaDAYNIl5crqNHokKj06HTa/BY7ceHR6vUqPVBWAK1IF6c1hbsbh9Oqxt9kB6NzoerRYVaCyoNaI1BBBj0aE/46C4cdhsO/2rj/rK0eoxBgf51AAHEh9veQovTi9PmwhhkQK0LwKB243B68ImgNgQRZNShETcOuwOn24uo1Gj1BoxGAzq1yj9E2uvBZbfjcLrwOJ04dcEEG7UYAgIxtv2iFAqF4tcQH163gxar/+nRT9IFYQ7UnbDusnjdOJ0OnC4HNqsXtUaHMciI3mDAoNcgbicOm/14rgSVBrXeQKDKQYujbUkaAswBeFusuH1H8zFwrE5sWPU0k978lkVyOc88eA9/H9sZn/iniqh1BoxGI4ajdZ/48Lqd2O1O3EfbEp+g1gUQFGj0190+Fy3NNjxty9IHEmDUo9f49yM+Ny6HA4fN6d9OZ8Cg06LTCE6HC59KhVpjIEDrwnrCsegJsgSia11b3c+Do8WGs007qDEEoFcLPpeD1oE+qDQ69MZAAvUqfF43TrsDu9ONy2pDHWRCr9MREBSIQaPCY2vE6vK1GUKsJSA4EH1rkkTxOLDbHTiPzSXRoNNr0WoFp811/HdWqdEFmAg2qPB5nNhtdlxeJ80NKkwWPRp9AAGBrbGDzYrD5Tk+HFRjICDAiLFtW366ctpocXhwqzToVR4cNhu2lmZcaj3G4DDMwUaCAvStwzy9uFoO8dG4Ybx4CC76OJvXzw3EYvBPO1JpdBgDAtBrNahV/hjBefRcEhUqnQGjQYMaHy6nG59Kg1ZvJChQB143dqsVlxdUrfGJKVCLCje2RiuuNuesNiCYQL0GcdmxO/2xhEqtQm8MQKsBn9uF2yuotVq0Oh0++4mxjzbAhKnd2OUfnVfaAIL1gsvlwnV0SJtah8FoJMCgQTwunA4nTocDt8uDWxdEsFGHISAAg0bwOJppbnetG03BGI/Grx47LTYX7mPD2tTojHrUPi8e1/FYFLUOvTGAIIMGn9eNy9Eaqzrs2HXBBBu0GAKDCNCp8DmbaLZ721wbOgKCAzDoNL8wTeuvp3ReFQrwJ2JqzTj6S0QEfuW27TlrC9nw0ihumNuH5zfO57aYNmP3pZ7Fj07g5cWduW36a9w8JonI31PILxFBUPk7zW3/fxKICCr/jhE5efvlhH2fBCf5uBUKheK3O5pz4M+pi2pWPOXvvKqu4qUnHuDB839mgco/y29oV/8Mf6St/n0E8fEfM5b/T5I2U5JEkNbEliqVut15fWLndcJXpUy9xEzIr8lo1baMk0xEUKH60/b/n/nnRf/l8chpHgNpXnjhhRfa/1Gh+H/nNzRwqt+wbXsanRZzxzDK18xi5tydFNTW0eK2UZ6+im8+epVpadXEXfcIt10wkG6Wo3crTzJVmwqr7f9PguOdy5O7X07Y90lwko9boVAofjuVvz35E+qinIXP8M5Hs1mT2YC9upTcggYI70SvxKi/LvvtH2grT4Y/0lb/Pv7f8/+dtoesOnpOtz+vHVjrNvLexEf4PKuSZi+UZK6nMGAwwxLDCDo23Opn/Ilfq0r13+q44j+wH31Xf4H/RpknkfLkVaH4Swk+VzOVRcWUV1dQmF8HgQbUHgc+cyydosOI7tSZjmFBx4dzKRQKhULxG7SUH6KwrIYGuw8fajTGCDrFxdI5Ohgld5fir+fD664lP/0wlW6Pf/i1Rkto5370jAlEr8Q7it9A6bwqFP8lPo8Da7Pj+DxZQxCBRi3a/29DjhQKhUJxUonPi7ftUiQqNRq1GrXSvij+a3x42+bxANRqHRrlboriN1I6rwqFQqFQKBQKhUKhOOX9wiBzhUKhUCgUCoVCoVAo/vuUzqtCoVAoFAqFQqFQKE55SudVoVAoFAqFQqFQKBSnPKXzqlAoFAqFQqFQKBSKU57SeVUoFAqFQqFQKBQKxSlP6bwqFAqFQqFQKBQKheKUp3ReFQqFQqFQKBQKhUJxylM6rwqFQqFQKBQKhUKhOOUpnVeFQqFQKBQKhUKhUJzylM6rQqFQKBQKhUKhUChOeUrnVaFQKBQKhUKhUCgUpzyl86pQKBQKhUKhUCgUilOe0nlVKBQKhUKhUCgUCsUpT+m8KhQKhUKhUCgUCoXilKd0XhUKhUKhUCgUCoVCccr7PyfKIBeW1Va+AAAAAElFTkSuQmCC;" vertex="1" parent="1">
          <mxGeometry x="211.11" y="570" width="457.78" height="50" as="geometry" />
        </mxCell>
        <mxCell id="K5ybPOd9x1aPTzwEkU7R-35" value="" style="curved=1;endArrow=classic;html=1;rounded=0;" edge="1" parent="1" source="K5ybPOd9x1aPTzwEkU7R-34">
          <mxGeometry width="50" height="50" relative="1" as="geometry">
            <mxPoint x="415" y="680" as="sourcePoint" />
            <mxPoint x="390" y="660" as="targetPoint" />
            <Array as="points">
              <mxPoint x="450" y="650" />
              <mxPoint x="415" y="630" />
            </Array>
          </mxGeometry>
        </mxCell>
        <mxCell id="K5ybPOd9x1aPTzwEkU7R-37" value="Controls how many aftershocks are generated by an earthquake of magnitude mi, where K (base productivity) and alpha (sensitivity to magnitude) are parameters defined using Maximum Likelihood Estimaation." style="text;whiteSpace=wrap;fontSize=9;" vertex="1" parent="1">
          <mxGeometry x="160" y="660" width="300" height="79" as="geometry" />
        </mxCell>
        <mxCell id="K5ybPOd9x1aPTzwEkU7R-38" value="" style="curved=1;endArrow=classic;html=1;rounded=0;exitX=0.691;exitY=1.028;exitDx=0;exitDy=0;exitPerimeter=0;" edge="1" parent="1" source="K5ybPOd9x1aPTzwEkU7R-34">
          <mxGeometry width="50" height="50" relative="1" as="geometry">
            <mxPoint x="520" y="690" as="sourcePoint" />
            <mxPoint x="530" y="670" as="targetPoint" />
            <Array as="points">
              <mxPoint x="550" y="630" />
              <mxPoint x="540" y="640" />
              <mxPoint x="520" y="640" />
            </Array>
          </mxGeometry>
        </mxCell>
        <mxCell id="K5ybPOd9x1aPTzwEkU7R-39" value="Describes how the influence of a past event decays over time.(Omori&#39;s law)" style="text;whiteSpace=wrap;fontSize=10;" vertex="1" parent="1">
          <mxGeometry x="460" y="670" width="150" height="40" as="geometry" />
        </mxCell>
        <mxCell id="K5ybPOd9x1aPTzwEkU7R-40" value="" style="curved=1;endArrow=classic;html=1;rounded=0;exitX=0.915;exitY=1.04;exitDx=0;exitDy=0;exitPerimeter=0;" edge="1" parent="1" source="K5ybPOd9x1aPTzwEkU7R-34">
          <mxGeometry width="50" height="50" relative="1" as="geometry">
            <mxPoint x="650" y="690" as="sourcePoint" />
            <mxPoint x="670" y="660" as="targetPoint" />
            <Array as="points">
              <mxPoint x="630" y="660" />
              <mxPoint x="640" y="660" />
              <mxPoint x="650" y="640" />
            </Array>
          </mxGeometry>
        </mxCell>
        <mxCell id="K5ybPOd9x1aPTzwEkU7R-41" value="Models how aftershock density decays with distance from the mainshock epicenter. where d is the spatial scale parameter and q is the spatial decay exponent" style="text;whiteSpace=wrap;fontSize=10;" vertex="1" parent="1">
          <mxGeometry x="620" y="665" width="140" height="85" as="geometry" />
        </mxCell>
        <mxCell id="K5ybPOd9x1aPTzwEkU7R-44" value="" style="swimlane;startSize=0;" vertex="1" parent="1">
          <mxGeometry x="160" y="539" width="610" height="221" as="geometry" />
        </mxCell>
        <mxCell id="K5ybPOd9x1aPTzwEkU7R-51" value="" style="endArrow=classic;html=1;rounded=0;" edge="1" parent="1">
          <mxGeometry width="50" height="50" relative="1" as="geometry">
            <mxPoint x="425" y="770" as="sourcePoint" />
            <mxPoint x="425" y="820" as="targetPoint" />
          </mxGeometry>
        </mxCell>
        <mxCell id="K5ybPOd9x1aPTzwEkU7R-63" style="edgeStyle=orthogonalEdgeStyle;rounded=0;orthogonalLoop=1;jettySize=auto;html=1;" edge="1" parent="1" source="K5ybPOd9x1aPTzwEkU7R-54">
          <mxGeometry relative="1" as="geometry">
            <mxPoint x="425.06500000000005" y="1080" as="targetPoint" />
          </mxGeometry>
        </mxCell>
        <mxCell id="K5ybPOd9x1aPTzwEkU7R-54" value="" style="shape=image;verticalLabelPosition=bottom;labelBackgroundColor=default;verticalAlign=top;aspect=fixed;imageAspect=0;image=data:image/png,iVBORw0KGgoAAAANSUhEUgAAAnsAAAGPCAYAAAAk3xYFAAAAAXNSR0IArs4c6QAAAARnQU1BAACxjwv8YQUAAAAJcEhZcwAADsMAAA7DAcdvqGQAAP+lSURBVHhe7L1/fFPV/fj/BMouvNmIHzrSWTBZmQ2rkwyY5U1H66ijsyqMTiqiduKsWLEiioog2rFCgVWtVqxdVZxg1YLFlVm1rrgyWy2jDDTsbUeqrYkY1/KOX8PGWzIK/f5xb5Kbm5s2aYsinOfjcR6Uc849P17ndc595fy6Q8aMGdPDADGZTDidTq131IwcOZLjx4/T3d2tDYqKoUOHIkkSXq+XkydPaoOjIiYmhuHDh/PFF19og/qFkFXkCFlFjpBV5AhZRY6QVeQIWUWOkFXkDJashmo9BAKBQCAQCARnDsLYEwgEAoFAIDiDEcaeQCAQCAQCwRmMMPYEAoFAIBAIzmCEsScQCAQCgUBwBiOMPYFAIBAIBIIzGGHsCQQCgUAgEJzBCGNPIBAIBAKB4AxmiNFoHPClyuPGjeOTTz5R+Sxmu301qQaVVy+0vRhH6h0wfPhwTpw4MeBLDYcMGUJMTAzd3d309OhVL7ryQRsvxKVyp9a7H4TKSkPeduyFqRg8Tay2zKNcG64Qkax8aWn9w9H2AnGp/a/l0KFDGTZsGMePH9cG9YsQWU2+kfLSGxn9QirXVahj9k6IrCKUi/eoB0/bmzxy72KeeTcSvYqcUy6rfjL81pd5/9czGN2H/vVFNLJa/LKd1TMMeN5ejeXK0BwHTVYJqSy+7U4WZvyQ+NhvIcUo/t1ePF1ODvz5GVbf9QwHNI+FI0Sv+kk0suqLAckq4UpWP7yS5I5krrhL9ho0vdKR1R1/dLLyvyXAy97fmriiJOgRDbNY/8dHmPcjIwal3bpeu5NJhcdCyhwpA5KVDj5Z9aXPfaEnq/7g16vcKg7+pu93Sm+cKlkNlEGX1VfdB3UYLFkNHT58OAN1w4YN0/gNY8gQbVa9MFR+DtBJK3oXEyOPBr6brENdlOUDhoSk0T/XZ/2GDWEIwJAhDNOGqRyRyMqXVqQMGRKaRhRu2LBhoHTAwXDB9VvEyy+u58rvxzFyWGjc3hxaWfnl4uXwwTba9NynR5BGGTBOvpL1f2zi0csj0avI3amVVf+dnz70ry8XjayGKZ1xyBD9OgyGrC5d/TItf9nO6pxUEuK+BUec/rY+/H9giE8kNWc9O9ve5LeXhz6v59DqVT9dNLLqyw1EVo9uLmfxDBMGTXraeP1xobIqZM6PJGQkJqXfFfKM2l21+VFu/G8jBrwc/kBut7+9/5JumSN1A5GVnvPVry997suFyqp/zq9XQyN7p/TmTpWsBuoGXVZfcR/Uc4NRv+HDhzPk1HwuLZ+a9kLSDGB/IZaUJaqgXvjyPn0Sefl8jf+lffpkcQ3ta9MweBopmJBFmTZcISJZ+dLCTmVsCku14RHJKnJOrax8beah8f4JZEXx8zREVhHIBcA8r4KqjdlYJPAeKOPHl6ym82shq/4TIqt+Eo1e5e9opzDVgKepgAlzQzV+oLIyL6mhYXUaBsDTWk352iIerAuWlXleIaWrbyItXgJ3IwWW8H3Px1chq74YiKxKd7vJSQweE0+VXpk3NLBvkRXvARv/nGTF3G1j0/R0lndon5Txlc35xyv58a17/LLSK3OkDERWevhk1Zc+94VWVv3Fr1e/epEP1vT9TumNUyWrgTLosvqK+6AegyUrsWdPIAiDY3sey+scAEgTppGjjSA4/Uko5NmViqHXVEB6ah5b39dGAsf2ArJ+XkbLUSA2jdwn07RRBIOGmWUzrQA4DqyjpQOIsTJrZd8yP3a0UeslEAgi4DQ09kxkr9xMw4F23G637DpdtO+uonCeWRO3lGa3G3d7DYWra9jnlOMfPvQBW+/QRB1UzP4yujqVMrrduF3ttL5ZQe5kbXwZ66IKXqx7K4J6KcwrpGq3Ko/O3tMfLJa96sLtduN6Y5U2SCZBkbt7H5tnqvwn38jjr+2n3RWQicveTNXabLQ1LN3txu1up2axldzyBlrbNc+szghE3tiM2y3PxIKBtLVyvOaNqgRPEY1HvfIfowwYtYGTc6l4szWi+sqYyV5bRbPdRWdnJ4cOHdLVmfwdsu6378hXP+wLpabdJzufXykv798f0g/crnZq7pZjWBdVBOtrp4v2Aw1ULJJfun4WbcXe2Ym7vYZ8gLvrcLnduJ116GuDWWlLN/ueUb2sE+bxwHMNfHDocEA27a00lOeiyTGEnK2t8jN7K9B//a+izunG7W6l6lptWDA5G67CKgGeRh6eW4Zsuoeho4jK5i7wdOEdkawNDZHhoY8+xN70vE7/DYxL+T4dUct9dxWFmZpHFLR5hB8j9Me+Tqc9MPYlZLNqSwOt7XJ/DtsOi2tod8szZACWa+V4wfoX0F1/Wjq6GxEz7yMtEcCBbXs9lfvkVjGn5ZOtierrC/6yXXOYQ4cOcfj9A4NbZkUG7t0V5JY3B9qrvZmK+WHSCts2AUKe0cpezeRcSnc08/6Hh+js7NRvKw0+fYmmTH4S8qmxK8/Za8hP8PlnU7i1OWhc63TaaXjuAbJ9cQRfO04zY8/E4m2vUnH3bKzxBrwuO/ZWO11eCUNiBvlP1FGzREeJR03jpiVpmLsd2FsdePBweJ820mBhJn97nb+Mx7rkMtqdHpAMGCdnU7xN1XH8z7TSsCGb78d9K7ReG/9AhfalNWoaq57IJyNhBJ4OO/a2LrwE0s/TRB9MShpseAEpKU33BW9eNg0LQEcLT+9SPDNLafrjerKsYzHgwaHIRIq1kLG4grrt+ToG0Agm3lpD8Xwrxm4H9lY7DjfyM0s28/ID0+RoDrvcrspMvadDkXmvb+7BwEzxJIv8Z5eDoDmFzFKaXysme7IxwvpmUNrUTMXiDCyxEp6P22g76MQzTGnTl+tYNdCBNKQffE7nXjCvbaBuQ3awvnaBId5K9oY6mjeqDGstD/0J21FglJW0ldpAIGEZ05QXd8sWRUIJ+bxc9zvy0hMxDPPQ1SbrL6OMWOcXU9dUSi85Urn9PboAEpLJUf+Y8HF3GtZRQNd7VL+gDVSTT3aybKJ3NVdGtHxVeXUSsROSSLk++LRAxsZmvwzxyLrqPCJhSJwVflyKmchtL8s6gkvRYZQ+/0wzpZq6zXrs7ZA8HJ5+jn0J+dS8VsGyK6wYRx2T28DXvwxyO9TsUHTULefVdVRO0jc+2ds7lUzM5O9oCOiub/zqVnT3tWZKwxivemQvuljOt6OFyl3QuL4RO4Dxh2RrxsHOdiUvVdnaDrZh/6QzxD/aMj/yM382AUxzWDPfwojPfGOuh4PbIGdLnZyWATxORZa+tnmyQbdtDMmr5GdGeOSyubzgk/12zQ85ZTzJSbUwetgRnP9ok8cTJX5onwm8U3TflRv/wO+uCXpAQwalL64iLRZ528KlWZR1AOSw+Y8V5M+yBMa1VgeeYQYS0/OoeEP7bhN8XRga8gvnK2RG8WZW/sQIeGhcn078pBRSUlNIMqVTtKsLYoykrawKGSSJkZCctSyYMJWU1KmcP/5H3PaWJs5gce1vuW2mUsbVU5mglDFlygSm3lyNo1teBspZpur8d1ewSnlmzxPXqOq1gLJ3PSCZyV6mmcWIkZA8jRRdGk/S9BRSpicRvzCQ/i9+rY48yDz0Cns84V7wZpYlywaQY1+lYgDlU/NYDokSHNlXwYL4CUz1yeSeWhxeMM5cxbNrtQOihDF+BPZteUy1TCUlNYWplqkUNHkAiYSf/FL+pf/QQlJSN8lGBx5sm2T5LXxIk9ygYSZt7jJK36wjdxKAF9v2e9nuD7+VmsdysEjg2VsWUX3TnvwtOUkSeO1U3zwVy0WppP/0x0yYvpxaJ2BIJv/xZf74/ULTDybETyVvVza/nWdFwkvLQyp9nRTPgm0OQMIy9y7C51zCK/vl9rDODDX91YZ/5S6ANEqfW0XaGPB+9Dorfny+Sn/LaHGDlJTDY8/3sii+rZr3ugDMJF8bOre3LN2KBHTtq6ZaG6hm5jRMBgAPB3f3GrN3FtdQca0FCQ8tGxcQr+jqj60/ZuUfnXhjjKStfJZC7UtwlBHjCLm9J0xJkdtkegGNHkCy8LNFqnmsRVv53TWheUy1TGX5Dkf4PDRtbjElc9tbkLP2NtKMyot8+gS5DZT08rbJv5IMqTksSwC2LSUzNYU/ueQkHbvkuJl3yjJLe6SKVakG8DqovSegQ0mmBZTt9YBkIeeRqgi3OeSQPVU2wG0718njR0cJjQcAjFx8XbAmVt+ZSYq6bH+ZQfpP05mRMWvAZb724ecJsYckCfaWkJKk6OyETEooJPdSI+CgdmG80pbqscpA2sL7UH6aBqXlaSoi3ZSk6XNgSM2m0B9RHj8tEnjbqrlt5gUk/yRVeafI456UlEOF2kBUvVOC35WBd8q8O3/HjMATKjIobdpMTqIEHhubbvcZesDaXGbHA87awLiWOhVL6mrePqJscYhguV1w+jG0+E2X/rT2IOGbXtd36qWobPIyEpEAx448sh6yqVKxUTLvdvmlKFn42eLQYcXeVEC91jMCei+fm87OTt7fFphHmz3TjMEL3gPVLN0YPLXk2J5Hbav8d5xptuJrpnh2svxy2llA3lP/UD1RT8Gaehzd4DVayb5IFYSXliezKHlX5VUXSN/0g2jm9izk6NTN7XZz+LCyLHL4A1VblFHd0qX/glfP5Lwgm3rmDdnyL0RPE6U/XxPUDo5nFnJvnWxUWDPvC12W63iF5YurVctrDsqe3yPP7MSOC40/qISTyz5qnllFzmQjeB00blxI+v2BEprW++rbyMOXBuudfn1zyE+TDT/blgXkbVfpTccmFj7fgrfbCxMu7sXoiozQfpCG2QjwTxxVwfpav3g7LUfBi4GJVwQFBVG2VW6P0JleHcP/2nx+liRBt52X71vEJvWG+7oC8n7fghcwpuX0UtdqypqVpT1rNqagsGX8bJIEONjzVB8G3CQD5wDQiaPfS/5miq/27fl7mMzVauk6eWbRSuqdgGRlts5L0FG7XNPeZfJSMWD8ni++ibXZM8Lk4WDTjff2mkdom19G2vcMeLu92F5eGniRA+CgenEttm6AOMx9zshlkZ9pQQLs25ey8Bm1DtVTcMsmeZ+j8WJylC0DvbI4m2lGoNtGS4UvLQdlu+XxXrpoDsVagzZqciIscxoLQrb7eNhTUxS83L/YijkG8DjZU6cOcFD2SCMOwDvaTMjC/9EWHp9bgvpNVu+TfYwZq2+8XauMJ0dbKLsmj5qPAvEd25dzQ7ncZwyp2Ypsgt8pwe9K9TtlEllTVUGgzHhW+H94Vt6aznJVnfInyeOUx7knWKc6ynnsLSd0ezln3MXqEMHXhKEgydPap9jo65OZczh/LICTA1v0zLZ6CnbLXdBona3Z2+Gh0xb8IjtV1N6cQnx8LPEzl+vu/+n0eDQ+OVgnIM8u7KrUhAG78pgaF0u8KYWle9UBDg7qzFyFpn9qqNwhL6VJSWlBL2X/TE5bI+uUJdzc6fKOEs/fd6J3/V19nV1ZlrOG7MnxOPYEL48CbOvkc63fKcFLV6uy/NOqLNv4DnW5bVSuyGJq/FSygl6+kDt9EgCeA/W6S4Mh9Z2ZgcUIYMfmf8GpeCiT+Lh44pOy6PWqsT7R6weNOJRZsjl/rKP0jgzV/p8iMk2y7uW9qn5Gwwu18kzbKCtp6he63/C307hebsXsK34o7238+AAbdWbXHev3cLAbGGXh4kXa0ACNWw7I/StxGneqX/53/0xewnUeCGwhCIclrs+7FPsml+Qk5BnlnXqtvZNX3peNN/MFIdqNsyVEu6n+TKvduVw0kV7yqO81j9A2f5286fHEx8WTvkIbBtCJR1n+7JMrfsoPjQAObCWhdaGjiD3tyDPEKbna0BCWzZ4mt0lrY9DJW8eKnbIBFuFBjV6ZPzviMidOu0ET2IlDe9K/3CavqBjSuKtpM6uuTwts0di1kKmxscRbMkPHAudBnf4cKvtVyRMB8LY2UqRzGtmxXllpibGSnEvE75Tx353BPZrtTOZn/iDPeHY7qL4xhaVBxiuUHZD1xZB6F81bVpGTGlidePuWHxMbF8+EK4pUTwi+Lqj27EkYL8zgpntWDepsiv2FWGJjwznVFRpJyq9wj5M9YQZxh82JB2DUOcjdw0cnjqeCPCKm9/LFEhcXxwXz9UwYYHIG2YtWUVpeQdWrzeyzuygMuanZiGEU+oNIb3g65X0sg4KdSp26xcbGMnbsWMaPH8/YsecHX2eiesH/zP+CN5Ov7GGzt5Qoxm42ljg5dETCdTS82UBzU3Owu/2Hyks3DrN/9lCm07Up2ONLxcGfUpVlzVTfUqOyXBxr5arb85kdMsuQpRhuMGJCTmhd9err1+1O7DqD+eCh1w+qKauzy3sw45PJeaCKhk4X7fvrqNqwjIyIftxVUmtTZnrTA6a/Oc+qGP57KFHqZR2nCMeQzOY3G3j7rbc18pmtvCgNxIXbdQ6w62n5lCYWkpcG5vZ8S7iOlqdDfyRocXlQjteEwXfQSM81Uwow38J3YpD3l14d3M4NbzbQ9Jcm7rIqfT7eLB9q8aPXHjrMtxAXJg+fG0ge1sxsch8opaK8irqmfbS7fIedIuD735aN9+5zSH4utFzNTc3ysh9gGNdbgwKsVGZlvbS8UaAJK+JPB+TWMk/NGdg7yBoXcZlHx/8g+FndcbeA6l2ysW1Ims2yR2rY19lOa1MNFQ/kkBYyRsh43KEp6WE0yPcN/rNdx3ADoEz5wQaG+LT+v1MMaeTONSMBxJxDnF6576+mvgvAgOWKZZTu2Ie7vZWml8tZfu0MnX3Xgq8LsrHX7cG+cxNLL51AynVFfQ+iXzV6JyO/RKx3b6bZ7sb9ZhUVG5aRMz+bjOkWzIZjhEy8LTaj2EJfMyqp3ie/4C1pyuslIV+e5ei20VjimzGIY4RyN6oUn0jixEQsSRaNM8oDzNeBuuXc8GAjHkCKz2DV71ZpBrg4JH99tfUMU98LBmOGqf803plC5opKGts88sxljITBlEzGolVUveli3/PawySh+A5NSEkXK8aGmXxlRte2y2f4g2GE8scYUxhdMPu/gNA7jf5TmokX3aks5QaWcH1bCHrlw8/lH4fEYe5lFrFXYkcobSlh1NQlcWIiid9PxBI/QO0eI4XNw++izsPKsi3yqdKG5ysoviOH7PkZJCeZMRzz+A879cm3lHxjDJi1ZVKcOVb7kD6mop+SPApAIvlurXHtZtV0Ja+Ei8nXHliLBp8SDkKZfZRdnUneQ7XYXMoAH2PAmJRG9h2l1Oxup2FDb0eOIsPbrTcLG8w5sdYBvlM8OFxeeZ/h7Xr7LMtYcHkeJa/a6PK9ywxGEmdcye3FW9nX3kBxn0v/gtORoX4j7+rlVKr3h53O6P76+nIwL6mhZuVsLLHyKbaWndVUPrqcvOvSiY2bwMMHNNZeuQPf+bCvG9XKUq5hUgb5gDkvGWsM0Nqi2gd0DJQXR9uLcYwfPz5k9jDgorsM+avCsXEpDzfJ7ShdlE/FSrUp5IUT8l99zQr76/t+p2J0fHXYnlpK1vQJxMels2BFCdVNduWFL2HO1Ds8o8F3aMJgJWNxsOEf2HuFXxc8Tb9WZozH6shFdn1dgtv4QotsRCZM4ubvqpZw/YdB+mDbHhxHAQyYUvTmipaSoi3X/bKh78dvFIXOjo8fP564uLiAXz8vrO0tjxAXUR4m8nfUsOoKC4YY8DhbqN9WScmKPBb8NJbYCQ8rh50iQNF1PI0UaMuiddPDXU+OfNOCsv0Brxfv0TCuG92DGlHhk2cfZY6Li2P8zHs0D4fDQfX6haRPmkDsRVksXLOJ+neVbR8xBqyLHmPjXO0z0SHF9NEHgc9dtQN4p3hoXJ/F1HtekZeljRksK9cxUjuqKbo+naQJsUydu5Cip+o54FLmyA1WciM+jCM4nRh62hh5rR55n5bBxDTtaVsFs9Ukz5B4j/VT2QeKmWXXyZu1vXtLmGqZSubVeSxds4nqOnmTrCVWO4fj4Vg3vcwuZFPV6sblbKUmZLPwV8y2MvY4fS941UzObvV9ZZv8SwxGk2aN9muLg7I7KrF5kWchrv+tanB7FqeifHEmvXvwdHAfk5cTDXHysmcIhTS43LiczZQGHdLRw0KcVsWiwkb9U0XkzU1hQtwCqjsAJCYm9zV8+w5NGLBm5ocx/MHWKZtKhjiL5mBFP9i1jsY2IGYSFy2E/DRl032zcoqzT0r8hyHMKfn9e0E95Xuxhm5BGDSedg5uHt9dQk6qQV4ufWgqE6ZksmDxUoqeqqb+XaLTobbDsvFriMOit+wXKRcvZ9aFyGUqiSfepO+WK8ulAzqo4ftxNdAyh6OjkdpHl7Pgp0nE+05XYyRhRsh53Ijo8siG1HcmhNPQfOWQFXjcjojfKYc++h+23qby9tiof8gGdXmU7FT6xdzC0NstVDiaailZsYBZU0z8uOhtWa5GCxm9PCM4PTl97tnb9QofHAYwMel6nV8bZFA4XTkpZG/s/cqFU8Zsf6dz2DUntgASVjEx5A23CVsHgIGJs3Q688w5WIwgjfocxw5t4FdNI0/vl1/wE1PvCyzhajZ9V7+vbOqdPJvl3w0KklEu5nU5GyIwZk4TOgoo2K7MHxszyN8YmBna3ip/usYwZY7+3Xja+m5r5KAHwIJ1g86v95XTmCiB1N2JfS/KQA4Gg85izd0T+1xyDeKOGlqdrsAlyUHUY/sk8jlH36EJgyWN+3yGf1PwQaVNzfL+QBLTeECvG8+sYJ9b/nFT1adh46CkRW6DxB89SJrFANjZ499C0DeVK16SjXZjBoW+e+Wiotrff6dlaZf0ZZa96sLd6cK1qzT0RGZEbOd/PmLw8sgwKct8Dg6uD5WVeWUUOlTVgv0ogIU03QZNo2KvG7fLRevWUA3zMWP+VNn49+zhFZ2DZz4qy/fI+hRjJTkv4lIG89RbEZW50+lk/3N932qQvLEZl8uNe3dpqNw6Avvp+ktRy0FAOe2uM56YV85hmgH5gNcmonqnOGu1gTKV1z3uvwLoqtWFSr2SKW1y4ep007wxpKY4y30/SgRfR04fY49qKurb8ALmuRXU3K3e7Gtl2dbHyDAB3Q7qy/teyDg12Oj8TP7LklIRfMllQjYVL+Yre1LUOFharVw3MauQikXfDwQlZFOxIQMz4N1b69/kfjrRuEVeSjOmzWFijHyKTru1unG9fIUHoy7ihoq1wbesT15Gzc3yNQG0N1ISdOI4GmoV2RswjNOGnRoal5Qpm5XBMq+Q3yj1atzgq28yub8vjqC+ZTy8U37pWq+vokJ9u/3kZdT8So7v2FVGGbBpr2IwJc0OjetLO1J22PhnjASGaeSUa77sMbmQ7CnyFM/B/eE2h6vwHZowXsycCYrhf78mzkMPy9eEYOKSdVu4U30AJCGbig1zMAPS0feojWBJ31HSyIFukCZeycVG4EBjdP2ko4Ab1stLs4bUQhqaKvhlsp4CWcl5YDPN98gz9wEaWbdd7r/SRbk8+2CwDCct285t0yWIgYNNJbSowiKnkeKav4XNw3p3TXR5HDysnGa3kKZZpjPPq6Bqib4O2ZVZ2XPGqE/8Pu3XXXPmY1QFjctmssuLmZMASB7e2xFuXM4mb4b8K7irpbr3ZWj/wRywztK5qkmDfplLIi7zgdowh+9UtDQ78EhA4hxKg9IC87zNytdAuuh4e09QWMTcX02jWx5P8l+sIEv1g9k8r5hnF8nt5WmqVHQ/+J0S9K4Meqe8ykbVNS7BlLH0KUWvJ+VQusQMtNDi8CDFgOXSUpYFHd4ykfX0DHllostOfSTbKASnFaeRsQdvL1/I+r90AQbSVjbgOiCfnGp1NrBqllG+cLT8XvI0x8UHQiT37B06dEj5DI888HuQO1WVs1U+3bW/HdfuCrITj2E7oJzailMt2D2UR1Gd/AWMabe+GKjXXyrITpQ/vF50i85M4aAR7j459T17hzX3HirsqpQH31GSfDFvyCk6+SqDvAfr6fLC6B/cQMXudvY1NdO8uxXXG4Fb2ot+VTCAOjo42Ckvd1hvlOW+WTkl7Pukkv7s1UCo5N4t8oCIZOW6kltl7451/voaJuVGVN/Gm+9l0wH5MtfsJ/dh39tEw5vv0K7E97ZVcu+NyhUv6yt5q0u+iyv7iWZad6vS/qYdu3KRbER0FLBuux0vEpb5FexrV3R2dyuuN/KxjpLzXqd7RYcW36EJCWkUeN/dGWL4Qz0LV27igAekcy/hvtcPyeVv2kf7bkXfvXYq71xABOYldJTR8g+f/mm3EESGY2MW6fdUY/eAISmbZU/W4vLJoUk+Re/qbKD0jtlYDIDHTn35w/5rMxzrA/3XemMF++z7aG5qpqHlQ3bem6rcj1fEDaq7GKPF+dAS1r0RmkfzARcN/m/7RpjHW8Vs3y0bQeb5Vf7xZp/dxb4ns7Ecs2FzARiIuyDwmK1TNhGNs4rZ19RM3SOyAVV/o093jWSoxuV99n1UzLcg4cX+wu0sCPc1k2uzmTQWoIv3dvTV6o2sa1Zm1CM4qDGQMre9eCfXb9UkqMcL9/K47/LklQ24fG2zv519T8qnyz1Nj7Oh3yszZWTdXondC1JiNo/vep+WvzQp6ediNYC3o5aiO1S6r3qnBL0rVe+UdbeuQ16D0MexvoiXWpXDGktKyQcq739cNjxj01j1hov2/XK6La0tPJ5pkvf9PXFvZH1XcFpxWhl74KR8/hXklddjd3v9px2Nkoeud2spuTldc+Hol49jfSZ5G+XyMcoon+6KA8/f5fKlP+H71JNVtefEQdl1SSxcX8s/Ov8VqFeMB0dTGXn+T9WcjqgG36M2Gtdrw2UcGxcw6ecrqbEdxnNCOQWXaEQ64cG+c3DqWLLxaRqdXpBkuadFcK/XQHGs981UgSE1l6eUiRLHxgUkXb6c6ne7IqxvPctnprP8mUbsbi+G8xJJnGjCcMKDfdtyMqcvVV1iWsmCy5ezabf8eS1jogVLgoFjbbUU3ZjCnkg31yvUL0khc0U1NpcHr09nE41wtAtbSN694/+0FV5su8Lct1W3nEsybqGioQ3PCaX8SWYMJzx0vVvN8stD7/cKj4Py3QfkP7WHQaLA8UweKRPSWfpoLTbXv2CEIockC2YDcLQL++56Nq3OYuqEFBbcr7no+7qkgAwNZixJFhLPlfB+1kZ9eR7pfX13t0+cPJHzg5A8LPESXrc9yjycFF2RR9lOOx5v4NT4d2I82F4tIe+n6ZTZ5B+llknF/lnExvVlVLd6/KdYk5N982qy7mrHZbPBi8dlo3pFJilLwmvQsusuRrb1bNSGMwhVOEoalUuf+z6oMZAyp96xU5NaOByUzVWlFau0jckQ1DafaB+LhrqlpCjjyZETozF9P9GffuOW5WRetDD4gnLVO8Xm8ui+U57oc7xtZOnaelmnYtO47fkc6Cgj61JFd05IGExyuqbRXo588GfKbk4nS/MxAcHXgyFjxozp0XpGi8lkwuns7TdEZIwcOZLjx4/T3R3pvQD6DB06FEmS8Hq9nDx5UhscFTExMQwfPpwvvvhCG9QvhKwiJxpZmcv3se9SJwU6pxWFrCLntJTVul105k2CA2XEzgydS4yWM1pWQq8iRsgqcoSsIud0ldVpNrMnEPSDycso/akZb4ctxNATfN0xs37GJPkUZ+3ADT2BQCA4GxHGnuBrT1ruVViPNvL0g8IYODMwY51sljfTr61g3oXA4bep7OUUp0AgEAjCM2Ty5MkDXsb95je/yb///W+td9TExMRw4sQJenoGVqQhQ4YwdOhQTp48OShpDRs2bMDTxD6ErCJHyCpyzixZjWPdH2u57Dzf//9DR80dXPmb5uBo/eTMklUwQq8iR8gqcoSsIud0lZXYs9cHp+v6u5BV5AhZRc7pIqviN13kTpag20PbHzaw8M7nOChk1SdCryJHyCpyhKwi53SVlVjGFQgEpx3Lfxovf9YqbgKptz3T6xUSAoFAIOidgLG3sVm+q2x3aVAEgUAgEAgEAsHXFzGzJxAIBAKBQHAGI4w9gUAgEAgEgjMYYewJBAKBQCAQnMGcWcaesu8w+Huvod+DdTnbad5aGPwB+zMM66IKmndXRfGtWBP5zzTT7lLJ6c1ibaSzh8U1tJ+S7+1+XTGTvbaGfW/0Z09vBqW7XbiddaxS+lzpblnHmjdq4341+L6vLH8DW9A3+dS0u/W/p/21wxxm7BuIzp8iTrtxqZRmtxu3u5lIpJS/ox135z7W/UQbIjjVnFnGno9uD86Dbdhb7SHO4fYijTJgmZVPxRs15J+JBt+iGmo2ZGMxjtCGhOfXz7JqrgWDBB6nLCubbY82luBs5ZEqKhanyd+RjZK0Rwq5KlHCvqOIoj6/1ykQfMmsDjP2DUDnBfqU3VGJ7YSZy+5ah/KZccGXxJlp7B21sfmn6cy4eAYpqSlBbqolnvT1jXhQPv68Nkf79NefGK1H39w62YQEePeWMGGKLKvMO6u10QRnK/3QKQASfkPh1RakrnrKljRqQwWCr5z8KWb9sa+/Oi8IT0cB6+occN5PuW+tWRsqOIWcmcZeH9geymLTXi8AxgsySNNGOIs5duxzrZdA0G+uW5ONVQLbjnup1AYKBKcRYuz7cqhfs5N/nPgG1mtLT5Ol6LODs9LYA/j82DH5D4MBqybMuqiChgPtuDrddHZ2cuijD2nfXUXhPO0vEWW/QnsN+ZNzqWiSn3G73bhdve8LVOfhdrtxd7rC5CFjXVRKze52XMq+kkOHDtH5iTPkmdLdbtxr0zAAGNIo7Gs/xWNvc+jQIX6TKq9VGFIL5fIE7QmxkvtIDc12V2Dvo6ud1jcryJ2sSgtg0VZ5T8nuCnLLm2n31a+9mYr5mrg6qOWyf//+qOUSmSzlPCKNz7xCqna3c+hTZS/opx/o170PItKrmRXsc7txu/exeab66QC+/WWuN1apfMeRvbYqsjby7fvZXYpZqZtPDw999D4H3ign16+3yt6say3yfxNzdPQjDN99gNyZRui20bjCoQ1VsMp64mu/XtvCTPbKzcH9prd6grLvKlgu+//6Vi/xgzEvUWSl7OdTl+rCXz3Ozv32oHI0l+di1bmzVN6j2E7N6kJq9itl6XTRvmOZP47pyvvY/GZroM+43bjszVStzQ7Klz73PD4Yuo+qlzZ3dyry0x2rvk9ueQOt7YH22bejsJ9LcJMiH0f85Q0eRw5/8DaPz9PE1ZKQzaotDbS2q/Jxu3G1t9JQnhsY7x9t4tChQxSGjH17aYlA57Vj+P69fw2ju4H3ROHqGvY5A3WvuTs0Lf/YfqCBikXat5OKcO2olSVEN4b7mJxLhaKPnZ2dHDp0KKw+hqLs03W7cbuaKc1UBXUs503bf8CQRvaGvlMSDA5nqbGXQ5pF2YjhtFGmCsnY2Ezdhmys8QbwOGj7RxvOIxKGxAzyn6ijZomecprI2VZMdpKBYy479rYuvMOUfYGvhe4L1OZhb7Xj8ITPQ46fQ1qiAf4tx2/74DBelGc2Vvk7k8Nux97hkf/T7cHh26sYlKIKh522g204P1P+75bTt7c66AS50zbVUXx9GpZYSdnT4sAzzIBxcjbFr2k6sg/THNbMtzDiM0UeeDi4TRspGK1cOj7oiFoucl6hcpExk7+9lQYlD69Llk2X1xf/D1Rcq44PjJrGqifyyUgYgafDJ3el7tsiMHgUtHULq1e7KmnpADAz6Xq9Oed8MiYZAC+2+iLFz8wvn3yRisUZchv56tXdRxsZf0bdxkDdZNmNxjj5Sorf8NWtU9YhlzwTztEujX6Ex5Q7g0kS0NpIgTZQwXxFDcXzLRiU9vO3RUh7m8jfXkfF3bOxxhs41qXsw3V6QFK1R1Bfy6C0qTkgF0V3/zXsW3L8lwMHRnTJLKVqpfzDydNUQPrcMn8/ytjQwLY1WUyKN/j7TFe3Acv8YupCXvY+DEy7OZ+0+GM4Wu04PPB5ZwsApsVbeb3sTmZPNmLwKjJ2eZFiLWQsrqBue7Ch2W9021yRn7/NfWTw65c2UzzfitHgpatNHlu+Mz2fih29GCG6XMIjf3l1UMYR+3ZtJBUJ+dS8VsGyK6wYRx2Ty9xqx+EGyWDEOr+YGp/R7pTHPodbedY/9n3Cp33ovLY/21vtfPKvb4TRXYVR07hpSRrmbodcdz6ncy+Y1zb40zrWJZeprQsM8VayN9TRvFHHtNaMS0HtGDIuzYp6DDcvqaH1jWKyFX1s+0cbbZ/69PEx/vBkb9ufzOTvqCAnUQKvncobU1haFxzj6b3/wAtYZ90XtLLm+xEjPu5wChgzZkzPmDFjesY8f7Cnp6enp8f+nPz/KNzkyZND/Prjxo0b12M0GkP8I3a+Onz+Vk/huHE93/72tzVxZvZcfe/DPX9qPybH6+ns+dNtqvBVb/V8LifQs+exq3vGjBnTYzQae8aNS+m5p+ajnmM9PT09x97refxHvmee61Fy7Onp+bznrXUzA2ld+3jPnv9VQhoe8PtPfuivIXnIbop+Hj96vOc92bPn4POB+OPGjesx/mxdzx45sZ7PGwN5+Ovx+Vs9DwTVP9R9+9vf7hk3blxPQaNSKnU6Y8b0PNCgZHDsYM9Li6YEwn50c8/TNkWO/yvnYzQae8atblLq19NzrOXhnik6eeo6HdnLehWdXMaMGdMz5pK1QXLx69W6PXI62rYac3XP4/uVB9pf6pkbVB65fmsvCcjq29dV93x0XA567wmdumidTt1606spPj12vCKXRS+tf+/pWav4zd18sMfb09PTc+yjnlfuVrXRmKt7Hm9RatH5p57btWn0BOrme2bcDX/ocejVLcrx4dvfntrzQpv8yMHn1WWS3XN2XwHkNgroSWiZjUZjz7hlb/Z0yrF73vp1cHpTFr3kbw91XnOrP5I9Nbo7ec76nlccSlDz2p4xY8b0PKDV/2uf6zmoqPfntqd7rlaXX6V79m236Je9J1hWgfp+1PPKtcGy+HZ2ZY/dl1fj2p6ZqrCZ697q6Twu53Vw89yQ9A4+H5yWrFcvKOPSwZ7nfGG9tPmYawPyU7f5XF+ba/u+TzbHe+T2WBVcBj1X+BePflo648gYTXnV44i/D4aM7bK7/XVZS3r+962eB/zj9JieMWOm9Ny8VdGHnoM9z/3IJ6txoW3vc+F0Xqc/jxkzpmfy5Ct0+3PQe8LxSrAujbm550+dPT09Pcd69jwoy8U3Xl3tK6+qr0fTjv6xPYoxXA5b27Pn37K3Tx99srr6sfeU/D/qeelKdd18ujal54EGpQ2Odfb8SdNXA7La0vPecXU6svP3E63Mw7gB2wyK60uvonE+WWn9++sGy746M2f2DGk8oHv1SgNVG5aRkSCBx071PZkseMH3kJniq32/4h8mc3W9KkEnm268l3onIFmZvTJ0xqVrZwFZD9kCHnUF5P2+BS9gSM2mEAAzK2ZPC5OHQz+PnGmYu73Q9RZlS9TxgXcf5enmLgAMccqSw6BSSHaqPIvUsnEBedtV84Md1Sz/VRktR+WDLqHT8R721BSFn1EMojfZ90cuJTpyMVE8OxlJr62op2BNPY5u8BqtZF+kCsJLy5NZlLyr8nrjFmpb5T/Nk/qa2+utbvp65ShpxNYNmCZxk2YpNz/TigHwHvgTJQDkkJ9p4RuAfftSFj6jlng9BbdsktvIeDE5ypJRAJ261d/Gq/+Q/+y7br2Rg+VcAA+dtl60wFlLnmrGLFyZL0s7D4MXvAeqWboxOD3H9jx/e8SZZiu+OeSnyTpp26LR3Y+3svD5FrzdXphwMYGFVIWEfGoey8EigbetkryZy1G3Wvbaq7BKwAcvs+K2l/XLHo62Rgo0sxzzbsogUQI+riVvbglqzbQ9lMXtrzoACUtmPr3Np0SGTpvXBeQXaPNs8mfJfcdRuzxYfnVLWbDFFsUBhkJ+8ePRX8I4Mpu07xnwdnuxvbyUsqCT3w6qF9fK/Yo4zHqziBHRW3/+RLc/q7E3FQTpEqRhNgL8E0dVcC3rF2+n5Sh4MTDxiqCgKNrxgajHcPOGOSSPArrqKdDoY/3qAuo7AO93sM5LVoXIZGysYtVMI+ChcX0mCzR9NUATTheAGcusgO/S6bHyN7GnL1XFFQwGZ6axp716xaksawJeZz0l16UTOyGFvKAXYy7JSQAebDvVC7s+6nnlfdmAMF+QrQlzsKc8dPu5Y30jtqNAjBnrEoBcfng+0eWxJpMJpnhikxbobnCv/uwUbipeOY2JMfLp5sb1Op22o4hX9suytU7P1QR24ijXeIWlH7KPWi7XYZ0A4OHgLp0nduUxNS6WeFMKS/eqAxwcfEj9f5lOT0Cneqcfdesoo6UVwMyka9UvDN8Sroc9tbKpx/zZ/NAI8Am2Ep3Trh1F7GlHNhZStG000Lr1wvxJmEYh68FT2sAAjv1Pa15+cpkbW71BZX79tnTi42OJn7lc98UfUuaZGViMAHZsFTpPPJRJfFw88UlZitHsw8zml1aRFiu/DBdOXxrycp5zgREA53sbaQoKC+4Teng+sWnKn8ZsX3r7nwmVBVC/pkV+xvhDZkew77V3ImzzBJ/8PuHAC6F65Vih/CCJhJXTSIwBjh44xeNILXnT44mPiyddd49oJ57eDPGI6Ed/9qP3w6cRRxeAmTl/rKP0jgwu9IcVkWmSx6S8V9XPEHk73n0RlijH8JwpEwHw2Bt1xtZG8i6KJTY+npQl8hYEH+esrqPiWgsSHhpXp5MV1tAD2IO9S14mNydp21xwKgg19nybUaNw+/fvD/Hrjzt06BCdnZ0h/gHXy0EDNdqrV6ZMYOrqerq6QTJlkLsiJ3SD8XwL34kBGMHEq5tpbpJd01+aaHizgeamZu6yKvv84s3BeyKOdmHfpfbw8RadbgADcRY5j7HDCMlD7cLmAZCQxuz5yygur+CpbXU07bfjmn8qZvQU4g1IAF0OnU4vU+ZUdrEYzKSqAzyd2NX/740wsn/5pZejlsvmHQ00H2jXkYsRg8/4iPjlEWU99AhTt971ykHZbvn3tHlqTmBPy7VpTDQAHhv1vjpY4zACnBhN8nOh+tTc1MzseDmqYZxmn9VA69YbYyRZd3rNw0tXW6ghAXDwf+UXUEiZASZnkL1oFaXlFVS92sw+u8u/yd5PkoFzUPKP4m4/Q2ousxMk+T+j49BqEVgxGAA8fPx3pzYQ1H1Ch07XJo2PFcNogCM49uvLgg4b8u9VA+d8TxsYJb22h4rMOFl+/+cOM7Y50NoVYfGPI86IxpGg+bBIy6uDNTOb3AdKqSivoq5pH+2uQtI0ahI1YfqzerwK7c8+9H74VFNWZ8cLSPHJ5DxQRd1HH2Lf+6q8ChXu8ESkcjl3dFRjeBpgNMj63+nUM2bDYWH2kmT5YCAjiJtg0kYIwXdI0hCrnc0VnApCjb0zFMfGBdy+Te5Uhkm5/PYZjbkXO0LuFEgYkyxYFJf4/UQSJybK/49XXgJauo+hnUeSaeRzZY8vyHl8A0LyCHI6eZjnFVN3wIV7bw2by1eROz+by358IYnGERw7qs7gFNF9THc2JQiDgUlav0gJI/uE8xOilsvsVCsWPbnkmYgL9vlyCFO3vvTKP3OSYPWf6M6Z+0OMQFdLdeBQkUG5OHvYtzBrdUlx5lhf5C+RC+IYrfUL4RjhbrsInZkF692baba7cb9ZRcWGZeTMzyZjugWz4Vio4XFBnPLi6QduB11e5R7O57ULpxbi+p1wH/Q5UyZhUAz3L40T4ca2TTh8h7oiJcJxRMe8jwIry7bIp3cbnq+g+I4csudnkJxkxnDMg6dPGfdBmP4cNF7p9OfeaLwzhcwVlTS2efB2AzEShvMuImPRKqredLHv+UE4nBOx7POVZeX+4KXL6ZFn5K8upLC3w09qRpyqDiVQM3TkyJGMHDmSkcsvYfz48f1yycnJIX6nxl3CCl959dywIXKthsg2rCRJQeFNy9fy+kdyFPPcYip/rnp2yFDkp9t4MSRfjfvBNTwzciQjRw6TnxkylOHasowcyciRs4hV3sVDhsl5yESRx88fZ+vGXJLjJTh6mLZ3Xqfm98XcdsvV/Pi73+MHdcrswpBhgXyHK3UJW66AkyR5YIoZKtd+yNDhgXCfPId/k4k6zwbF+f/c/Gn4cDmNCPP2uzCy19WrfsgFYPgzHyMvrgxhmDZ/PacjQ5+sJEliuJ689FyYuuk6v16NZOTI9TQfBLDw3/dMZOTIG5n7QyNwmL+/vj2QvpI6/2phjTY9rUtfEbZuPgcwbIhO3fx9S6VnvThJkY9eHiNHjkRObghDdcJGjhzJNWP/n/z8yWEMHz4c0+Kt7Fg5G0ss8JmTvzXU8OLj93PbrzIZ/90f8Nj/HAkuc9thjoTJPyYmJiQ/X3vy2dsU/3IGd9fK+mOcdReb1OPEyA4OywkDMHy4TvvryCrgpYk7cji+rIeOCB6vQuMc4XBH7+kNV/dBta730uYjVfX3y88Xf9hIvq0TPzC2DWHocG2YxvnHkf+KaBzZOTJ8edV9MCSNkRO545UdrLrCgiEGjnz8N/68/UUee+A2rr98PON/8Bh//79AmX2yCqm7tkxqne+lP4eMV9r3RC9jT1vlCq5J/wHf+24m1z/wGDXvtHGkG0DCnLmKLRsmynHDyMXn1HXxyQoiH8N3jnyGQ4fl/6p1yyerkGf9dfPStv0usq59jLePyHsWf/nYHWHzjImJCfS5CMcUPUe4Phil612vonPhZdU/pzde9ccNPX78OAN1J06cCPHrjwMGltZJWXfo6QGgu7tbE+cN8h7dqbz0TVxy1yrO9YU96TtWb+S8GwPPnDhxAiA0r+PHOX5czofR5/GD8dqw4xw/nsLYMSh7NeQ8/lcnj97cTTddrmzefpXrJlxI6i9uIG/Fw9TUvk3HiRP88jvKz7CensBzJ3roUfxO6KSpdQAnFZn19Kjk/4kHL8DY8czXee748ePcNF7J/9+f0qHIKpq8jx/vXfYhcX35hpHLS3/YxYfHjwfJBeDECQ/HupU8Foamd/z4HJ7dd4gPD+6j6tbwMkTRqxN68tJzvdSNsHolu4I39uIFEqfexrnZl3LhWKDrPV6pVMX7n075azDf+jbf09VBHRembsf9ukBo3VR9KyQ9Pfc/nbKxpZPH8ePHlWYZzXmWc0PCjh8/zg/OHQuA5582TpwYx5KrZzAa8P7tUZKTkrl8QR53rHmKl17bz/Hjx/neGHke0V/mw19wDGC0ke9p0pb1ahWvf3iIDw82UGw97m9PT2s9D//tOG/c+gg7u4AYE5fdW8x/+59/l889StkvNOnqqL9PqGSlJA8ntXVVpWedHpLW8ePHOT7+B5w3GuAYX3zae3onTpyARSZ5aR/o8YX10ubHjwfq75ff653yjN5/jeF7Pw6NHxjbeug5oQ3TuCjHkQ+P915edMf24xwffxsLlIMge0uSSbzocq659Q6KnnyJN/52nOPHv4dxdKDMvj4YUnef09P5MP35eK/jla+xVO0R1u3nz78vZvG8i0kcdx0vdwBIJE6dL4f3IpfjOu3Ip0eilv3nyhW0xu/8MpCuarya88w+Dn34Ifuez1fVzUnLrS/xYdvj3PHiAbzA6B/fTnGY99yJEyf8ZeXY5yHhkToGajNo0tLVqyhdJGN7NG6w6je0u7ubgbqenp4Qv/44gJMnT4b4R+z8I6D874kTJ0LjPHc1jzfJaz7ShddSssgXto33OgAMJP/8XsYp8U+elHt8d3c3t+9w0vmJE+fOh5nS3U1390klJxM/uiclJK9x98xg0ijgqJ2//E7O4x8fh+ahdto8zjfKU9wex1+pU8UDOHnyEmYk+KbAVXLzva3p4aROHmrnq1/gEVU6RX/lYDcwahIz7hkX8mz3efdyxWQ5f7vtKX9akeYdcPqyV+tVpHKRXXqQXABOntzkz8OSviC0DKlXkGgEadTnfPSyvgx99Ttx4oS+vHSdft161yvFFb0lH/BJuJB7M63yEu6+l9iijvO7v2A/CpDAjJXpOvmnULa7k06nkwPP58l+OnXzOdlXCVfXLWBd6OQR6k62fi4bCwYj5+uFK6mZJi8lRRt+3jpmfB/Ai/2dJzl58jJMyvvIcXAN7SHx7yXxPCVBX5lffIuDHoBELlwbrLs9PT1033MRFgmk7n/yj79267TnFq5+TP6sovT9efx6tS+NXfzxf5Sfiz9cwo9DxqsFzEgM7ZMBu0FT9u5d/g39psk3kK6tW3c36St/hAnAc5C3XlTSU5YjDf8vKyjuyZMnmfHD85QlbFX79tLm3d069W/bwp4OgHFceJ2OXt2hjG1Az8nQ9IJc0V9pi2Ic6e4OX151HwxJZ9Z5ipHr4B9F7SHh4+5JlOWolLnXsa87nM7r9+du1XgV2p997wkd2d9WzYF2J532avIUP/zvwTre/UTZn+ArWxi5+Jy6LidPnoSH9mKPUvZP2eTdgIakS1jgS9c/XqVwxfeNIEl8/slLunVrv+8BXmoDMJB6W6U/DbXr6elh7GhlDP/fjpDwSB0DtRkU16teRenUY/tguMGyr86aPXtqyu6oxOYFMJB2e5VynUEj67bLV6VIF+Xy7IPBt4Rb767htukSxMDBphKCzyGBeXYxFerLVDOLeXaxfNWHY+fDyom/RsrqbFHl4XDLe88MkzI0F8ZeyB0vP8FsvX2wdcqv8lGGAe5TK6C6Sd6DkbykKrh+CdkU/z5XPqLvaaSypM8dIb0QvezDy8XKsh0VOnJxsrRazsM4q5Cau1U7gxKyqdiQgRnw7q2lJIoN/X0Tfd0CFPGnA16ImcicNCPQxXs7tN8rLuHhnbLszZmPUaWuF2ayy4uZkwBIHt7bEc2Gaw12ZQbREIf2jKEuu9o4fBT5motF2kAViVdRXK6SSUI2FS/mYI0BOl7h4YcADnBY2R9mSakIPlyVkE3Fi/myHgZR5peL9XqN7l5wEzW/UvrmrrKgS9WDKF+qfFZRkj/tpOhZ9f0vyePH+Vey4fErVe1pZdmOQjKi3PO0/el62rzAebOp2LEsaM+a9e4qHsuUc3C8EShrtV2umzHlJpapNvGbflHO2stClL8fNLKuzsZ/APPciuBLgicvo+ZmWX6RUcAf3jly6seRVmXcw0JaefCebPO8CqqWRFPmcDo/kP6sww4b/4yRwDCNHHU/AJhcSPYU2SA6uD/c8Yq+WBP1GO5Y8pJy9VEGhUH6aCK7vJgME3C0hdqwbdXI0tW1ygnyDJZp2kLmMizKy8nRqj20JDgVnJXGnv9jzMjKmL9Rud9sfR5FdfJN5NYbK9hn3yefmmz5kAb/TfpF3HC/Vsm9eLGQ/eQ+2vc307y7FdfmXKyjwNtayb03Bi5U+OSJ+0LyaG5qpvmASzePko2v4OhG/vTZ7nb2Ncnpv/9RHStnjKDrgEMekIyqk18dB+k6CsRYuam1meamzaF3iUVI2bw8Klu9IKnq17SP9t0V5E4ygNdB7VrtnVbRoyf7l196OWq5tHc2sCo1WC55vkweCuSRtrIB1wH5FF3rXyrITpTA3UjRLZHe6RU5enWLTK+gpMGGFwlpFODcQ5nOV0jqb7yXrQf/BZKRDFW99tn3UTHfgoQX+wu3q+6U7AcHlBepMYPi/c00v1rah9G3jr0fARgwTQ16hanw4nGDZX4Fza2atvDY2HR/nnIVSRPFNX+T2zMhmypnq9xn9rfj2l1BduIxbAe09ypC4833sumAJ0R339qST1qsfIeeum+G4qBo/UvYvbKe3fWQ0sM6Cli33Y4XicSryv19uNXZwKpUA175dwiezojOS8KuO1j40Nt0dYMhdRUNvvodcNGwMgOjBJ69Zdy7OFDWxjW1ssFpSGbVG4r+72+n5XdXkni0DYf2wEo/cNx/A4/vdss/ilerxrY3lKtpoqDi2tt44R+neBzZtY7tu+WKm+dXqfqBi31PZmM5ZsPmAjAQd4H2YR3C6Lxef25uaublur/22Z9DUOmSZX4F+9pbaXizgaamA7jeyJffIW2VrNO9SiYynrjqlijH8BLyHqynyxvQR3m8alDGEw+ND+ZR1Ftb1S1k0y6lLeYWUqr99ON505SDIHZsKltPfEHj1HF2GntA/Rr5wkoAy9xVymeTHJRdl0TmimpsLg9eg1k+NXmuhNdtp748L+iTSQEcvLKkjEanB4PJgiXRiHS0C9u25WSmau/p+iQkD98JLt086vL4xUo5LjEG+cRlggE+epsXVl1B0sxaxeiZSJr/U18lPPxMI46jIBktWJLSuLi32ZVeqWdpaibLt9no8njl+iWZMZzwYG+qZPnlUzUX+faXUNknnJ8QvVw6GqlckRkklxlXB+excH0tNpcHKV4+RWeM8eBoKiPv0qyBvWzCElq3yPQKeOgV9igvbsf+p9G/nKOeDQuuIa+8Hrvb66+X2eDF47JRvSKTFO3F09Gyax1l2+x4upF1YPq04CsydNi85+8AmJPCnSY8hu2RhZQ1OTg2RmkLyUPXu9UsvzKd5arLh50PzSVvo1w/RhnlPhMHnr/XUnJzOulPvCfvxU2wUuyf6a1n+cx0lj/TiN0d0N1vnfgX9m3LyQy5Q0+HXUspUH4YGmbeRpXSx+qXpDD3gRoOuDwQK/dhY7fc54taore0nOVXc1n+E9S3efBKSv3iJTwuG7UP5ZF+qeYy3o4C0m8sorbVgxdF/+PB+ddnuP/nVehfChMtDp5bvNCvV76xDY+d+o1lNEZVzT9z50+uOMXjiIOiK/Io22nH48XfD74T48H2agl5P02nzCb/KLBMKvYv6YYlrM6H9mdLkoWEuG/03Z91qF+SEkhrlJHEiYkkJhrB9w6JRE97ZWfUY7hj4wKSbiyi9t0uPJJRHq/GgsfZSNnNfd2hJ1N2t3LBuGThqtWFwWPA/O/L1xq17RnklRRBOIaMGTPGt8rfb0wmE07nwIeXkSNHcvz4cbqVtfj+MnToUCRJwuv1avaRRU9MTAzDhw/niy++0AYpH7jOwYKdytgUIrnz++yVVfQIWUXO6Smre/jDweUkSzY2TU9neT8H9a+brPJ3tFOYasCzazkT5vW9RCX0KnKErCLndJbVo++4+eVEsD01NcwF2JFxNshqsPTqrJ3ZEwgEp5rHeL6pC2KszNL5dNTXlfwdrbicLt75XZY2CEhjmkneZyX2IgkEOiQUk3y+/Dm2TQMw9ATRIYw9gUBwynj+gWpsXjCnDcZ3XU8Palv/iTRKwnTxr7gj6AsH8oGYDBPgtdEobD2BIISctXP4/rD/YNt+b9iveggGH2HsCQSCU0fHrynYasdrzCA35CP3X08cK6qp7wJG/4iVrzpp3a09EOOhcf0NFPRz2VogOGNJKCQ33QiuRtZFcoBFMGgIY08gEJxSGu8s4KU2L9b5getLvt6UseDyPB6r+ztdR8GYqDoQ01Yf8QZ2geBsI/+hHKzDHLxefPcAD50IokUYewNiKSmxscRGeDhDIDg7qWfp9HhiJ5yq085fAR3VFN+UySSLidjYWNnFxTNh+gIKtgtDTyDQo2zeBGLjpnLfX7QhglPNV2zsldLsduN2NyNu1REIBAKBQCAYfL5iY08gEAgEAoFAcCoRxp5AIBAIBALBGYww9gQCgUAgEAjOYISxJxAIBAKBQHAGI4w9gUAgEAgEgjOYId/+9rcH/G3c8847j48//ljrHQGP8vbh67Bg5/mxM7hXkuju7ubEiRPaiFHj+87dQBk6dCjDhw8flLQYkKyCkYSsIkbIKnKErCJHyCpyhKwiR8gqcoSsImfIuHHjBmzsfec73+Gf//yn1jsCHqTh0DUk0saL49O5Rxt8BtJ/WZ19CFlFjpBV5AhZRY6QVeQIWUWOkFXkDJasxMxeH5yuVrr4RRM5QlaRI2QVOUJWkSNkFTlCVpEjZBU5Q0+ePMlAXU9PT4hfZC5gZ/acPCn/2++0Ak6NNixaN1jp+Nxg1O+kkFVUDiGriB1CVhE7hKwidghZRewQsorYIWQVsRMHNAQCgUAgEAjOYISxJxAIBAKBQHAGI4w9gUAgEAgEgjMYYewJBAKBQCAQnMEIY08gEAgEAoHgDEYYewKBQCAQCARnMMLYEwgEAoFAIDiDEcaeQCAQCAQCwRmMMPYEAoFAIBAIzmCEsScQCAQCgUBwBiOMPYFAIBAIBIIzGGHsCQQCgUAgEJzBCGNPIBAIBAKB4AxGGHsCgUAgEAgEZzDC2BMIBAKBQCA4gxliNBp7tJ7RMm7cOD755BOtdwQ8QlPntSTSxgtxqSwfPpwTJ05w8uRJbcSoGDJkCDExMXR3d9PTM7DqDR06lGHDhnH8+HFtUL/ov6yCGS5kFTFCVpEjZBU5QlaRI2QVOUJWkSNkFTlDxo0bN7CaAeeeey6ffvqp1jsCHqTh0DUk0saL49O5Rxt8BtJ/WZ19CFlFjpBV5AhZRY6QVeQIWUWOkFXkDJashowZM2bAxp7JZMLpdGq9I6CUZncOFjx4MGBQZviWdHdrI0bF0KFDkSQJr9c7YIs/JiaG4cOH88UXX2iD+kX/ZRXMyJEjOX78ON1CVn0iZBU5QlaRI2QVOUJWkSNkFTlCVpHzFe/ZW0pKbCyxsa/QqQ0SCAQCgUAgEAyYr9jYEwgEAoFAIBCcSoSxJxAIBAKBQHAGI4y9U4KZ7JWbqdvfjqvTjdutOFc7O1+qoHSRVfvA2UFCNoU79lH3iDZA0G8UmW5+QBswuOTvaMftdtO+I18b9LWndLfcP5s3akO+pmSspe6A3F5utxt3Zyubr9dGGiCZxfp5TM6loqmZqsXaB746Trv2XVxDu9uNu72GM683CU5XhLE32GQWUte6j4q7Z5NsMoDHgb3Vjr3VgQcDsedPI2dDHa1bl3G2mXylz1WQn2rGEKMNEfQXn0y/NUwbIjg7uZKn1t1AcrwBjnbJY0/bHt7boo03ELLZ/GCuTh651GwrJjspjhHaRwQCwVeKMPYGk8xSmp/JJ9kI3o5aCuZOJd4ylZTUFFJSpzIhfir3vfQPPEgYZ61i6/M52hTObISRN/gImQqCSOP8cwEc1F6fpIw9CynRRhsQaVji0cljhNBHgeA0RRh7g0YapfdfhUUCOqpZeNFCypocmjgOXl93DXk7ZH9j5jIqZmqiCAQCwYDx8vkurd9g82XkIRAIBgNh7A0W1+bzsyQJ6KK+JI96bbiK+hu30+Lx4nF5GXFRcJh53io2v9lKu2qvn8veTNXabMzBUXmkqRO3u52axVZyy5tpdwWeaT9QR/E8M2Amt7yB1nZV2P4aCjPVKT3I24cPy3tIJudS0aTaa+hqp3lrIdkJ6vh97eHKp6bdrZQtsEclJ1EOtVyrlCPoWTPZa6totrv85dz/17dofbOC3MmqaJGQkE3h1oA8Dh06hNN+gIby3KClc/MSZe+M20XzI2mqEIAMNu9X5L+7lAyAW17m/UOHOPzOo5jnFVKzX7Vnqb01JP0AoXXrdNrZ/9rj4es2OZeK3vRAI9OEufsjkqnb1d6rTC/81ePs3G8P5BmiK32Tv6Odw4cP0/CwiXlrXgzOX5FTsC6X0ux243Y3Uxrkr/BoE4cOHcK9OxDq07/mjWay19awrz2Qh8vezOa75ZbIWB1cf5e9mXVXjVMlrkbTjzpdtO+uonCetucpWG+g/I0DQf0uXF+V9421U7O6kJr9Snk6XbTvWKaJqcPkXEp3BPdvV4i+yX2us/NaZJWwkKPEjWSvmnVRKTW723Gp8nB3unjrDxtV9ff16xwsEJxHSzNudyFpBgADaWt18k64Mqhf6tdDxt++5fJ45Iv/wTu/IwsgYV5IWuHGqgDWoLGws7OTD20Nuu0Fkco9GOuiChqC9jL2oUNqEvKpscvjVWfrdvJ99dCMZ5HVVSAIRhh7g0T+1dMwAnS9R/UL2lAtRWROiGfCpBQWPhTwNS+poe6JZcyebMTgVfbCuLxIsRYyFldQtz1fZ1AagfX2OornWxjhVvYGdoMhPpncjc9StaOB4vlWDEdVYaY08p+sY1XIQGEiZ1sx2UkGjrns2Nu68A4zYJmVT8VrNYHBJ1rc8r7FrqPyf70uu1y3dt/timbydzRQsTgDS6yERwl3d38L4+Rsil9rpjRSgyMhn5o3KsifZcEwzENXm522Dw7DKCPW+cXUNSmGG+DYuJSHmzyAhOXqQgpV9cso/y2zTYDXzkurlwYb76OSqdqYT5ppBF1tduxODxhC05fRr1tXt4Gx1izdupmX1ND6RjHZunrwGH94MidEpv/p7IhIpl3dhrAyzdjYzI41WUyKN+DtkuN7YtPIf6wm7MutN+Iu3kHpLbOwjPD46+CTU8N2vR8J0RM3q46KxWmYu//pl4cUa2H2yq3UbG1m85IMLASHXXZfBZt19Ml8RQ3F8y0Y/q3I1ithSMwg/4k6apZoel5mKQ1/WMuVk40Y8OBolfWg975qYNrN+aTFH8PRasfhgc87W7SRgskspfm1YnJSZX325xOib504Wu20/aMLLwBeulqVfqZdYNCQsbGZug05pCUaQKm7va0LLxLf+m4q+RurFF2R87C36uRxKDC+AHg6NHl/N4/tr5UH9Ut7W5duv1RjnruG7CSln7m88NlBariG39f8Tk7LJ/tWBx7fWPWG/lhlnldH8Xwrxm65js7PQBqTSMbix6jS/tiLWO4+zPyyfCcNG7Kxxhv8Y5xfhzb+gYprgx7QkEHpi6tIiwU+e5vVl8+jrAMgh81/VMazSOrqO/zhbuflW1T+grMeYewNCmas4wwAeJ0HqNYGR8LMUqpWpmGMAU9TEekmZS/MpHjS1zfS1Q3GmatCByUkDEawv7CA+EnK3sDpm7B1A5KVjNQRmrASWo7KBsusXE1SBjOWWA+N69OZMCWFlOlJxC8so8UNGNO466F+vqC3LSUzNYU/ueT/OnalkJKaQuadsqTSHqliVaoBvA5q75nKhEly+KwZSyjb6wHJQs4jVfS9wzGN0ufkAdPbUcvy6RNImp5C+swpmH5VTosbpKQcHvPvlXRQdscmWR6SlZxHlRd0ZgW/vdIMeLFvL2BpXXAuxFuwYKf65hSSpqeQMmUCU++pxeEFKekqClVtFK5ukyZcR8W+Izp1W0bFPfp6sGCjDQ8S5nnLqOgKluknu6+MSKZJpgX6Mp1ZSuF8CxJe2l5aTEpSIH7lZ9PIni7rdzSMPncsx5rWBddhm/z2N6RmU6h9oB8YjEY8TQVMVfbGJpmWUt8FYCRtloVjQWELqHUCjGPaL7O1SSEZDJq0FFnFGEm79beqNsqn5rEcEiXw/K2cBfETmJoarAfGmat4dm2ouSdJDmoXyvGnWuKZenOjNooKOR+LBN62avKmq/K5eRO2o7I+V2zPB6pZekUKqT/ZiXzXvoM/pcptqP5BGUJCIffNk9vd/sKCwB7j6UnEX1qE7V+AZGHO4kAeKal/Qm5FVR6/WEhKqlwm8GDbpM47jQc3LSd1THC/VI8vwf0ygCRBy0NKP5sUz/mzH4FfL2R2POCsDcg+dSoTphfQ6AFi08hdqR0n5bTs2/L87ZuclMyad47IP/Yy8wloRDRyV7i7gtumxwLy+CmPt4oOvesByUz2sgpCS4Vs6DVtJidRAo+NZ++6mvIOJWhtbr/qKhBoEcbeoDCbuDHyX57/PagNjIjsRT+T9/s5a8mbW4JNFWZ7KIvbX3X4B6WQIbHjFZYvUc09dSzH1qb87azXhBXR2Cr/LjdPCjXeunYWkPWQKve6AvJ+34J3EF/QweSQn2lBAuzbl7LwGfU0RBMFtyjGmPFicu5WBenhW0rvtvPS3QvZ5BswAf602l8PY1oO/sWzjiLyyn31u43fXptBxdpszDHgbXuJArXsVNi2LCBve6CsjmcWcm9doI3kF0dvddvJmtufDambecMckkcBXfUUaPSgfnUB9R2A9ztY5yWrQrT0lm+9rkyzF/0MSwzw0eusuO1l5WUux196TWVQOSLm6N8o+8UjwXVYXCv/EIkxYx2M6zmOtvD43DJVeSupf9/jD9sUFFbP0/uV/bLf03lBOmvJ08TXk5V5Q7Y8A3PkbR65fHXQrK9aD6yZ94W+3NsaKdD+eAjHWiWfoy2UXZNHtUqfHduXc4Nfb7Mp1pnJioicaZi7vdD1FmVaXX+3hKp9bgAMcfLCbb+4Np9ZEyXobgvtl6rxJahf+vDs4ZX1wVOTeT8wyUHOPcEz7h1lPLzLAd1ezhl3sTpECX+F5YurVe3rpGLrXuTfBuZAW0UtdzPFs5P5ht74ST0Fa+pxdIPXaCVbs21HnoGvICdJAq+dylvTuV9VqfxJ8g+GiOtansWE2FhiYydw5e/UDwjOdoSxN8h8/ll/5vXSmHOBEQDH/qd19/vVr2mRBynjD5k9PzjM84kN7fyA3S2/8DzOPSFhnx87pvHx4WBPeaXWE8f6RvkXe4wZ6xJt6ACZP5sfGgEc2Eq0JZWNsT3tyEZUinYqMpjsK34oL6V/bKNEZ+O4Y/0eDnYDoyxcvEjtn8fTB7yAkYy1FcxJCLN86+NoCztXBL+AAOq3HFDayEJGQgR1+6g4pG45UyYC4LE3EtoSjeRdFEtsfDwpS3pZ/usr3xCZmsmYKOuf8+8v0hQSfzmNrVrPCDhkJ/RKxU48ytLzoOA6GHLSdJNLWcp2HaRIE9Z4VP6ho4du3/P/OAq0Ue50eVH7yN//TLkmOkB9nV02IBKsqtkiGc8nNpWx0TurkmVd8LY2UqQ2kBQc619hjweIsZLce9cIz5pMJpjiiU1aoKNv8PrnR7ReUZN9xQ8ZC/Dxgaj6JQAuB2Uar4r/kecuDal30bxlFTmpgRnUxhunEhsXz4QrtC0PHkfoWMj2Tj7XeEUv9xysEwD+xcFdOlLclcfUuFjiTSks3RscZH7mD/IMfLeD6htTQlYRyg7I2hJtXQUCLaeZsZfItZ2dgU2o/XSHDx/m0KFDHD58OCQsWtfZ2SlvDtduNg5DXHx/Rl0rBgOAB+f+kOFIpsOG0wNg4JzvBQd1OrXDYT852oVdZzCGt+h0AxgYyA98XaxxsoHWfQ7JzzXT3BRwL7/0Ms1NzfIyBmAY1/vOMes42WBhdDJVqnQa3myg6S9NNDfNVvZRGYgLSspBwa+exuYFDAZ5SWvr8pCB189nnbyl9QPY5dtDdw5xmb3XrekvTTS82RBSN6NBgoG2aS/5+lxwvr6ZaS+HP3g7OC0Fh/LjIRqOuD/Qeg06nk671qufeOlq0+97B/9Xrrssq2wscbK/lLBA0SuNfG//IfKidxxmzexlp2tTsEcv+HThn+06BgQAZTi65L8M8SFziNGTkMbs+csoLq9g844Gmg+089fZ/Z0yDODvl4aLgvplwIXrl+Bx67Tvb/7Azi4AA5YrllG6Yx/u9laad1Sw6vo0nb2SMpHKPnq5GzGMAvhfHHrWfzgMaeTONSMBxJxDnJ6o769WtiVEV1eBQMtpZux9XQl0/hHf/I42MDqUDc7hkTAoL+pBp/tYyK9cmUY+Dz8hMjAMyvWrMQbMSRYsKpdwfgKWJAvmWO1D+viSItYclE7ixEQSv5+IJamXC5076rHJEwbAMTrt+i9+AI55QmcIAPicY+r266Vuid9PJHFioqZu+ZiV9+KA6CVfn9OX6TGOhbHp/LNlZyzHOKav/FR/pg6IY4RsCyCd69MrrXyN8gt8kPB29z0XeE5s7z+EesM8r5i6Ay7ce2vYXL6K3PnZzE61YjGOwPt//9FGjxp/vxxj0pGVpfd+qUsF18y+hZJXbXT59NVgxJKazbJHatjX3kCxzgGcaIlY7ovNKPZ/P/DgcHkBA2m36+1LLmPB5XmnvK6CM5/TzNhr44W4OGJjYwfkxo4dy/jx4xk7dmxIWLQuLi6O8ePHExsbS0ovS5iNH8rWnmSaFLJ0o0fhmy5c9n00PKnZN9fnoOdh0CYzIiaNcwbz7aXGZxx5GinQyH7KlCnB7TF9qeZhDb6TgE0FQc+NHz+eOI1eadvSvLaQq5RrTMIPvAoxI8L8oj6HEer266Vuar0K1C3wo2FA9JJviAuS6QhGhDmHkTbqVCnAaUSYvpc95hz5j26AY375tm0N1atgN4GsaGZ6wiDF6Gubms9dtVqvyMgspWpjLsnxkjyz31RL9VNF5N2YxdS4eC7+8yfaJ6LH1y/fXq0jo2Cn7Zdh6dhO0fXpJE2IZerchRQ9VY/NpfwiNVjJjehAV+9ELPdyB/37KeShcX0WU+95BUc3YMxgWbnOmeSO6lNeV8GZz2lm7H19qd7xnrLR94dk93rEHkgoJu1CCSnWjAEbYMOjLNGapoRZjkmwYjIAeDnWv5GlbwwmrHpLCVxMXCyyoRnRTn0LcWGMhhDe70SuehwW3bwjx9apLLfFWcIYY2FIKOTZG61IgGObb0N+Bqt0TgcCMMbIbK0fwEwLxlHIV1SU969uHmU7ZbjtANnPt+J2uWjdHrKVPUDU+dbS+RmAxNjzZ2gDAbh43ABnrAfAYtNgTHf2hQHTBfpa41uG9HTagE1+gzzuvLzgiINMl0d+oX9nQhg9VM0Ee9x9z0Lpkb94jv9g2AJTEilzF5K3ooTqHY04gKvjvq19JGr8/dIYZb+MEEdTLSUrFpA+KZ6pqxtl3TdayOjnhfXRy92jzOh/G7N2zyEA2VS1unE5W6m5Q+XtsVH/kA3q8iiR16Uxzy3kQZ2zJT4Gu66Cswdh7A0W2+7lJd8m/2UVundGyYwj/9FsrDGA10bt+kagkVfeVzr7lJt0n814IFkeKD0HadymDR0szCTrHOM3r0zDOgo4auetp2Q/33KlwaCzgHH3xMgH9afewn4UwELaA3o1T6Nir1s2cLaGnh5Ws6nZLt//lZimfxHwzAr2ueVBN/ChdjOrfncTVkk+AVuyeDl5W2zy6cDMZbr3sWGYxhydk8EZ10+S691hk6/f6bNuM0LqtumAPG1ruCBD59e6cpBHkvjctV0bGKDPfLUydVC5TzYWTD+8gVna6CwjLenLmNk7hzjN4SNIwxof6S+HgWGesiz09GxCMWlJyNfwNMt7vqrfl2U1+oeXs1LPmL67DpfbjcvZQGnI6cvIKWqRT/ZLSWk6d2KCeeUcphkA7Ngi244WgkX5VRZy2hOADJJN39J6Rk2gX6ZG0S/DkcyDb37IoU8P07wxdJRxbOzvLFuA6OW+CVsHwLeYOCu01zJzDhYjSKM+x7FDGyhTed3j8lUqkoUrVz2AfN44mdImF65O+fJwLYNRV8HZQ4zJJKvVQPjmN7/JwNL5JsMBiOG/xo3D1NOjjRAVQ4YMYejQoZw8eZKeQUhr2LBhdHf3tZmuh6c3vc7lxVkkJGSz5cB32LJ6A2Ut6mWQ73NreRkLpxuA/9BR9xRPnzBhMsGeHe/QcUkWCabZPFVXyM03P80/fE8t2sjjl8md/ZOmbbxiMnFuTAz/JQuN4aPkNNScI8l2/FDpnJC2UYedd955DB36X4r8wTznESpvXsJ9dUq5f7KCF25NRgI+eWcL1SYTJqC+zcF/Zlr5xgVZVN78OvfVfSLL6sJFlC2W48NQpP8XKFvX5/8CvkXsuDxMpteVHKvZ8s4NJGeMw3xZGTvW3MaSp+Saf/ObieRt+S0/TwD4N/amV0LqEsS2LTQtTOan8WZ+VrKDQpbw9PsQExPDififUfTwz2Vj7Jidd16VyzXu1me57SIJ+Bd7nlvOWyYTPFnG65dVkPVdM7Mf3Ma1799NEzDknBEMAUAiefHrFP49j6ffl7Met3AjZbPNwH+w7XwWh8mEqZe6DRkynivWbgipW8+D9diyLFiNGaytK6TLrwfjuGztI/zMBPyfjbeqejCZTH6ZGr79C0ymPyiCCJ+vLx1tvo7Nb/GPOb/k++ddxu9qV3DNzVuQNeD73PTk7fJ1MGH0SYtPv4Z841ucd955mj54DnKwWjca+diVgyXeyPSbC/nZ7uA6+88IDA+MM73pN6N8HUNnXNIJ+6ZP+RPn88iW91ly/+ty3c+7jHWP/VL+Yfbxn9myTS6vY3M9tstuwjrqR+Ru3kjXPet5/WMljQtuokLR//8ceo+qLvkZXx56fTXsePXkTvZcY2XaOcncVl3J/95+nz+fcZkreChPzudfLbVUKePIkCH/paxGD+ebSl/tDc+//wN8A8MPZ7Nqxis856sH3+emJ5/kp779wUGy9I3X2jz28e8jgMHA2O+r6rltC+/ckEz6uaagfgmKjHX6Zbj2HTLkn3zQ+W+kiRKWy39H4auBPgjjuOzhdPnrHu6P+Vt777KXx3bf2KeqS9Ry7+HhehvzE60YZ63l9TVd5Pn623mXse7hn2EG/nPgLTn+/5PkWZahEuf45fcKv92WzX8vsiL94FqeuK+Wm589xIdd/0ZKiryuasLqVT+I/D0YGQO3GWRiYmI4ceLEoNTvTJfVkDFjxgysZoDJZMLp9O9u7welNLtzsNDGC3GpLBmgkIYOHYokSXi9Xk6ePKkNjoqYmBiGDx/OF198oQ3SxTyvmGcfzMWqTEZ43Q4cXV7ltJVR2YjsxbHjAX5x46agaxjMS2qou1++UJejXdidn8sXHcfLppNnbxl5lxZQD4wcOZLihkNcmwj2F0L3uuTvaKcwVb4kdsLc4JOd6rDzf1GOJD3Gnw9dgwUvXq+EJIHHaafTew7mBCNSDHhbK1mYqr6KJIeq1lIyjEC3l64OBx7OwZRgRDphx+62YIn30Hh/YN9S2pP7qJlnhm4PjrZOuloeVi4BzqB4VwW5k5SLqV3y1wVGnWth3DnIsyovLCRFew+YHpnFNDyhyN9XrpMjMH7PJMvea6fSd8VBQj41b8qfePI0FZCuvmMtczP7npdPCTq2LWDq4nqG3lrDh2vSGN3txRsjISnpfy7FYZHX2OnaVUDmPPVdbfp1GxFnwaScgNXWzbykirqVGRglPT3w0Lg6nayNcg5+mZ74Fw77p33KVDL6Dmfo5VvDG/enMTZG+epJl5dzTMrSdLe8p01Pn7T49OvIO2v43tzHNH0wn5r2QtIMwbphXttA82J5Kd2Xt6+snjYnQxJNjG6r9O8x7E2/2diM+1oLqOL3Fla6201OohePGwyxEt4uOw43gbp7bGy6NZ3lqtPZ5iVVvLEyg7ESfn32xgT6C+5GCi7NUr6C4MtDv6/2Ol5lltL8jHzBrz+fUQF983bU8sBVgbvrYmI20tR5LYnYqYxNoY9drpBZwb7N8r2S6nrIY5UX98H/JWbiOAyeRgomZCnXoPjG69A8lr3qYtV0Cbxd2Ns/x14jX6w88ucP8/qjNzBJ1S8/75aIS1QOZ6j7ZS/tO3ToUKSJt/PiHx8gbYyclsfloPOoWreD+0g42ctj+6PK2KepS5RyBzOrXq4n/yexSKr+5tchtT4srqF9bZpGpsiXwjdtle/c+6yJgsS5lCXkU/NGoXzvXwR19aeNh8YHzuea34fRqyiJ9j3YFwO3GWRGjhzJ8ePHB2xY9doHo+R0lZVYxh1kHNuXk/7TLAq2teBwe+WXdJIFS6IRwwkP7vffpOTmFKZqDD0Ax8YsMm8to77Ng1cyys/FS3hcNmofyiNdMfROHQ5eWVJGo9ODwSSXWTrahW3bcjKDDD2AShZcvpxNux14kDAmWkhMMOD98HWKbkxhj85dao3ry6hu9fhPiSYn+xbN6lk+M5288nrsbi9SvHxKb9y3/oPHZaN6RWZkhh5A3XLSf5pH2U47nhNKuSaaMJzw0PVuNcsv971QzOQ/epf8Lc+jLWy6Q22gAXULKakL7KMJ+rTY0T08tKIauweMiRYsJgNet5368jyNoUfYuplGezny6d916+bYuICkG4uofbcLj08PjOBxNlJ2s2pgV8t02LcikqnZ4A0rU8fGLObeUcHONg9eRW+NMR7sO8so2x3mmO4g4bg/nYXra7G7vf7T1OYYBy3PLGfWcwMf6PrmGLZHFlLW5ODYGFlWRknRmSuDDT2UNpryi/t5+d0uPCeUU8+JRqQTsrzyVIbegKhbSsrly6lW56PoW+OW5WRepLmkOFrq8vjFympsrkC/tCQYoKORyhWZzFrwZ/nwgGEiaX3tRQZKNj5No9MLit6m+e7GrL+fWZcuDuqXliSzTr+MgI8quDLzFn9aBpNKt9vqQ/pIv4ha7g6eu2MWC9fXYnN5/P3NGOPB0RSpPjSydG29/AWUManc9nwOdJSRdWlgPDsldRWcFYiZvT44Xa30wf1F45vZC/2lHg1nvKx8M3shv8ij54yXleiDESNkFTlCVpEjZBU5Z4OsxMyeQCAQCAQCwRmMMPYEAoFAIBAIzmCEsScQCAQCgUBwBiOMPYFAIBAIBIIzGGHsCYB7mDF2LLEDOJxxVvC7K7lg/HjGnn/lgA5nCAQCgUDwZfIVG3ulNLvduN1zBvAhaYFAIBAIBAJBOL5iY89HJ6/ExjJ+fDp3aoMEAoFAIBAIBP3mNDH2BAKBQCAQCASnAmHsCQQCgUAgEJzBCGPvbGNjM2632+8OHz7MoUOHOHz4sN/P5WyneUcpuZO1D0fJ4hra3W7c7TXka8POAMxL5PrteyZD8fHtQW2nZrEmsgrzkioOODs5dOgQbnsN+QnaGGcRPh1RueaN2kinM7Mo3e3C7axj1dnYjgm5VLzZSnun0n6dLtr311F8o1kbk8Uv23F37qNC/elB9HRA3X/yqWl3495bga+XCQSC6BHGniAEaZQBS2oOxa81B38TVqAin9Il8sfMN90Y4Xd7AfONm/nDygyMEnD47cDH0c92uj04Wu3YW+3Yv0af+kx9eDVXJUrYdxRRdLa1Y0I+NW8Ukz3ZiMHbhb3VjsMjYTAlk/tgAzVLgg2+8rtewHbCTPZajeHmdsjt3urAE/LVqzKWvmDDm5DNb8uFuScQ9Bdh7J2teBopiI1l7NixjB8/nrFjxxIbG0vsRVksfaoFD4BkIWdFMaG/0SOkPIsJsbHEDvA7sqcjOc/fRlos2LYtjbhu5nkVVK2djVkCuppY84urhaHn46iNTakppKSmsPAhbeBpyncfYPVViUhd9ZQtadSGnuGYWfW7VaTFgretkgWmJFJSU5hqmUreNjteDKTdU8Ey9SMdq1lX54CEOdy3VjWqbFtKZmoKKambsB1VPyDjuH8d9U4wz72P35yNs6cCwSAgjD1BMB2NVK7IJG+HMr0yKY1lYoANJuE35KYboaueTSsim4Yyz6ugamM2FgnoamT1z+dR8ZE2luDrxDW/vpJJEth23EulNvBMZ+Z9zLtIAhy8smIpgbltB9WLl/NKBzAqmTkbgn8q1q/Zia1bwnptaRRbO+opeMMGkpXrSm7VBgoEgggQxt4ponS3b++JldzyBlrb5f0o+/fvx2Vvpmr16b0kUV9npwuAOMxBS7lWch+podnuCuyxcbXT+mYFN2r3+IXbszdZ2efjCuzTcbW30lCei1UdDyAhm8KtzUFx3a52mrcWkq1rhIaW79CH73PgjfLQPYi+8u0uxTyvkKrd7bj8e4/kOuXq5HHdmmysEnTtq47sJZ9Z6jf0vK56Ci7PojyaGb2EfGpa22nYoKMzk5dR09pO7cNXh8quF6yLKmg4oK6vi/bdVTyQZVLFyqBirxJuD913aV5Zh8u3x0pZsvPp/cu3TOKG0gY+OKTsBVXSL5wX3TyxeV4h2/fa+fCjQ/522bdDafu1DbJfaxXZ2gdDMJO/vZX2XcWkaoOwsmxHK+17N4fqSDgSCll48VjoPkCjxuAP7vvButt+oI7ieWbA7B8XfPtmP9j3MoWndNuEsqe0vYb8yblUNGn0/dViWa6qfXj79+/3yzxI++Za5Rl/5wEqd6kDABqptMkysU7PDQ7qWM4re71gSCNbYwj2hmPFK7QcBcP0bNZ+VxsqEAj6Ysi4ceN6tJ7Rcu655/Lpp59qvSPgQRoOXUMibbw4Pp17tMFfYx7cdYhrzvdy+FMvY88dDZ85aTvsZVRcIvHnAHhpe+F60pe/rX00mEVbef/XMxit9dfjgxcZP7MPKT7cwKGrE+HI26y54GoqtOE+frWV99fMYDRHePs3F3D1UwCX8OCbT3HNRAmAIx+30fl/EnHfMzE6BvC28eIt6dzj+5nvK7s6r+8+QN2beVwoAUcO0/bp5zDsHEzfHYsUA94PXmTRzHv4M3DuubdQ+Mf7uexcwHsE50edeFHl99nbrPn51aoZsv6W7zCHpbGMHebl8EdOPidQHj57mzVWtZyuYcv+B7lk7GH+vHQK12/3B6j0WSWzjAdp+N01JErg/fTPFF91fdQzetf8fj8PZowFvDhr17DglmdxAqasx9n8cBaJEvzrQCX5l63gz9qHdbjk4QaeujoRCfB+5sR52Is0NhHTGKD7MG//di5XlzvlyBmP885TWZhi4HD9PUz51Yuy/3fz2PraA8wYDUfeWUPm/Aqcfr0/gvMDMJ0/Go44afvUyznjExk7Sid9PR1RMC3eyo57ZzA2Bjh6mLZDn8NoE4nnSng/eJEXj1zJDVMljryzhgvmh9VkmWu3sL/4EsYC//m4gcJrfsmzHwHfzeLxTQ+TNVGCz/5GxV1zWRPBFkzTmjre+dWF8D8VjL90TVCYr+8fOQyjx0p4P23DeUSth3/nz38zccmPR4eGHf0bj106l+IodSQyFP08eoTDMaMD+i7FkXiePMJ4/+fP7D33EmaMlsP+Peo7JJz7LTls32Ok/7wYJ5C37X0e+PHo8LK/ewcf3vEjJJ129Yd9VMPVqbcRGAHz2Pr+A8wYrR5zAiz/44fcPlXCWXM1P76tj3HzK6D/78GzDyGryBksWQ09fvw4A3UnTpwI8YvMBezMnuPHAQaQVrAD6O7uDvGP1p04cQIgxL8v19MDIDH2XIm2lxaTnJRM6sWpzL5kDqvf9gASibMWMUfn2SB3ooeIrfGentDnte5kIO4JxQ8dWV2VligbmN0ObE/Ifjc9v1E2pLxtvHxLMokXpZJ6cTKJqYt55u9ekBK55uGt3KQtuyqvOQW/4EIJvH97lOTEC0m9OJXUGRdi+tXLOLtBOv9Kbl8ixz1xR7Zs6H38KteZEkm+2Jffapo8wJgZLLzrv/1lDle+C2bexu//x1e+qtDyjR7L2KNNrL/CxIUzgsvDmBlkPRCQC4uy+NFYwHOQt6q08vW1VA89J45zPL3Yb+jRtZP1v7iGx9uUukWhV1tyLmf1n7rwImGavZbXd6xizs3PUqMYep6/lbNqYQlv6Dwb4m6sYuPViUh42Ft2HSZFL5OTkln5RyfemLHMuPtJVo1X4r+Wx8rXZMNsbPoSHks/zvHj53LTb29nxmjgsyZKlj3Oh0r6st6PxnT+aI68U0yGZRqpF6dy4YTrKP+bB2LGMmNxcWgbqHREdjdRfJts6Hk/eIHrJ06RdWWyietebIPzr+GGqbJR7zjweGg9tW7zNVxeuJMuL3zjvHTW/rGGVbNv4tltPkNvL+VLL6fgNZ1nQ9y53JZ6IQBtB54JCff1/dFjoe3F6zBN9untMxzoBqQLueTHUlDYBTMfY+9RYNSPSP+lNr/IXe96pejnqNGMpY0XfqXo+0WJJD99AADpB5cwY1QgbN4VPyG5ZC9eQLKm80slre+NlY3DnuP/p5PPcY5/9gXHAEYb+Z52bF+/B3s38N2pXP1j9XMnFNkp/UeTZlGLHQDT5GuY/hWO7eHcYL67BjMt7djeHydkFbk7XWU1tLu7m4G6np6eEL/I3EnFkOnhZLd8DOvkyZM68aJzJ0/KFs2JEydCwqJ1vrS0/n05n01Fxyvcc8s22hX/np5DbKzcIy+RGk3M0Hk2yJXNlQ85aNz48eOJi4sL9p++JPR5rZNHU7/MtbK6YNZC7n2mkdU/MwLg3ftH7u/upru7gCtnGAAvLRuvZtFL7YE027Zxzw1l8stqzAyuXDtO9j8ZnFd3dzczEuR0//nhFr9Muru76X5tEdXvesELo8/PpLu7mxzLOAA8jr9Sp47btpGHdjmg24vh3BmKf/jy8VENK3LLaTkKjEnVKZ+Xloq5PLQ3uDyvtMqhph/k0a3IasaPzsMA4PqIjeoydXer9Bl6xq6j/vFrZUMPYJSB0aq40elVOxuvyeT2bXa8gOFHiykvmIVRAk9TEVk/u5/GiPrgONZdlYoB8DQ9zKUFdUF5PPmr5fz5Y9kYufyeFH9Y3a+WU+sEYkxcsbyACxaXcOcMA+Ch8bHb2dgWyMOv9107WTP/Md7198E67s/bFGiD1cozOjrS3d1N9+orSTUAOHj1vjv5s0pWdbfdI+8JQw53/ElbT33XXno1mUuq6fgPMOYiFv9uNbPiJXA3UnTVpdz/Wugz+u4aEuMBjtB54KOQ8KC+f5tKxm338F6bEuas94edPHkSPiqmsdULKn3rj+tdrwL66ai9hyWq+rbf+x6yKQWOukBYT08P7UVvyQcnYkxcuEjJR4nb+cmTOvl00/3aP/kcwoztb+BwAZg4P12/fD0nddL8kwMnwPjzueQrHNvDuf6/B4NdsKz677Rj+0CckFXk7nSVldizd4rxOPYQck5vW6cyEH6FGNIo1Llnr+H5YpZdYZENGncjRbeVyPFXTmNijHxqsnG9zqGEjiJq3/WA3j4dFY0fyjsBzXPrqHtkGRmqPVJFl8YTGx9Pys21ADx38BMADKl30bxlFTmpgT0+jTdOJTYunglXFMkefZZvPa/sD1c+Bwd1ToB2euT4ai5JkPe0edy+V6MeBqbdnIvVAN4OOw6vvFk9/7lS0rRRI8ZB9eIUbt+uqltXPQV3lGBTR+uVXJKTADzYduqdIa7n1X8cBsB8gXoXXD0LH6ynC5Am3UTNnWl+g3HpRh1ZA87dT6As+AboKPIbNOZJ2h2AweRPUtraeYDn/6INbWRdi5Kvx8mekD1j4XFsz+PKX7+Ow3/FRxf1a5dS8m5wvF6ZPwnzKIBOnE9rAwN4PrGF9H27W9YpjzN0XPj82DGNz6nCg3O/Nnc7nR4lrEUb9jnHQq5E6YOOY8gtrUcj9i5FD5K0fbEXdtnpVIzOSTdpAwUCQW8IY+8U0+napPU6ven24nU7aHm1hDz1HXDxBiSALkfYQwnlTtmQw2AOa9RUP/Un7F5AMpJ8/Sqq3nTjsu+jbmsxyzI1Rwwefo36LgADliuWUbpjH+72Vpp3VLDq+rTgK2EiKF+Zs1P+Q1s+T6d/VqMvRiszdZ1OPWMpgCSBt62a269KYelWeUZOSrqK4o06hywiJGO1b3O/gjGD4pc26x4i0WW+he/EAIxg4tXNNDeFuqUXKrtD483BBzJeWEBRXRcgYTDIPwQenluGvqnnpbNNazDIvPXJPwEwxFm0QUFY4gwAeLvsNGkDAcf7Tvl6oC5HxFffAJBZyOZ7L8Mc4/MwkrHhD2zWuQQ4LLEjZF070tWr3vSlI18dnTjKtX6DTIIiozD4DFtDbBRy9xudozknmscEAoEw9k57Qm6XV06YHjpEZ2dnsP/uUu3T4Ql3z15cPPGWqWReX0S13onR7mNhXvAqDIbwJ0N3LSXl8uVUNtnxKD/9pVgzybNyWfV8A679VaovSjzHgsvzKHnVRpdvks1gxJKazbJHatjX3kCx9vTiQMvXK7dikleh+8TbVs3t1+RR3QGNdy7npVYvIGGZV9iPi6rN5D6zj81LkuUZtb1lLF3fSFc3SAmzKX6thpsu0D6jg89IQcKYZMGi4xLPDf+Krmw6KBtYgLfL0cuM4jGOhZm6bjwafr5Hj2PhElJmmjydvZlbwZhv3My+Z/KxngO4WyhbUkRjFyCZmb2+jpq7I9SKC+Lkme+viPwd7SHjgVs5ZdvLh1tOCXHxYWbmMuM4R+unx4j+SVLq32MCwVmLMPYE0REzou9Llj/rRF6IDcO7m1g6N4UJ8bGkX7eckm2N2N1ykGTKYNXvCwN5dFRTdH06SRNimTp3IUVP1WNzKQaDwUruI1Xk+OIySOUbMB72bJYNPZlGlv7yaWxe5Iuq129mVvADvZL7fB3Fc81IeHHsWE76pQVUPpRF5q3V8iypMY3832kusNXDvxRnp1JnH2jQXtCQi7BzqLpdXr5FmaUsVF+Mq8U/cxZM2qjwxqQeI0aEMRnOGcGICGYI/Syqom69fKH1fz5+k+WXZlLwQglZl+dR3eqFGCNpK2uouUP7oEAPu7zmCzEjtEEySvtEM2suEAhOHcLYO93xfYUi3Es56IDGUu3Tg4fLI+/BMZqDjSsVi33TXv/u7Ht2TcFWt4mixVmkWGJZsE1+SpowTTcPR1MtJSsWkD4pnqmrG+VZJqOFjJmRlS/fFCf/EUX5gnkC30p11HQUcMMzNrmMptk8sS3yOZhN9z9OY1cXLRsXMvXGTf6yO7bnkXJ5EY1dXdhefg5ld2V4nnIgL2THYY48ewBynl9FhlGeES571QFIWG98lkLdJWQD5iT1fX0BLh73HVD2s/WGz5iQjBade/EgLdEoz1IaNcvN4XjqXh7f3UXX3jLu+vndbPIZ4h3V5KVmUtTURdfeSsoe1Tynx/ud/hnOr4KyuRNCxoPYWPlLNad6ddZHWbusSQbTNN0tG/72cfWxzH6sf5L09u8xgeCsRRh7gshYv4eD3cAoK2krdWZ0ElYxe7I872M/EG6f4jJqWl24OtUfOg9Qb1P2YQGQzK9f+iuuTjfNG0Pzc2z0GS4KfZZvJXOm9FW+vjl8RJ5VjDNFZGIE4bj/Bp4+ID9v+MmdbF2sbxCF0FFGVlISmat1LoB7t4SspCQWPqq3s01LNbYO5AMkWat0Z0Bvf/lDOj9x4tpVSrLPM3MzyzKNgBfbC0spuL5E3kspWbnpd/rpmJLvY4bWM2EVaUkS4MXe3HsblO2W9zlimsR1P9GG5pCfouRqMGHVNTi1OCibm0TSpQU6ewBtlChhOhIOpdUjH7AabSTCecUzjx02+UeHaRI5M7WBGdw0RW4f+379nyBxBrkvetzR/OyK45xRAEf4PJrHBAKBMPYEkVJAdZMHkEheUkWF+qBAQjbFv8/lolHAkbepLAk3Em/H1glSjIFpCys0X8CwUpg9TV4mbLdRSQvvffIvpBiwXFrKsqAvG5jJ3pImv2i77NTvovfyfTeL9U//iuRR8sxU+PL1zdsuZUYjtj+veQcFv1KWczEwY/GDqv2JXwaNrNveIh8WuSiXZx/MDjLUrHfXcMs0CWLgYFMJLQBksHn9bMyAt/UlCu53AJUseEyeWZUuyqdC17iezdrSLALmbAbFv8+X28BZz8M6p5+DWF/JW10AZq4oeoRL/AFm8ncUyrOM3QDfwbxA9dyXwS47XUcB4jCdradCd62j9oAXMDNng7ovm8kuLyTDBBxtoVa3r2VjUSbZHa29G/1BzLcQFwN0OznQyylogUAQijD2BBFTNi+PylYvSBayn9xH+/5mmpv20b67gtxJBvA6eX3DPYETvCE4KNjwEnYvSInZVOxup3W3fAq01dlA/mQJvHYqNyzHAdQ8vJlGNxCbxqo3XEp+zeyz76PiCjPgofGJwHdJw5Xv/V2Pc+OFBvA6qF27tJfy9c3b9R/IdyRqT6tGino5d8wMVoWZGTtVONbnUVTXhRcD1hsr2GffJ5/EPeCiYWUaowHP2+u54X75JZ1R/ltmm4BuB6+sXRq4LqR8KZv2yodOkheVhhitXi8kznucvx38m9K+VeROUtp35cIIZtAqufcJ5RBK4rVsObjf3/aFqQa8bZVUtyIfepner5YYAEXsaUe+PHpyhLOzZxwOCn5VRKM70Jf3+frmfAsSHhofzKNIr68lpGE2AtixRWHrmdPMGAE+OkAUjwkEAmHsCaKjnqWpmSzfZqPL48VgsmBJMmM44cHeVMnKnyezaIvyGaxw1Mmncavf7cJzwoAxUT4Faozx0PVuNcsvT2FpnRL34+fIujSPsp12PCckJT8LZoMXT1s9ZTenkxV0z5t++UafOELb2y+w/PKpLHxGb6YhCra/jq0LMEwk7VptYGQ47r+B8r/Jy7nSRflUPaK36+lU4aDsuiQyV1Rjc3nwGszySdx4Ca/bzp+fuo1ZV5bLS3SZpRTOlU1Rx6v3kudrFyWdoluUWUpDGnc9mh9ktDp2LKXiHSee0Sa5fSWd9u0Dx8YsMm8tY2ebB680Vml7OZ0HrllKXpO8789gSYvg27iDy6bdct6mpMVfqrF+WtFRRtZ8pS9jwOzrm84WNt2j7Zsqcq3yrHzbHkr0jMEw5E6SZ9Pb/rZRvlxZIBBEzJAxY8b4Li3vNyaTCaezP92vlGZ3DhbsVMamsGLkSI4fP063cjN2fxk6dCiSJOH1ev23WfeXmJgYhg8fzhdffKEN6hf9l1UwI4WsImawZTXtsXd4+UoTXTuXknR1uFv9eudMlVXpbjc5iWB/cSyX3BOBXi2uoX1tGgZPIwUhJ4BlTk9ZLeNPzlX8SDrApukzWR6F0aLlbOuDhbvc5E8C21NTSV+hNgjzqWkvJM3gofH+CWQFnTYppKEzHysHeHbmZdxz8OyQ1UA42/RqIJwNshIzewJBlDRuqMXmBWNKTt/XnQjOUEqoeucwxExi1sovc2b2a05CMWlJ8tdfNgUZer1j3pCGNQa6/rKJ+z/ShgoEgr4Qxp5AEC0dv2ZTQxeMSmbOhrN2Ee+s58XfvMwBL5jT8sNe9yMIJmftHKwxXmzbA3tt+yaH3861gtdG9crntYECgSAChLEnEPSDyusep9EN1rm/FS/6wWCUlVzlk22b79YGnqZ8tIbVL7XhNWaQK4z+vklYTW66EZz1rFMOAAEwv5S6pmaam3KxjlI/IGNem8vFRnDUrePXA1guFwjOZoSxJxD0izKWbmzEY8xgWXn/v3crUIiRN/hbkixYvkZ2U9Ndq3mpzYt1fuiJZEEwi397LdZhDqq1p7FjlUNCSWYMIV9eyad0vhWpo5p7b+z7DLdAINBHHNDog9N1s6XYmBo5QlaRI2QVOUJWkSNkFTlCVpEjZBU5Q7797W8P2Ng777zz+Pjjj7XeEbCbTw5/j2/wHz4cO46fSBLd3d2cOHFCGzFqfA03UIYOHcrw4cMHJS0GJKtgJCGriBGyihwhq8gRsoocIavIEbKKHCGryBkybty4ARt73/nOd/jnP/+p9Y6AB2k4dA2JtPHi+HTu0QafgfRfVmcfQlaRI2QVOUJWkSNkFTlCVpEjZBU5gyWrr3hm71HePnwdFuw8P3YG9worPWLEL5rIEbKKHCGryBGyihwhq8gRsoocIavIGXry5EkG6np6ekL8InMBO7NHWSfvf1oBp0YbFq0brHR8bjDqd1LIKiqHkFXEDiGriB1CVhE7hKwidghZRewQsorYidO4AoFAIBAIBGcwwtgTCAQCgUAgOIMRxp5AIBAIBALBGYww9gQCgUAgEAjOYISxJxAIBAKBQHAGI4w9gUAgEAgEgjMYYewJBAKBQCAQnMEIY08gEAgEAoHgDEYYewKBQCAQCARnMMLYEwgEAoFAIDiDEcaeQCAQCAQCwRmMMPYEAoFAIBAIzmCEsScQCAQCgUBwBiOMPYFAIBAIBIIzGGHsCQQCgUAgEJzBDDEajT1az2gZN24cn3zyidY7Ah6hqfNaEmnjhbhUlg8fzokTJzh58qQ2YlQMGTKEmJgYuru76ekZWPWGDh3KsGHDOH78uDaoX/RfVsEMF7KKGCGryBGyihwhq8gRsoocIavIEbKKnCHjxo0bWM2Ac889l08//VTrHQEP0nDoGhJp48Xx6dyjDT4D6b+szj6ErCJHyCpyhKwiR8gqcoSsIkfIKnIGS1ZDxowZM2Bjz2Qy4XQ6td4RUEqzOwcLdipjU1gxciTHjx+nu7tbGzEqhg4diiRJeL3eAVv8MTExDB8+nC+++EIb1C/6L6tgRgpZRYyQVeQIWUWOkFXkCFlFjpBV5AhZRY7YsycQCAQCgUBwBiOMPYFAIBAIBIIzGGHsCQQCgUAgEJzBCGNPIBAIBAKB4AxGGHsCgUAgEAgEZzCnibEXxxy3m0OHGnhEGyQQCAQCgUAg6DdfsbG3lJTYWGJjX6FTGyQQCAQCgUAgGDBfsbEnEAgEAoFAIDiVCGNPIBAIBAKB4AxGGHuDxeIa2t1u3H24/fv343Y3U6p9/mzDJ6/2GvK1YV8KZvKfaabdFWgb15vF2kinERkUv9pKe2egvK1bciAhm8Id+9j8gDb+V0f+jnYOHz7M+9vytEFfDV+5rgkEAsFXizD2BGcnq59l1VwLBgk8Tjv2Vjs22x5trNOG7C2PkTvdiAEvXW1yeffYKil9roL8VDPfGqZ9QiAQCAQCGWHsDTp2KmNjiQ3jpkyZQmxsCku1jwm+VPKnmJEA794SJkxJISU1hcw7q7XRThvSLEYAHK9eTdJ0ubwLHwJitDEFAoFAIAhGGHuCs5pjxz7Xep3WeI82ar0EAoFAIOgVYeydFljJfaSGZrsrsL/P1U7rmxXkTtZEVfYfHdr1ODc+3hTYw9XeTMV8TVwdrIsqaDjQjkt57vCnh3h/1xZ+c6VJGxUA66JSana341LtbXN3umjfXUXhPLM2OqjyiDQ+8wqp2h0ok7tTrvvVF2gj9oaZ7JWbdfN9IEtVt43NuN1uClMNABhSCxX59b6fy7cPreFhE/PWvBjcVu2tNJTnEqZ2+ky+kQe3NdDuVKXjduOyN1O1NtufVv4OuT45ifL/Ldcqcf/xP7Sr/BPm7sftdtO+Q10LM9lrqwZJr3TS6qtdIaysrNqIAJNzKd2h2UfZ3srOx2/kQm1chah1TU1CPjV25Tl7DfkJPv9sCrcGl8Ptaqd5ayHZvjgCgUDwNUIYe185GZQ21VF8fRqWWEnZP+bAM8yAcXI2xa81U5qpfQY47zJWX5XIiM/s2Nu68OLh4DZtpGAyNjZTtyEba7wBPA7srXacRyRGn38Jt5a9Ts2S4BekHD+HtEQD/FuOL+clYUjMIH9jlaZsJvJe2E+DkofXJe8t6/L64v+BimvV8YFR01j1RD4ZCSPwdPjSl+u+oqyiVwMsgJn87XVU3D1bN9+8R3ewPV8x+BxymMOtPOpW6tXqiOiux7iLd1B6yywsIzzycy4vGIxY5xfTsD2y0pJZStMf13PNjxMxxBzD0aqU9yhIsRYyFj9G1cYMADrbA2GAv272T/4Z5P+fzg7Zv91XCzP5OxqoWJwh65VPJt3906ucLXVyWobAHkeHR2nXJxtCdAdg9I+W87swsqrRyiqzlObXislJtWAY5pFl4vQgGYxMumo9O958EFkiPszkb2+NTteCyKD0xVWkxQLuRgouzaKsAyCHzX+sIH+WBQNKOZT+aJmVT8UbKqMQIG+7cjCrnZrFKn+BQCA4jRDG3ldM/vYKcpIk8Nqpvnmqsn9sKhOm57HpgBckCzmP6cw6SRL87VFSklJImZ5E/IRMSrRx1CyuoeJaCxIeWjYuIN4ylZTUFH408UfcX+vEG2MkbeWzFPpnNwq5b54FCS/2FwLxU6YnEX9pES0eQLIwZ7GqZMvKWX7xWMBD4/p04ifJe8uSTAsoe9cDkpnsZRWkBZ6AGAnJ00jRpfHyXrTpScQvrMbRDZwzjey16sj6pD1SxaqZRp180yna1QUxY0m99wVKZwIPLSQlNYVNrR4APK2b5HpdsZRIduyNPncsx5rWkW5Kkp+bFM+CbQ4ADKnZFGofCMFM4YqrSJTA+8GLLIifwNRUVXl3ewAJyxX55APVd2aSkprCn1zy045dctyUn/6UTJX/J7uvDNp3mPZIFatSDeB1UHvPVCao22KvR9arR6rIUZUMwulVIbmXGgEHtQvj/Xscp1qmUtDkAQykLbwvuF2VtDwRySqfmsdysEjgbasmb7oikykTmHrzJg4cBWniNVSoDcS7K8K0eS+65ieV0qbN5CRK4LGx6XafoQeszWV2POCsVbXNVCZML6DRA8SmkbtSP1WBQCA4XRHG3qBjIce39KPj9r+lnq0qJDvVAHhp2biAvO3yixCAjmqW/6qMlqPyCyZ7g3bm5AgtO9ajeqIXzBRfnYYB8DQ9TObqelWYk2dvuZ/6jwHJymzfiyxnGuZuL3S9RdkSdXzg3RKebu4CwBBnUTzNrL/iIiSga2cBWQ/ZVA/UU7CmHkc3eI1Wsi9SBeGl5cksSt5VedXlUdsq/2meFGLmasgmP9OCBDh25GnytVEy73Ze/xiQEvnZ4hDTJnqO/o2yXzxCUO0W12LrBmLMWPuc3clhWjx4u7t4u/wegiVro2TzHroADHH4JBs9OX6Z2LcvZeEzai2pp+CWTbJeGS8m525VEOjr1WIr5hjA42RPnTrAQdkjjTgA72gzF6uDiEJWa7PlGbajLZRdk0e1z/ACHNuXc2PFXryKgVicgKzPs5P7oWsAZn755Dr/D6zKW9NZrqpT/iS5n3mce4LbpqOMh3c5oNvLOeNUNa2Yx4TYWGJjJ5BVrn5AIBAITh+GTJ48uUfrGS3f/OY3+fe//631joJf8/L+LBLooGbqPH7TM7AiDRkyhKFDh3Ly5El6BiGtYcOG0d3drQ0KJqeCt+6axre0/lr+vY+StFyeA7h1M39dZOUb/2fj6RkLKdPGBX755FssS/4WHHyOKQtKVPlEI6tlvLj3l3x/2L/Y8+jF5G0OhPhkdWnJGxRdHAsf1DDlqt+oH9Zn9cvsn5sAH9Uw5Re/AfLZ/PZNWP/rX+x5+GLyKrUPaFDXY8qVaHP01ftfLSVcfPNzmlAV0x+itvynjOMT3lw8m7t3ayOAqehVdlweD+4m7pu1hNejSV/B3w4f7mDqVb/R6NUvqXhrGdO+FWHde9UrVV9QyeXXf9hP1nehY8cUrlytiq34O15LI2uV0gev2MjOtanE8gmv/3w2930ciO9jWdV+fjkR/rV7Axcv3tqHXvn0B/71wZtsfXEbNS/v4RNVDDXRyip/y1+5adI3+M+Bp/nv60N7wZAh11PxlztJ/hb8o3IK1zzcT1371x627h7HLzLG8Y0Tn/D6XbO57y+auHe9yP6c7wP/ouPPW9lSVUNNi35NY2JiOHHixKCMMV/6eBUhAx/bZYSsIkfIKnKErCJnyJgxYwZWM8BkMuF0OrXeUVBKsztnADMZXw72F2JJWaL1VVhcQ/vaNAzYqezlapUgWW1sxn2tBTqqmXpRnv4snS+Os5asKQtp9OVz5G1WJ17JxkgUan4VreUZGPHS1epAe/50yNAh9HzLhCVeAk8jBROygg3PhDRmJydzcfpE4uItWCaYMRsNSDFAWyWx05cCpex255BIG5Wx08PW34+vHnr5KQcTClMNeJoKmDBXG6qij3QARt7+R/7n1zMwHG2hxJRJUTTpK/jiH3lnDd+b+xgnT55Uh1LTXkiawUPj/ZHN8MTExDB8+Pe46GeTSE7JYKIxDssFEzGbjBgklCt8AnpUuls+jKHVQZ9/x44pXHSjoldrG3AvtkK3B0dbJ95AdD+S0YI5VtV+fehV/tZWCmfJ178A0O2hq83GW29UU1lZSaNqNi5aWfnq4Ng2lamLQ3tBTEwMj77dyTXng2NHFlNvzFbGi977mh9/31QTrq3yqWotJENVVTxd2A+8Re32Siq3yDOZACNHjuT48eMDHtSHDh2KJEl4vV6NrKJH1qvhfPHFF9qgfjHwsV1GyCpyhKwiR8gqcsQy7ulA9zF9Q0+NwaB/gjESYkcgASBhTLJg0bjEiYmyoafBPK+YugMu3Htr2Fy+itz52cxOtWIxjuDYUY0JsdiM+v14WjLKcHqUMSGb9X88wIcfvUPNMxWsWpRN9tw0rIlGRvzbo2ucRYVhhPxvjAGzTntbkhRDLwrKrs4k76FabC55ryMxBoxJaWTfIZ/WbtgQfHyiP3i7++wFnBNrhcVm4rQBEePhk87/yPsMb9fZs0gZCy7Po+RVG11KVTEYsaRms+yRGva1N1Csd7BFIBAITmNOM2OvjRfi4kIuIo7WjR07lvHjxzN27NiQsGhdXFwc48ePJza2l1m9gRIzou9rOz7rpFbrFyn+Hz2hFz6HyMo3O5ZZStXGXJLjJTjahb2pluqnisi7MYupcfFMeFXzYi53yHvNTmc8ndi1fl86GZS++Bg3/rcRCS9drY3UbttE0eKFZF0US7zllb4N/77wtbenkQIdnQ5y0/ucF1NwUL1+IemTJhB7URYL12yi/t0uvN2y4Wdd9BhVvZ5+7Rspps9ewOeuWiiP7OR0KB4a12cxe/2b8gEgYwbLynWM1I5qiq5PJ2lCLFPnLqToqXpsLsUEN1jJ1TvYIhAIBKcxp5mxd5bhUmZxjOawL498kzKH8e/O/hsBT/lejnGY+zxAIJO/eA4WSTmVaEoiZe5C8laUUL1DXsbKjdfOrXg41o2cxyJNEADZVLW6cTlbqblDGzYAWj3ysrTBxLSZ2kAZ04XnyUt43mP9NBIGkcX5zEmUACevL/oeSalZLPz/2Xv/+KiKc/H/DYR7uF/uZf2Yy8YGzTaxWRqvSSEaLtGsl7SkpoIXKhFRc8WaYsSAaLRRGqU2EqERggEjjTYoGjRgsKFGGxtsKBu6ucQGXbykbGriRty6y91+WFo+Za+RfP+Ys5uzZ3eTzS+Iet6v17wIM2fnzDzzzJznzDwzZ2UR5XsaxFLoipHMWskcc+JB3uQxFufCdZtpeLqIZd9JIta3SxU9xvnD26Xq8ghD6pKEcL1gJXHylKzHbR++rnmsNG2ywu9+TPl+8WpiWFQidmmHwd7SQPkjy8hMjiX1cbOQq95I1gC/0dDQ0BhvaMbehWTDYY73AlNTMK0NMasRX8yNs4Wnke1otTp1CNRh7QbQMWdxcchZxAcaTuB2OnAcqCANMMaI+wbtSgQgi+sSAj2goJqj3QDTmDk/xEN73o0Y9SBNPYV9nzpxBBx4A5sLwEDyHSFmacjisTnijD2PzRzR8SpjyhUxwvD09PBusGDJSo9T+ZYNg+cPYjsDYMT0WCiZmKh6143b4aBj92C7nSFtm0Ucqt1aEaw73ZXYRzilW9p2HAApyURxCOM07uGFXD0NwIa1GqDar8/D1bWa258RRqpk5ObHS+R6pVHR4sDhdGPZFlRT7NuGO6OooaGhcWHRjL0LyjrqWsS5ammra6lSnvofn0PZC3mkTRXLcTXlw57XA8w8ubcNLyBdnceLT/V/oQHgyvt3U/BvEkTB8ZZy2gC7W8y26JKzAg+RJYXCfVUsDPrghp0HXhdHZOjnl1D/kMLDMD6Hqo1ZGADvuw2UK5z5R04dlY02vIBhUVXgfUmhcPdWvn0Z0NtD0/bBN2KMOXZ5NleXzLdXBgox5aF6qhYFGxkDYXMKx7JpF31PEVvO5v1CXwzZW6kNkImBnO1l3BgPSB7e3ze4TNosdjwSkHgjFQF5gWHJTkyJAC5s+4f5KbdH6zC7galpFLxaFfCVCsOSMnbkiSN9PC01su7YWVMn9Hn4ulbJmuflPpGcS8VqA9BGm92DFAXG6ysoDPjKiIGcl0xiE5nLRtMBZZqGhobG+EYz9i4wlUvyqekQhyfnPNdO1xELlpZ2ulqryEuWD8Vdv6b/0NdhYt+QT2mj+DpFyl1VtNvasbRYOPT+CRofulY+g6+UOx8VRkL5tjeEX5PORElrF+0tFiytHXQ5mynOmILrqF1e0jL0nxtYvpKyppN40WFa24zjqAVLi4WO31WRkyiB20zpPaXDX44Og/mBZeLwZPV9e5opnq9H4jTvVq0lP+CMuAvEps28Ic9KXVv8e7m9LXR0uWlea2KKw4rdQ8RL7lan2FsdnbGW9hYLjVtyAGi662Gqj3pA0pOlkEm7rZ2qpb7Dsu9j2SuqDEPxysM84zs8eW0zDll3LEe6aH9uIQbA0/IMD0eSV0gqWXxfDTYvSIk5VPn07UgX7c/lkawD70e/pvT+yn7d2dSvz8PVNfuGUl7r8Ip6ra6gAKh59BlheEabKH7b4W+fdls7VQsMwu/v2Yfxn/aifUFDQ0PjC4Bm7F1wmliTkU3RHisujxddnBFjkgHd5x5sLTUU3ZCqOhR3uNipvD2J7EfqsDo8eHUGsTMzVsL7l072//weMhcpHqaN+Xx/rbjWv6szXgfdZmoeySZpXoNsDM7E5HfM76HqB7NZvkHs2pRixc5PfZQHe0sl+f5PUo02diqXZJO/vQmb29t/X8mD670Gtq7KZkHJfvWPLhBN5N9cxOvvuTjdi9zeRnS9NswvFZGdnElDD2KJcl6IJUoV5g2V1HV4YNI/Y0gykpbm85tromheZpBMDDovHoeVukeySVcflh0WO5WLFHlFy7oTp8PrttG0PT9Qd4ZD4xrSbyii7j0Xns9lfZPzb6lZy6KMFVQH6I7Q55Hpmpk165tEuaNNrNqVC92VLL4+n8r9NjyfS/72Mei8eDqbqLw7k8XbRlRTDQ0NjfPOODtnr5NXYjJYrZ2ZMyja+UKRo8kqcjRZRY4mq8jRZBU5mqwiR5NV5GgzexoaGhoaGhoaX2I0Y09DQ0NDQ0ND40uMZuxpaGhoaGhoaHyJ0Yw9DQ0NDQ0NDY0vMZqxp6GhoaGhoaHxJeYCG3sVWNxu3O4bR/6JKA0NDQ0NDQ0NjSAusLHnw8kb0dFcemkmD6iTNDQ0NDQ0NDQ0hs04MfY0NDQ0NDQ0NDTGggkzZswY8aHKX/va1/jzn/+sjo6Ap2g+cSuJdPLqpZn8SJ38JWT4svrqockqcjRZRY4mq8jRZBU5mqwiR5NV5IyWrCbo9foRG3szZszgk08+UUdHwBZanLeRKH85o2jyZD7//PMRn2ANMHnyZHp7e+nrG1n1Jk6cyKRJk/jss8/UScMiYlnNuost6+5iwaw4dFMlEdfrxXvaydHW13nxyU3s/fCLLKvAtg+1fB+xrMIx6y62V9zFRbszuf3nPlkNft+BuDCyGpzhyGpLi5PbEqHz1Rgy7hdxk8dRH4z7/loe/8FNmK6MYVpAH+ih7a1dbHlmOy2DfhItmOHIKhRDl1V43Qslq1DtMxjjQa9CMXRZhSeUrIaDJqvI0WQVOeNVVhf4c2m+z6TZqIlO5xHt0ycAGFbX0/ioCX2UOkWBt5NXfpjB6re+qLIKbPs16uQIZRWePOptZZiiPRz66b9y07M+vRr8vuG4cLIanOHIqqLVTW4i2F6JJn21iBsfnx9KoXD3izw034AE0Ovh5Ecu/u9nfaCLwRirE5d57TQ8+v0hfzt6OLIKxdBlFVr3wskqVPsMxnjQq1AMXVahCSer4aDJKnI0WUXOeJWV5rM33phXQe1aYeh5HW3UPLGMzOhooqOjif7OMkpfasPuBaREbtu8i1z17zVkpkBIY3kN6dHRRA/R0Psysmau0KtIDYnzg4GCffUUzzcg9Xqw7Sli/gwjs+dlkp6RTnpyAtHfKaKuwwOSgYVPNVO/2qDOZJyi6Z6GhsaFQTP2xhmmO0wYJcBjpvQ/slnzdBNWX+J7TZQ/kE3qQ02cBNDPJ299wM81NL7QGNa/SHGGDvBgXp9J+spqjqoveq+a/IzFlLZ6AB2mH1VRHK++SENDQ0PDh2bsjTNSoi8Sf7jsVIbzR3rlYQ59JPyXdHGqub1ZeVTss9DV48DtdvuDw2ahdn0OAXMgK+v508mTnDjwFHE3/ZT6I104nPJvHF1YXiokBSC7hNpWVdr2vIC8CvZ14XQ6ad4cR876etq7+u/ddbSZqhUpiqsHIT6Hkt0WDv7Xkf7yd3XQvD1PlGcwtllwu0sw6QB0XPuTEzidTizbUJztaKHC/wM5rquegll5VLUo6ursouPNMnLigfg8nnnrCH/680l/Wvu+ErIUt/YzK4+qdzrocgzSBgNQsK9LyG9fgToJKKC+y43b3UX9SkW0LDvlfd2OLiy7S0QdFFS0inQhF8FTB07gdNqoX5lC3vZmOhTt6LBZqH08ZG1JWVFF81FRXrfbzckTf6K54k6Stx4Sca390g5PLj9bkoIEuPavY/G2gZZnrZSvqqbtDDA1jSVrTf4UUa8uuQ6Bsug62sgj2TMAQ1D9uo7UU5IdcBOBr08p27Krg8aKO0lWXeprM8t2oUf+vFuryAmpe8NggD6+q+Qm4uTLcnZ1iLQDJaoMoPht+bcdteSo0nx1cLxdrErR0ND4oqIZe+MMq/uU+CN25gCzFXZWZVxKzIw4Uu+o6Y/OrsDyVhm5GUZ0UWexd9iwddhwnQEp2kjWyq3UbgvxsNbP59eV92KKhU87bdgcXpB0GBcUs3tfLZYdBWTFq9KWlvHLHcF5XXTVTrauNGGY4sLWYcPuBl1sCjkbG7GEurea+ALq366iYL6Rf570V1ydNmydLpiqJ2VpGY0tFaGNKyV2G7YOOx7ZjeP0R510/rET20C2A0BUCqveKiMncQqebhu2Hg9E6dDPzWPrC7W83riRxVdMw6tIM2QUsPPt4kADTm6HnFl6dHhEO/R45DaoonFvgf+BPLrksvNXQnb++3bY8UzSYZxfQNXb9RSE1SklU5h5bz1lS1PQ99r97ShFG8lavRPLln7DCiBrYzP1G3NIidWBW1zv6tWRuGQ9v74pUtMWWJnDHD2Ai/f3KvQ6HN2lvHHEA4DBVKAyWqaQcl8jZUuNTHH364MuNo1bfrqJ2n3NlC1NQXdGkRZnouC5xsB+p+xTkxRtqdNz5ZL1vPm7LSH10bDoCXKSpgj9dXjBfZw69UXDYZA+Pj//aXZu/jYAda3H8QDEpRD4upBHWry84UVvwBSgEzmYjMIn8nhbKSiMP3dXvSofDQ2NLwqasTdWxCve7J0O2nfLs2SDYH6iAatXzFYUHurAsq+CwkWmCGaDDJQ8cjNGCbydNSyLTSA1I530jHSS4jLlJS8J44KC4AF72nT0p82smyv/JjmWNftdAOgzsjD+LTBt2T5hNRnS84JmBaZ/IxE668i/Non0jHRSjakU7bPjRcK4pISKeaofBGCi4uViTNHg7W5g4/evI2luOulzk4hdXkmbG6SkXLbuGsRTcdNy0jOqsZ4B8HB0ZyYZ/57B8k3qC1VM1aHHRs3yWHHf2QmkPi8W0aXkLExTbby64nL+9ZprRdqmNryANGs+ef5MCqjfmotRAs+7lf3tMDuB1B81YPeCfl4xO0rGwNxbn8fCWKCnQdH+qSTMXYfZA0SbyFPMgIVHQh87BduefFKNqf52XNci61C2wrCKL+HHd6Sgwxtw/b9+/Vaq2k8jSbJREQGGlDh0AJ7jmPeoU0NT2WrDi2y0BKRI6PRge2UZsck+OVRj7QX+4ZtkZUxRpZX7Zwnn+xuzvy29nXXk+/rA7ARS767mgzMgffM2qvYG9SgkCdo2pQs9So4lYUG5+pJhEFkfT/xevujj26zYewHdTExLFdnMu4646P48Zy5TpMWbMOgBbFirFfEaGhpfaDRjb0wwUPzzJ8hJkncNRkkY5hfz4nMRPGi713Hno8IoQNJjzMileEc97U4HXUctNO4uozA7lNmYy5xY8Pa6OLh1DU0BaVbKdx7GBWI3Y0AagJe2524KWDau2S/PCuCl7YXFAWlNLx3FTqgHLND7ATW35lPnv95O9V0P09QDSEa+u0JtHiq4rYDvJknQa+O1h5az+2NFWuM68l8QxpXelEuhImk0sTcUsaZR8f9HrNjkv3vefoQfKQRr32AWBmWUgRR5KdWwMQdTtPC53Hz9uoB2sO9YzsONdkAi+btruVaRNhoUJItXAk/P4cD2765k8wE79Hq5aMZ1ypTwdL9B0co60c4A2KncJeuQot1z1t9MigR0vqa6fj9P3PeiMKAiZGGs7MLg8fT7qQ7G/5zlLAAxGJTL2ch1WK2QRHcR1k75754mVVop5g4vAIZk2XhbL7flmTYqA3Qa7HuLuPv5P+AFdBk5lKlnTD2HeWPDYFPJQyXCPj5NL/fxaqzdAHoMJsXr4vw4DIDL5QIkDFcq+mReivhtj81f38pFCWKDWMJiKvuv1NDQ+AKhGXtjQi6mpOAZDUNqLjPUkSGw71hO6rWLWfeSGZtDmFxESehijaTNz6N4VzMfWnbz+PeVs0OlZBtjiY1JYtkrimgfe5zIC8Qh6MG2WRX1vB0nAHaOb1ClHTglZlNC4LX+lqIgX8MmfnFEPPj0M7PCzlLmLPgWeoCPrZQfUKeCfcNhjvcCU41ct0KdOhp46DliVsXZcHpEmr1NnXaKs6od/3lzhSHuOdoU8sHY1GgTD+T4ZBarE0dI5VEhY13Gg1heKiY3o1/S5rtSiY6JJWGBWJobDI/9MOraBuuQiRuv0ANgP1IefP1HZTTIy6xDwnsqOK9w+PU0GM8n1qB8bG5RHk9PcP1OnRVmo4/itJkAeDvMlAbpNPRseos2j1j+T+uf2hU47CHbf2QM3scDpW2n7pjQCWOyYu452QB4OC6/0Cn7pK/OrmNvBMlHQ0Pji4tm7I1Xus1UPrBYHDURncmyR8qp2d+G3S3MLOmya1lZ8QoVoRzKMWBalEPhxiqqdtTT3NpBlyM3xIyezGmXf/ZqpDgdh9RRAJg7XcJAvDiGhepEmZQZwnBgWhq1LRZef+11LC0WRVgoP5R0xISa3BwxTuzb1XFDIQdjjPhrSkKuquxyuO9bYqkSPXGjbbA+WkeTmL7FuKCQin3tuLs6sOyroviOSFwB+nE6IlnDS0En1l3psYaexXr243Cm2ABETYm8rEtjkOcDg3D2jMzc0uvEC9unXeH8B6voEd4O6GID57g97tHqUeEI3ccTVVeZfS8Xfr892Sev1451tbzMe5lRdkMoIC1REoZg66h4GGpoaIwTNGNvTKjxLwkpsbfXMLxzsK00PV/KmluySTXGkrm6hg9Oi7P2ctdX9S+lxudQ9mYHDmc79TuqKF6RQ84iEymJeqb8zRN2Nm408Z4JbexxyrfcFh7dFPmPaAPGJCPx34jHmGRUBAO6kGfnjRdimCJP6EqxynIrg14cFDwmVLLshnzK37Ti8k3x6PQYM3Io3FJPe1czZSFfDoaLkRjZU2E08G9OGuCFIIjLL5KN51M4Fcvvo4m3N7Qhq+Si6DF5+whmqH18j5njHqXfnuyT5+ihiWpsHyvcEJaamKlDGIKKHdoaGhpffDRjb0ywU3rPY+LgV8QRKfb9pdx59yALI3fspN3hxu1up0rtA6TA+soa7t71gRjYLzPKuwGzqHh1K3lz9Uh4cXWYadhTTenK5Sy+OppY4xsKf6qxQ4oKs/Hgoin4bLmwyEuinpZ1REdHM3v2bOErFCKMr4OAfZz118H2SnCZlSEmxsgtz6t/Pwp011F6RyZJCdGkLlpO6fNNWB2yCaBLIW9L7SgexO1b4h4dzPvlWSj1hoIByJ0lf2XDZaMpxFLraCBFDT7PeMrRoI4aAwbv48Hn7FfS1unt99tbOxODfxnbTtNxF6AjLs2EwWQQbhTdViKZ19XQ0PjioBl7Y0V3NfkZsmNzTCypt5QP7nT+0im8EoABY/7AD5gel0fMlEVNETMbKwu4MVEC7DQsjyUpYzHLVxZRvqcBczewwoC8wjimXPS176mjADAlyjNaA/gyWWXLQRdjjHwZb1xRjV1e1ouJC96hOboMPqtmb2mg/JFlZCbHkvq4Wfhz6Y1kDbgjeihY8XgQxkJK6Ba797IhaN0rDbwvdoAw5/YI5BdfTG667DNorhydo00UuDzCSL4kIZx5nE+c7HngcZ+HV6kI+rhcnABK246D7LeXd7URCbAfFb2w7gM7XsCQkEVesnD0sB9TbrTR0ND4MqAZe+OKcszy5wJSbqqgcJY63YeB/KxkYeT12MRD7ooY+diKHg6HWM7KSpePtRhjpn3rhhA7ZbP44WxhDNiPhX8kV1vkYzQSTaEPt51XRbvbjaOng1r1zstxgs8hXjf7xtDnJD7UiMPtpqdrP0+lqhMD8W3+0OlCGEwPiRmaflKoaHHgcLqxbAs2vOzbwm9kGD5m3jgmrFvD7MLgndnc6j+zLTJqePglseNal/HgIJ9BS6Hw6TzSpordsns3DDJrPgx8RpKUZArZlnEP3UCajvN3TMlw+3i1vKM8zkRugg6wY/OVd8NxYdjF3czNCQAubI2jL0sNDY0Li2bsjSvsFG1sEINvtInitzpofqmYPP9RKylkrShmZ0szj10zDfBifXOd2DVnl/11dClkqR6SKQ/VU7VooAfnKDL1KlbtU54paKBg91YWxkXwUN60WRzRgoGsp2r54RWKtPgcqjbeiAGQzrxPw6AbKRpw/gVAhy5WnTZ2mDfs9Z/XlveC/OUNH7MKqb87TcxwdrewrV2RFoLqd2XjN2khVUsU7afMx4+VNrsHKQqM16tfFAzkvGQSG3RcNppC7HQeLnWPvibOhUy8mbLtyq+DJHPfnseYH2qqaQDsG/IpbfEAOkyPN2PZnhf0lQpm5VHVUt//WbWn8kPulh0xj9Zhdou2LHi1KqAtDUvKeO6uq5AAT0sN5WNxfzXD7ePdddh6xO9S4tRL3r40PfqpDOmMQw0NjS8OmrE33mhczp0bzLh6xTl7KQsKKdvVLH8SqZnajYUsTNIBXnp+9Th3PiovuGzazBvdyA/JdrqOiN2fHV1umteamOKwYvcQ+jyy0cTrRZdRTHNPB5YWC+22dkrm66HXFcFDuYnla6uxekCKzaLgpf+io9WCpaVdfG4qUQKvjZoHlhFuf2Q/do47xTLclXccoeV3Lex8SH3NGNBdSv5TTbi8oEvOo6q1i/YWC5bWDhxviwOjcZvZ8MPHQ/hXqdhQw0GXcKDPedYiZOHL559s2ByBl9c8+owwTqJNFL/t8OtAu62dqgUGYRg9+3AEshsC3et4cq9NHJq9tIp2WzuWFgv//dFvKbpmGl7ZXdDjjHR3qp3KRZnyQdziSy37P7Fx5ECz2M18tAv3O2XiDEuvnYYfZQ7yWbWRUMni+2qweUFKzOlvyyNdtD+Xx5XTwNv9JqX3V56fZc8I+nhPyD7ePwML4O05qljyNnNY/EikdbYFuVloX9DQ0Pjioxl74xDrpsUkXb+G6v02XB4vXuVZbl4Prvca2Loqk7QVOxQPmSbyby6i7j2X/OknsftT12vD/FIR2cmZNPQA6Jg5L5wP0sg5/YcKivbY8ETpMSYZMei8eDqbqLw3O7KHcmMRmd/Jp3K/jb9+/g/oE+VduJ97cL1XR9EN6QGHHg9E+bZfYO7xgjSdxG8mYkpXH4Y2Nti3LSPpBrktPtdhSDJiTNQjfe7Btr+S/OsXs31Ao9dHDctuKKK61Y4HScgiXsfZzgZK70rnsPrA4u5KFl8vZOf5XPLrgL8N7h4bw6hpdTrZj9RhdXj8O6n1vS4+2PsoT7YNZweHneq7UklftI6aFhse7xSmfyNR7GbWT8HjsGF+aR2Lr01l+Y7Rr08AjWtIV7dlnA6v28ahVx5lwdy7qI6oLUeDwfv4mx8DTAvq4/5PpwH2Y4FnLfrOZ0TxiTQNDY0vFxP+5V/+pU8dOVQuu+wyPv5Y+bmDSHmaQydvx4iNXdOv5WFJore3l88//1x94ZCRJAmvb1phBEycOJHJkyePSl6MSFaBSONMVvf+8k/8NEPH6d8/weWLtqqTh8WXVVZ8hfQqr/a/+WmGDs+BR/jGzcNzbPuqyGo06qfJKnI0WUWOJqvIGa+ymjBjxowRG3uXXHIJn376qTo6Ap6i+cStJNLJq5dm8iN18peQ4ctqfJO/5xiPXTON079/giuWVqmTh8WXVVZjwYWSVf6eIxR9axrO5ge55p56Veq1PG/Zzfcugw+ev5Tsn6qSLxAXSlZfRDRZRY4mq8jRZBU5oyUrbWZvEMarlT7e3mi0mb2h8WXRq7gNv+UPP0wGTxtP5tzAlvf8Kdzy81o2L0lE8h7lWdO3+ckwlzu/LLIaCE2vIkeTVeRosoqcL7usJp47d46Rhr6+vqC4yEK/ndl37pz4d9h59Qcl6rShhtHKxxdGo37nxqGslG8M6rThhtGo37lxKCtlXur44YbRqN+5Ycjqo4dfE59o06Xx41+f4L9/f4hDBw/xh+N/4JkliUh4MG9YzmMfBv820vBlkVW4oESdNtQwWvn4wmjU75wmqyEFNFlFHNBkFXHQNmhoaGiMAMUn2s4gb6gxEjfNy+k//ZZn8789JptCNDQ0NDQiRzP2NEaFykUJxMTEjJq/nsYXCP8n2mL9n4Ob/rVLuWLeHfzk9UEPmNHQ0NDQGGMusLE3l68D8HXmqpM0NDQ0NDQ0NDRGzAU29lr5CICPaFUnaWhoaGhoaGhojJgLbOxpaGhoaGhoaGiMJZqxp6GhoaGhoaHxJUYz9r5qzMqjqsVC7Vh+H3cAUlZUYWmt1b6xGSnxOZTsa6dxizpBA7KoaHXg7mmkOF6O2maJ+DuuFa1ucW1rhToJMFB2QKR37Brs84IG+fux7ezMVqdFShz3/vJPuN0WQpVGiWlHO263m+b16pQstrT0cOL4vn55nAcMq+vpcruxbFOnAPMqsDjdHNuTT5w6zffdXWc7VcOW20j5NlXvhteXC18+DY3RQTP2vlLkUb+njJykGKaok84HK+qp35iDUX9B7v6FpOLlKgoyDOii1Ckapi0l3JwoYdtXSukwD2wOy20/48Zk8afelEuhOl3JygoezNDhaalmeYTfbQ4kjsUVO/lxhk6dEAIDOVcYoNeK+dHAFNOWEpYkSnQ2lI2+PMJgWFJF7VoTYUt+YA2V+11Mu2YNWwqCzb3K+2uwfm4gZ30VWerEMSeZ+/Y8Q84AhvGFLZ+GxuihGXtfKabAhTQaLuS9v6hoMgtNfAkltxiRXE1UrjarU0dM4e3XoQc8bi9MTePGjQb1JTK3UXufCV2vlbr7K9WJEZDCA7W/Fl8aUSeFJI+UeKDbSsCXhv3y2M9zDx5SpowZKQ/V0rgtB+MgBa95tIY/nJlGxj0bCJoj7V7Hk412iL+RH68PJ+MxID6HDe/speiaaeqUQC5U+TQ0RhnN2NPQ0PjCkbv+ZlIksO57mBp14kiJL+PGqyU408Yzjx/EBaQs+lmwoQLEldzFdXpwHaimaEizaQZMq6uwdDXz4+/oIzT0gLVzmBkF9mN1KI+q9snj6K/W8qoifiwwZBRQ1dJF89os9JEUvLuU2sMnQT+fgm0mdSpNT+zH2iuRcltFyKXU0SWF3I31tB+q4q4rw85HBnB+y6ehMTZoxt5XhW0W3O4STDoAHab1wh/p0Oh8xnZQKlrduNfLyz06EyVud0T+SeEQ/lZd1K9MIW+7hS6H7H/ldNDVWkvJklBv4QZy1u6k+WgXDqd8vduN29FFxztV5M0KvNp/j8dLqD/i4OTJk5z46EP+9MsH+i+alUfVOx3993e7cdgs1K7PQV0CZZnvemY/R46dCPzN44qFopXCDyo3UfzXeJu4rmvfEB83cj6h/dIixFdHhczC1TE0Bgr2dtB1oCzEUlgKhfs66Hp3Z5D8wxJfQl6mXixlPjL6X+cwrZ1PShS4LDWUv1LJwW5Afx25D6mvvJUN309GwsX7e4dqchZS9ngORh3gsVH/WD029SUhKJhrRMKFrVExm6mQR0tx4CHWw+snA1O4qYScJB30erDtKaKuU31FMK8+f4gewDi/INho7i7ijXe9oDORE3YGdZRYWULJChMGCbwft1D1/CE86mvUnM/yaWiMEZqx91XBbsPWYcfTK/7r6bZh67BhG/BZWUB9l8IoGjBYGGgPgd1mw9YtD6u9Huwd4v4D3j4C4pbXU7bUiO6sHVuHDZdXQpeYRcGzjdSvVg7McRTsbaTqoYWkxOo465Lr3+MBSYd+Vg5le+opCPLf0THn7gJMsWfp6bDRcxo8rndFUnYFlrfKyJmlR4dcpx4PUrSRrJVVNO4tCGEMTWHmvfVsuDmZ6b09QgZuxG9W78SyRZ75cMv1OSP+63XI5e1yBuQ21hhW19PxtlxHr0uUweGV67iVXz4X9OgO5o6fsWqeHl1yHjvf3UmeT8bxOVS1NFKcoUc3LQbDJarfhcGQbyJFAjrMrFMnjphCirMNgIv399UAZp7cbwUk0haWBbbnLd8jRQ+43qdujzIhQs7YaXupiG9/41pWvfB3dWoIcjAZdeA5jllxP6U8HlderiDyfhIBvV7srTUUXZ9A+spqzqrTQ3HwVY5+HM5ohvIWK14gZf6PCZ77G128bhsNm/LJuHoJTzjUqaE5n+XT0BgLNGPvq8Km5aRnVGM9A+DBWp1OekY6P9isvnBsKL8jnfRqq3iLPmOlOiOd9IzllKsvHBI6DIk6PC2lZCakkp6RTlLcMirf9UCUHtNqxbLLrRtYNU8PeDA/nkpCsqh/+uwEUu+uw94LRJvILQx+8EmSnYblCVx13bVck3I5V+WbhSG8NRejBJ53K1kWm0CqL78fNWD3gn5eMS8G+flI6GOn0PnaSq5JuYb0jHRSjamsa/EAEsbsAnIA9qwhOyOd38gPI/sBUd7sB+pU+Y0lhVT9yIQ+CiHjuCQhs+RYlm2z4kHCsKSQqnnq36l4aRnZjzfh8oIUv5CytxspWVJA7a+2kpMkgbuNyvuyWRfR5gYDhfNSALAdDfBaGxUMG28kbSrQfZDKV0Sc/ZE3aDsDJM+nRLErM3/J1cKvz2Zm6K2yhvS4VLIfqOaoOikc827EqAdvZxv93oGRyGMI/SQC1mTEkrpgDdXvqVMG4hANHS5AIiUzxHaXDYc53gvEp5E7mD6NhO2LSTKms3xDHUP6kN/5Kp+GxhihGXsaA1DJ4gTxrdPBQzqKxc3zh6uJdYvKsfojmlh3T7V4OEebyJGPp1jw7wZ0XvAerWPNtsD5RPvefBo6xN8xcQsD0gDoNAcZIoaNOZiiAY+Zzdevo0mRZt+xnIcb7eLBlh1iJqD7DR5Z9briYWOnctdhXAB6Q/D1Fwi/4RMkY2h6fB1N3YD3ElKWpClSQmPftozs1XXYvEB0GgXPlZAVK4HbTOnSSA09gFxmxgJ4cFpHOi+sxsSP5wvDybr/SfoXSsupsbgAA1mrfYaKiasvE879zq7hbMwYOoYlRgzA8bZSRWyE8ghqw9D9ZCx5/YMevICUMEe80ATQRI8DwIBxvjptPDDey6ehMTCasafxhcZuqQx20O8uxdzhBcCQLOYs3rwng9jYaGLnFYVcOnZ6wnvueD6xBv0mb64wCjxHmxSzLP00NdqE8RafEvRg89gP06KKY4+TU+q4YeA/O84XfH6SibmqZfcu6gc5azF39kyQZ66CZIyZ/KujiY6NJX11mzoxJPa9+aSvlmdRAXDRtH4N5UOZIVqajGEqgBP78+rEEbLyQbLigTNtvKHyBazZfhA7IF19I2XxAFlc9jWEkRWJs90okJdsBGxYlRN4Ecoj0n4yprQ6+ZRwLzRmbC65LEl56sRxwHgvn4bGwEyMiopipGHChAlBcZGFiUwAYAITo8QZExMnTgxx3dDCpEmTAJg0aVJQ2lDDxInCHlbHDzcMX1aBYXiy8skbJkwUcedVVhP9d2eiOi1EGEhW4k5eTn5oCUqLiorikEP4tulivglqWV2dzdJ7HmPbz59n91utHOl0UOI742xC/3W+NyHXn3cSFSCrm5kZI9KmJPwnrYdag8Oab8lnj8Xw9YLg/IJlFdgX1GWYMCG4jsrgk9VQ3t58OqAMKGR1iU5stXR9XBV03WAhpF7dsJ63N+Zg8B8noydrYz0v/TAh6PfKECCr6f8odq56XPwpxLVREwbXsSBZef8q0p7PwRgTQ0zCQraqf9dSwJyYGGJmZPHjj6OIivo/SFEALj5+PvgeQwk+WYVq//7wGP+WAHzcyS8/VsSr5KHWq6H0E3Va1CB90Bci0VGAiWYP/wvARVxya/A1p73C+0/3L/FBab4QUq+GGXyykksfRu79YbDyRSKrSALq8WqYYSxkpY4fbtBkFXkYLVlNnDx5MiMNkyZNCoqLLPgGZpgwebJf2MHXDS1EyUoQFRUVlDbU4FMCdfxww2jUb/KwZTUJ8SycwIRJIm5gWa3i9U4nTmckoYXywWQ1aYJ4oE2YwCR1WogwUP1EPbx4/xqcNnnyZP7r7+ItXL6QSZMmMftHL9LS4cT59i62l97PbTffxPx/SyRumpfTp32X99/TbzdMFP/vl9XX+Ef5XGgpNpHEb4YKvuM0+mWtzC9YrwL7QrgyhAs+WRVlXsqllyrCTw9xGuBPrwbGX/qvLNsRnA9+vVqFQTZoB7t3qKDWq8vzXqTtFyu5+mLgL3+g6sEyDp0EpDgWlL7F6z+aHZSHLwTI6l9jhBEdTof6LY/Q6QpZ+WR7+vT/BF0zaLjXgE88yvaaPHkyk7e2hOgfoo88rb5WISsfQflNnszke9MwToWTf/w1/6WMV8lDrVdD6SeTJz9Ni6rM7e3tOJ1OWrYG/zbwHgPrCcCkSb4Lp/CP04OvmeTLaMpFQWm+EBVVwO5jJ/j000+D5Nv5y1VB1w8UfLKKdEwarHwDjVdDCUJWI89L3QdHEtR6NdIwGvWbrMlqSGHi3//+d0Yaent7g+IiC5/TB0Afn/9d7Eb77LPPQlw3tOD1igHM6/UGpQ01fPbZZwBB8cMNw5dVYBierD7jXJ+Q97nPRNzAsvJdHwl99A0mq8/OifbuO8dn6rQQYSBZfe6rR19w2t///neunvIPcrE+B+Brd9ey+6HvkXix2Onatr+OmqeLyL89k+iYeDZZxTJu37l+mYp7QN/n4v/9sjrDOVFVbK+ofRfVIZ7/2BqcX7BeBfaFcGUIF8LKyi/zz4PTQgT8evU03fLG38HuHSoE6FXuC9SXfI84CbzdDRR997v8+MWf8R/fy6euwwtR07n2od28mh+cz9/VfdAvkDA69Bd5V+ukf2CqOk0OQlZ6JosxOaDNIw6fnRM/hoD2+vvfFWUMIrBtfcEnq1Dt7wsL/i2RaXj44+9eDX0vWR5qvRpKP+nXwWAG0oFIdBTgs8/6/HX0jT/K8JlvsBlAV71evw9AEENtR5+sIh2TBitf2D44xMCwxvbgMPDYPrSg1quRBk1WkYfRktVQVn00vnKM9w0aOuKuUO92FVw3Q5zj4fnECsTxwK0Z6ADvu+WkGlPJviWfNU9UU9coXNaN0ZEdsCqoxu4Sf8XEnQdfpwuERz5TIyY2tI9Szq4O3A4HHXtD7K5U8vzDPNPqwvVuJcuvXk617/Dh7jryM7IpbXHhereGyqdVvwvFMefA56JZncJXcqqB5KXqRCW5GPTir1OOBnXi4Gy3E/YQnNXpIfqH6CNr1NdGhIkbr9DDGRtt21VJg8kDhtBP1pCuKvPs2bOJjo4mfbX6lyPBy1m3Ok7B2YFq9Cy3XHEp06dPD5JvwqJQ3rNjwIDl09AYn2jGnsYXGkNaiN2u8cWYkiTAi81SDXyPOPnBbreVBm22IL6YmcGf7RyQumMiF93sG0N/dP6hRhxuN46eZiquVid+Mag+KnYe6K7ICj4I12eASBKnHHvViSrsVC5KIkm1a1lgpTxsWgg6PGIjiy4GozoNYM9h7GcA9FyXVxzinENB1vYlYqcxdo7uDtKICHBxWr6PYZCNLiMmPgdjHNB1GOU+XIhAHjKR9ZMx5mY9FwFwCmeIcwljdOKFy+MeTnuMPeO9fBoaA6EZe18pGnD+BUCHboY67TzQKO84narz+zuNmPgbKduu/JJDFmUvFIgHeU8TmzcBfIDrLyLVmK76oHl8DlWvytcPAfOGveLYiqlp5L1QFvgx9VmF1N+dJnz2usyUy2cwDwebU8wiXHSxek9vhGxfTEJ0NNFzhz6nZF/9mqijPouSfYWI/ccABnK2l5EVJ3auNpSfx4ffAd9B0zEYVqgTAcrZvF+UR7q6kOaWnRTfYfLrR0p2Ho8818DOpSLGe7SBdQcUP4+Yg7JO6YgZyMoaDfJSMIY7R29QechE1E/GmOQY9AAuu+JYGx85GOVBwd4Rop4XnPFePg2NgdGMva8Udo47hW9Cyl0dWFosvPCg+poxpPu4eDBFpfDDDguWlp0MsgA4KF4vGJdW0W5rx9JioaOnlrxkCbw2atYul2eLDrHhl++K5a74HGp7RN0tR7pwtFaRk3gW61GxLquL9MndXUr+U+KgYF1yHlWtXbS3WLC0duB4u1icwec2U/qDdcEziUPA6hQHsujnl9HeYqFxyzCNvmFR3l/HjGKafXI7aqFqqREJD+an8ikd0jdhR0oph7sQS5Opoeftmu56mOqjwkjWJS2kcEs97fKRM827yrglbQYS4HU0jaB9zLz5x5MAxCSM7VJ+cdpMwI5tb6iSDi4PIu4nY8vKK8X0echDqONN8rK66miZ8cJ4L5+GxiBoxt5XjPJtv8Dc4wVJjzHJiGluaH+ssaGczTvM2M+ApDdiTDJx3UCzERFg33cflS12PDoDxiQjesmD6706im5IZ43ioN6eny0gf1sTNrcXpoq6G2PA80ED5Xdnkvns+/5z8cQ5aoNj37aMpBuKqHvPhedzHYYkI8ZEPdLnHmz7K8m/fjGVIzSEzBsqqevwQJTIPy0taDFuTLFvW0bSXaU0vOfCI+uMUQ+eHjOVd2eyWHVA9fmgulX4WRqSQn2ODqCJonmZLH68jrYeD7LvtaDXy1+d3ZhfKiI7edmI2qe+8SguQGc0hVjmHi0KSEuUwGXjjTAzkEp5hPNGiLSfjB2LyUjUAR6sjSF86+TZSzoPUz6CNhkzxnv5NDQGYcLFF18cbgNWxMTFxdHTM6SPz8hUYHHnYsRGTXQ6j/zjP/LZZ5/R2xt+x1UkTJw4EUmS8Hq9nDvXv2tuOPi2Yv9d3vkzUoYvq0D+8Ssuq4pWN7mJYjfsYM7jX3VZDYUvhqwKaewpJk2yUj03k6IhPnxHT1bz2WrezU3xLppWJ7FM/rzaUBm5rPrlsSMji3Un+mU1lH4SilGTVe5rtFd8G72riTVJy4IOeC454KYgGazPp5KpOtBaychl1U+wXoUnkvKNmqy+EH1wZGiyipzRkpU2s6ehofEFo5waswuiUpi/9vzOdAZyiA2/OYoXPdfdPlKHhJGgkMfDGerEccGti5PRA9Z9DwcZesSXYUoSn3SrDmNIXVDGe/k0NCJAM/Y0NDS+cNQ8+hpWLxhMBWO4hDo4Pet2cNCl/IzahcEnj7hrV3KrOvFCE1/C8mumg2t/SGMpd/2NpER5se4NYQiOA8Z7+TQ0IkEz9jQuIBVYAr7XGhiOHDkSFOd2u7FsU+ej8ZWjex3rdtvw6rPI2xjac+/88ArLtprxRKVw48YLaHb65TGf5U+E89y7MOSuv5krJS/v1qwNNpbiS8jL1ENPE08+GmwIXnDGe/k0NCJEM/Y0LiBtNOypoy5M+PWbvw6Kq9tTR4NFnY/GVxHzA+t4rdNLytIKCi7grBrb17C5xYN+XiFV2erE84f5gXXs7fRy5ZKnLqw8lMyroCBTz+nfl7HyZ8F+RwWbckmZZKfuPO0IHirjvXwaGpGibdAYhPHqbKk5pkaOJqvI0WQVOZqsIkeTVeRosoocTVaRc4Fn9ubydQC+zlx1koaGhoaGhoaGxoi5wMZeKx8B8BGt6iQNDQ0NDQ0NDY0Rc4GNPQ0NDQ0NDQ0NjbFEM/Y0NDQ0NDQ0NL7EaMbeeGVWHhX7LHT1OPqPHXE6cNjaaXypmMXC2fELjO/YFQsV6qQvK/E5lOxrp3FLYHRF6ygcKZNbRZfbjburnrH7UmsWZW920OXsPwan46VcyC6j8WiXQk87eOE/1b8dfVJWVGFprR3D+g6BlfXnQf5fdOLIWV9P+9uBPb5gn9Cdrn0jkdzQxpOKVjdOp5PmzeqULwcF+7o4efIkx/bkq5M0vqJoxt44xLC6no63y8jNMKKbKvUnRElI0QbSFhTyzDvNbPmu8lca452Kl6soyDCgi1KnfDHIeWkreXP16PDi6rRh67Bx2HqWnU/lkRargzMubB02bJ2Hsb6s/vUos6Ke+o05GPVT1Cka45XNr1C10oRBp07Q0NAYaybMmjVrxEev/NM//RN/+9vf1NER8BNeP7KYeLqpn30TpVFRfP755/T1jaxIEyZMYOLEiZw7d25U8po0adKIt3b7GFRWc3/C6xWLif8H+F+nlbf2PM/uHS38EeCKDH64ZAWLF6Yw4x8Adws/nb+aenUeQ+DCySqw7X+qTo5EVhESNU706ie/PMLir0P3vtks+elQZDU4/3RXNW+tTuWf/3qY8uvyGa6tNZCsfOX/pCmfhUWHfbFyO37COysX8pC802qkslISUq9yqzj44Jxh1ffLpldKQspqBIyqrB7bQ/t/xMNH9cz+fqgePzjhZTX4eKLE3xffSOOmdeNQViPUq/987iCFaf/MX999mn+/+6UR5cV416sRyooB9WrojFdZaefsDcL5PjPHtKOd+kUG8JhZ953FVIb6yPtttfxxWxbTAev2aDIfVV8QORdOVoFtv0adHIGsImW8nMWk/Ci96YGhyGpw4n78aw48OAedx8y6hMVUqi+IkIFkpSx/+mp/bMh2HKmslITUq5X1dK03Dau+Xza9UhJSViNgVGX1VDPOWxOhs4bouaF6/OCEl1VoPQyHT5c7d1/K3HvHoaxGqFcF+7ooydBx+vdPcPmirV9uvRqhrBhQr4bOeJWVtow7zkiJvkj84bKHNvQAXnmYQx8BvV50capPNIXy9XO7cdgs1K7PIeDDUivr+dPJk5w48BRxN/2U+iNdOHz+WI4uLC8VkgKQXUJtqypte15AXgX7umQfGNkvp6v/3l1Hm6lakaK4ehDicyjZbeHgf/V/Ls3R1UHz9jxRnkiZlUfVOx0c+/AETqdzgHxkf5+uegpm5VHVoqrr7hJyQn2RID6H4pea6ehSyVp9D9mfKzdR/Nd4m/AX8vnThPXZG0pbDgdf/o7+vD88doT9z9wVIB+fT5Wy/G63G/dJN253LkYRS66ch78eKXfy86b/Dsg/SDZK5HZXX7//mbu4UnFZRasb93oTOgCdiRK3OwJfrX6frp+okwC2WcQ9WwNzSVlRRfNRhT44HaH1OZTPni+utQLDElUfcnbR8U4VeWH0KkAOTgddR+opWVJAfZcbt7uL+pXqH4VAnY87vD4LHeyifmUKedv7f3Pk3f+iq7WWkiWhtM1AztqdgfKR79HxThV5s3zXFbD72Alh6AEk5orrZFmF9dkL0b9OnjzJh8eO8NvKMDo0QrK2WXC43bjdDizbsgLSQupCSNn0jyclj9fT3tMvl/qH+utr2WYgZ30tFpuif3d10FhxJyE/eBeiPQfsTxoaCjRjb5xhdZ8Sf8TOpDjUgwAAO6syLiVmRhypdyi+NpldgeUt2dcv6iz2DuFX5ToDUrSRrJVbqVUNYADo5/PrynsxxcKnnTZsDi9IOowLitm9rxbLjgKy4lVpS8v45Y7gvC66aidbV5owTBH+W3Y36GJTyNnYGDR4hiS+gPq3qyiYb+SfJ/1V+IZ1umCqnpSlZTS2VBBBLhBfQvNbZeTM0jPNe5LOP3YG5tMaKp84cveUkZOk46xD3Nc7SYdxfgFVb9Vzr7I94guof6uKwgUp6Kee9fuw2d0g6cQ96vcVCIPMbfe3A4DXYaPzj510fuRUZKhiuG0ZKcr8J3lE/j0epGnTSb55Q4CcnV3990Yuv63jz3hO/Q+2DhdeEYtLLqPNDsT/lMZfrmfJLD26sz5fvgHkr2h33SRPQLsn37yBfe885b/ebrNh6/aI//TKZe+wMdpfLjWsb6ZxYw4psTrOuuS6ufr1uXnzt9U/CY3+uzRuKyArfgqeblmv0KGflUPZ2/Xcq7w2voDaX22V5SD7RjrOooszUfBsMXOmKi8eiFx2/kqWJz4Z2fH49Pnt+pCfVItbXk/ZUiO6s0Jn3d5/QJeYRcGzjdSvVho1Bgr2NlL10MJA+fR4QJLrtsd3Dyc9f+yk0yE0xe/b2WEnbA8I0796/oLQ0aUb+/vXKGFYXU/VbUYkvNheWU766v4PpGVts/h1AY+Qjd0jhZGNzNQ5/HC1CUOvXcieUzjf7U+OmdfI1pVZGKd4hDwcXtDpuXLJevbvUVnzA/SPIY2LGl9ZNGNvrIgXM0S+N8D23fIs2SCYn2jA6gWmplF4qAPLvgoKF5kiGNQMlDxyM0YJvJ01LItNIDUjnfSMdJLiMilt9QASxgUFwbsFp01Hf9rMurnyb5JjWbPfBYA+Iwvj3wLTlu0Tj1VDeh45qqymfyMROuvIvzaJ9Ix0Uo2pFO2z40XCuKSEinmqHwRgouLlYkzR4O1uYOP3ryNpbjrpc5OIXV5JmxukpFy27hr8g/M5628mRQLvu+Vcc8VsMv49Q86nDnsvSIk38+BDqh/pDBijPZg3ZJIwO/C+6E0UlvU/lnPXr8KkB9xCNklzhaxTjank7xHy0WXkUhgP7FlDdkY6v3GI39oPpJPx7xksKgrnbTmCtoyIAuq35sr515Hva9vZCVyz6kWOnhFyrtorcq97IJt0VfnTM64kIXEm6Rm/kY0sO7+Ry7h8Eyx5IocrJfC+u4XUBKEL4eUf2O5FPnnK8n/3LyDNvNXf7uV3pJNebcUDcMZKdUY66RnLKfdlNyrk8LMlKUh4aduUSkKyqFt6cizL9tgBicSFa7hf/bNQ6PTo/2am9PpYRb2EHIg2kfNE/6W561eRFSuBW3H97ARSf9SA/XMJKdLNPevzWBgL9DQo9CeVhLnrMHvEffPWmlQ/0mFI1OFpKSUzIZX0jHTmX7uaync9EKXHtLqiX99u+xmr5ukBD+bHFfKZnUDq3f11yy00AHX86KZMMn4nL0U5fiOuXbCGOsXdlYTrX1fNvIpVe0U+/v41ChhW19P4qElsPmosZZnC0GOlzwj00LZtGbFGIRv/2Balx7T2RQovU+Yob6jraWBZQqqQfWwq+Qf6k3Wxes62lJIZJ/cPv26B7tollPivHLh/DGVc1Pjqohl7Y4KB4p8/QU6SvO0sSsIwv5gXn1MPriHoXsedjzZg9wKSHmNGLsU76ml3Oug6aqFxdxmF2aHMxlzmxIK318XBrWtUH+22Ur7zMC4AXYy87KbES9tzNwUsG9fsPy4epnhpeyHQd7DppaPiAa83EFSj3g+ouTWfOv/1dqrvepimHkAy8t0VavNQwW0FfDdJgl4brz20nN0fK9Ia15H/QhteQG/KpVCRFArT5XoAPu2qIcDboTGfve95wQs640JlCgCu/etYvMnaH6G4ry4jh8cAWIjpch3eXi/W19eoltvt1K1swNoLEIMhW5kWKSNpywhYn4MpGjjTRmVAW0FP/aPcVfWuv75lw3yYmhKE/J1dNYEzbqHkr2r3aqU8G9ex8kVRnkjaffQwYdADfIq9NnDOsGnlXtrOgJdpzLwhICkMXtqeW0z5e4qoxnwaOsSfcVf6XiJ+St582YDaEni9fcdyHm6MfO6yIFm8Hnp6DgfqT3clmw/YodfLRTOuU6YIXE2sW1ROfw9oYd091bSdkQ3T9SJ24TwDOi94j9axZltguex7++sWExfcxwZnoP7VQ/2aX3N0RP1LRXYFtWtN6KPA01JK9u2VCp01UHaLcBnwtGwm+3GlNJVjWwrfvneOIk1ga1mn6r8KzrTxTICsoWllAx/0AlFxpPgm9wbpH0MZFzW+umjG3piQiylJcWSKjCE1lxnqyBDYdywn9drFrHvJjM0hL1dFSehijaTNz6N4VzMfWnbz+PeVnh2lZBtjiY1JYtkrimgfe5zIC8Qh6MGmPm/qed8Si53jG1RpB07JS3fBeK2/pSjI17CJXxwRw6d+ZlbYWcqcBd9CD/CxlXLFG7AP+4bDHO8Fphq5boU6NRDzh2Jm0rCokX1l9zHf7z8EpdfHEh0bS/rdDf2RANg5vF2xLO6L3WDGekYMwFeuBGggf24ssTGxZD4S6gHsxCMveQ6PkbTl4BSnzQTA22GmNKitoOdnDRz2AFEppOWpUyPD3CXkH7fo1zRuKSRrAPkP1u49P2ujM8J2Hz3M2F0ABm78VSMV92cpZuZLyY6L5vKZmax8S/mbcNg5vkkdB06P3Ld9PJLGzCjAY6Vpe2ASQNMTbREvVVce9c0uP4jlpWJyM/p7nfmuVKJjYklYUKr4hcBuqSSoB3SXYu4QPd6QLOb2Gu5OJzY2mth5RSHLFFS3ITFY/3JxakT9S4HuMRrlWW5PyzoyFykNPYA80pIAPFj3h9oG1MQbx4Suz/jG91RpHpzWUOWX6TkeYjbaief/BcYM1j+GMi5qfHXRjL3xSreZygcWk56cQHR0JsseKadmfxt2txh0pcuuZWXFK1SEfLM1YFqUQ+HGKqp21NPc2kGXw+dIH4LTLmzquGHidBxSRwFg7pR9uy6OIdy7fsoMMRvEtDRqWyy8/trrWFosirBQNhR1xISa3FRQ9/xvsMmzo1fdVsSut53iQOqwM6OyL1GIwRQO4nQD6NB/Q50GKdk55D1WQdX2Whpb2ulylGAatbPEhtiWEaDXiReRT7uCHusy22VDB3SxQXO3EbH3F010yvJPu6OY2nfcYeWvbvfANrfQ8rsFssP64O0+etRR2WjDC0ixaeQ+Vkuz00HXkUZqNwYar4PicUbWv2J1SMibs9RpAN1WeiK1oR6to0lM/2JcUEjFvnbcXR1Y9lVRfEc4txAvrk6zOhKAg598CoAuJoTmzcoiZ0UxFdurqH3TQrvNQUnGqHWAgP711sE/cOzDx0atfyVm55MWLf6eEm0M3hix1MglUQBTmHlLsG5aWiw8mCIXJiZW5VbhxP58QEQAHndEWjFo/xjKuKjx1UUz9saEGv+bsBJ7ew2fqCMjwkrT86WsuSWbVGMsmatr+OA0ICWSu76qfyk1PoeyNztwONup31FF8YocchaZSEnUM+VvnrCzcaOJ90xoY49TZzmrjlOh852PG23AmGQk/hvxGJOMijCEA4kPrCH9hiJqWmyclisuRRv8M6OOI7XBDuq9Z8PMmJk5FSS8FApfstDldNO8q4qy+3PJWZpFWpIB3VkPnpGdBHBe2tLbO8Csg8xF0cN8ehy4n8zvP8quFhueQeSvbnd1SPxmHNMibfdRxPxAOtmP1GDu9ODtlWfX49LIWlFM7TsOfv9CfrBxMALuvSxGHTUCKll2Qz7lb1px+QxEnR5jRg6FW+pp72qmLOhF8SxnQ3cAzGeCNS7loZ1YbG7c79RStbGQ3KU5ZM01YtCdZUQTezBA/4pjmvf0yPuXAq/DjgeQkm6mZL3KDI6eIgxwJPQhdNOYZMQYG7yKM5oM1j+GNC5qfGXRjL0xwU7pPY9R1+HbMejFvr+UO+8O/dbs546dtDvcuN3tVKkNEQXWV9Zw964PxAP/MqO8CyuLilfFFw4kvLg6zDTsqaZ05XIWXx1NrPGNkMsto40UFebxd9EUBv3WgTyAe1rWER0dzezZs4mOjg4Z+s95G4D3qlmzKJ0rLr+U+f+5lvI9ZmxukSTFZVH8QkmYGQ41Ji4KGM/jKNhXT/ECI7oo8PS00bSnhvJH8ln2nWiiEzaLZd9hc37aUooavPanHOql7iFgfZH7v38tCbHRZN5eFF7+qnZXh5iYGC699NLI230UsT6/hsVzE4iNEbPrdS022dCQiMsqYkdJGH0fBg0+l43RoruO0jsySUqIJnXRckqfb8Lq2xGrSyFvSy1BLv1hjAaT8ks+8oaG+rULMUaL3eZt++uoebqI/NsziY5JYPPRkdTFELZ/3Zo1nUuvqBhh/+rH+6d67vuP77O5RWx6SrmtIvAl0G9U2qgJoZvKMPu6/NAzsiNlkP6hDOe7f2h8cdCMvbGiu5r8jATRCWNiSb0l0BE3JC+dwisBGDDmD/wg7nF5xExZ1BRx3tjKAm5MlAA7DctjScpYzPKVRZTvacDcDawwMJrzBuG46GtqvxWBKVEv3pAdYZaoAKtTPCB0McYIjbDIOfqbHZSuXEy6Mdq/401KmBP4sNPFkRLSyL6OmGgAD64PgPhCcjN0wvF+UyoJs7NZtnINpc/X0fQegJGYkSwzjXFbuuSptksSgh71MivlzQngcY+GWQnWxuqw8h/Ldo+UgrjBJCpm1/MXpZMQs0ze1CJhvPp29YXDpudjp3iB0xtC77KOTyFumHplb2mg/JFlZCbHkvq4WWy+0hvJCtgdryPuitAtcN2MSwDwfGIFDBTeLjYteN8tJ9WYSvYt+ax5opq6RjHKGaOHWVAG7l/73wP4xsj6l4KeP6yirttO5f014hQEnYkHNymk7/ddjsEQydmGY8B46B8aX3w0Y29cUY75qPgr5aYKCsP6BRnIz0oWRl6PTRxfcEWM+L+nh8ON6ushKz1OpI8x0751Q4gdYVn8cLYYpuzHwh22ANUW4SNFoomSoCUmYF4V7W43jp4OagcceAup73DgcIY+fLbJ2iPvNFZjIC3oOAowrDWRMhU4Y+PQC8D1cbKxZef4hmBjyLB25sgG5TFuy9K24wBISaaQZznGPbyQOToAG9ZqdWokFPL6f5/gw4+O8fo96rRg+Q/a7v++nd+fOBFBu0fCRfzLAnWciZQZKoneX09HjyPwkGQ/TVg/Ca1BI2Jjm3C016WQFaKehvxIH/ZXUdHiwOEUB/eqsW8Lf76dIe3HwTvs44vlDWdebJZqYKH/ZcBuKw2eZY4vZuZIJjyzfS8zoftX3EORymEIdK9j3V7hQ6ebt4ra23wJdVi7AXTMWVwc8r6FbzpwOx38V+1PSFMnjgKD9o+Ix0WNrzKasTeusFO0sUEMntEmit/qoPmlYvL8Du0pZK0oZmdLM49dMw3wYn1zHWYAu+zHpUshS3XAZ8pD9VQtCjVMjQFTr2LVPuWZggYKdm9lYZw4amDvhgGWsjdtFscYYCDrqVp+eIUiLT6Hqo03YgCkM+/TEGK3Yj97sTpBitIxZ3kVi7+uTEuhJGeOMJa6rEE7Dw0Ly6hSnoifXcaLK9OQgJ53ytkK8EeX7NtnxLQ98ChTw5IqaleL69XY5Df0iy4e4PgZzkNbPlqH2S3Ocix4tSrgawpxi9ezI+9qJMDTUkN5iN26g7OXoy6QoqYx546fq77WEEL+qnYPeMmJz2F7qdigEdDujfKO5Km6CGc567D1AOj51pIfBuhnzvYyblQbvfusfBolgW4OudtVXyuZVULObGEc2o7sUqaMkJ9Qvd8F6DA9UB8gB8OSKmrviNR/8g+02T1IUWC8Xv3SaCDnJZPY4OOy0aTekBR/I2UB9c2g7IUC0qYCPU1s3gRgxfkXkWpMr1Idjp1D1avy9Wo6ncLI18UEnc8ZQIdvt3lw/4q76efsXHlVyP41Usyr19Eg60hWoa9eZp7cK442ka7O48WnAnUh5aF6Vs2VIAq62n5BmyJt1Bikf0Q+Lmp8ldGMvfFG43Lu3GDG1QtIelIWFFK2q1n+PE4ztRsLWZgkljh6fvU4dz4qv/lu2swb8huo6fF2uo6InVodXW6a15qY4rBi9zD2yxFeL7qMYpp7OrC0WGi3tVMyXw+9LsxP5Yc86qOfJpavrcbqASk2i4KX/ouOVguWlna6WqvISZTAa6PmgWVBRlogdtZtfA2bF6TEHJ45cIyjLS1CHj3NFMyS89moPjbCixcjOc/J8mvtwLEzj5Sp4O2o4eG8/eKyA0+yt1UYboaltTiOClm32xy0P5eD8awVqwNAR4zCYLU6xSNMP7+Mtt+1sK9scX+ikjFvy0oW31fjl09VaxftLRYsR7r4/TN3kqwTh7eW3q8+hiJS7PxkYx2dXpASl1DV2iW3Yzj5B7Z78duOgHa/KVECb2dgu3cfF1/0iErhhx0WLC07Q8woKzGz7k0rXuCfZxfQbGv362fVUiNnO4WTvp/udTy51yYOA19aRXuX0GdLaweOtwuETvzpVTYWj/yblUpqHn0Gs0t+2fPJ4UiX0Cu88sYcJ/ZBHuo1jz4jDHo5H58OtdvaqVpgADyYn304qB95vYj6yvLZf2gbeclye61dLp8ZJwwgD8LYqJX7uuVIF47WKnISz2I9KrZzB+ze/UB+SdJnUXbEguXNitBG3wD96w9VS0j0fsDREP1r5DSx/Dl5iTv+Rkq2iDlO+4Z8ShvFV09S7uqXjeWog+a1vjP4Snlo8/C23w3OwP0j8nFR46uMZuyNQ6ybFpN0/Rqq99twebxiJ6APrwfXew1sXZVJ2oodiodxE/k3F1H3ngtPL+jixE4tXa8N80tFZCdnym+tOmbOC+erNXJO/6GCoj02PFF6jElGDDovns4mKu/NZrHq8NWQNBaR+Z18Kvfb+Ovn/4A+Ud5t9rkH13t1FN2QzpoQS5tBNIrduHXvuTj9+TT0iYkYk4zoowbKx84bqysx93iE/BL1SGdcWPcUkZ2xBtnUA3ooXSDK6PGCFCtkfUmUB+ub5eR/J5NKq3jYGZPL/DMB5g2VYtNOlI64byZy1VXX+nMM5Dy0pUI+ns91GJKMGON0eP/SSUvNWrKvVh3eOlTeFrtx98r5i3YcQP6Kdvd8Lqna/XUe/X6mqr3K2bzDjP0MSHojxiTToGeM2R/NZPmGBrpP/a9/Z6Mhyk7bjiIydwYbbU2r08l+pA6rw4N3qtBnY6IeZJ1YNO9HCp0YJborWXyDSg6xU0Qfuuu1yI3v7koWX9+fj0+H/P3x7syQ/dG+7z4qW+x4dEI+0dJfQ7aXfUM2+duasLm94JNNDHg+aKD87kwyn31fHPwdn9J/MPfvNlC5R2xw0cUZMc6dE7xkDIA9bP86+uYWVt2QTaVsTCr716iwfQ3V73qFP+YtJZTEA9ipvD2pXxdk2RhjJbxuG03b88lcVDnMkxYiZMD+Edw+GhpqJlx88cV96sihEhcXR09P8GA5OBVY3LkYsVETnc4j//iPfPbZZ/T2jmxf/cSJE5EkCa/Xy7lz59TJQyIqKorJkyfz97//XZ00LIYvq0D+cZzJqmBfFyUZOk7//gnib3xanTwszp+sAvVwjTpZZrRkhaZXQ0KTlY/B9XS4sqpodZObCLZXAnd0fnFlNTjDlVU4NFlFjiaryBktWWkzexoaGhrjgqexOB04uhoV30VV4Nv447ILP10NDQ2NCNGMPQ0NDY1xQRv2v0hIujQWBm0KKaT+B2Ljj6u9QezA19DQ0IiQCTNmzBjxMu7XvvY1/vznP6ujI+Apmk/cSiKdvHppJj9SJ38JGb6sxjf5e47x2DXTOP37J7hiaZU6eVicP1l98fXw/Mnqi894ltW1Zc28dFui2G36lx46T3ph0kXEfX06UpTYFLJi3o/4rfqHI+SpAye49RvQuftSMh/sjx/PshpvaLKKHE1WkTNaspqg1+tHbOzNmDGDTz4ZjnvqFlqct5FIJ6/EZFA0eTKff/75iNfMASZPnkxvby99fSOr3sSJE5k0aRKfffaZOmlYDF9WgUweZ7Ja+bqNx68VPnuJ339GnTwszp+sAvXwAXWygtGQFZpeDYmvmqySf7iFx+9cQFq8Dkn+ooXX48L2my08sGoH8lGcIRmurLa0OLktETpfjSHj/v748S6rkTBcWYVDk1XkaLKKnNGSlbZBYxDGq7Ol5pgaOZqsIkeTVeRosoocTVaRo8kqcjRZRc4F9tmbizjv9uvMVSdpaGhoaGhoaGiMmAts7LXyEQAf0apO0tDQ0NDQ0NDQGDEX2NjT0NDQ0NDQ0NAYSzRjT0NDQ0NDQ0PjS4xm7I1XZuVRsc9CV49D/i6uG7fTgcPWTuNLxSwWzo5fYCqwuN243RYq1EkaERBGfvE5lOxrp3GLMnIM2GYROtk69q0XV7CXYydO0L5DfJp+vFLRKvqpZZs6ZbQwULDDQpdDHg/cbhzvlKkv+gJiwLS6gvqWjoC6ud1uHF0dWPZVkDdL/ZvhYiBnfT3tb4+93qop2NeF2+2ma1+BOukLi0/nBwxOBw6bhdr1qrMjR6HP5O85htPpHJpMz9MYWbCvC7eznapsdcqFQTP2xiGG1fV0vF1GboYR3VSpPyFKQoo2kLagkGfeaWbLd5W/0tCAiperKMgwoJOP7PjiU8CWVRlMO32I6rua1IlfLR5/keJFRnQSeHps2DpsWK2H1Vd9scguof6IhfrHczEl6dHhwd4h6mZzeMR3dzNyKXu7i+aNo2Dsb6mlaqUJg06doDEi3HbRZkHBjudzCSnaSNbKKpr3FQQZfOeb8zVGVt5fg/VzAznrqxgFzR0xmrE33phXQe1aE/oo8DraqHliGZnR0URHRxP9nWWUvtSG3QtIidy2eRe56t9rfEVYQ3p0NNHqb6SO8QB2vsndtYqMi+GDvT+iUp04zlgzV/RT5bdlR5OC2QYkwPtuOQmz00nPSCf7gS/wtzTiC6jfWoApTgKPjbpHMomOTSA1Q9QtPTmB2Ln5VLa48EbpSFlRxev3qDMZIl+y/jFe8HRUizYLCqkkxGZS2uIBQJexip/d1v+7se4zITlfOtC9jicb7RB/Iz9ef6FNXM3YG3eY7jBhlACPmdL/yGbN001YfYnvNVH+QDapDzVxEkA/n7z1AT/X0PjyEF9CXqYeXPvZ+djIz5n6snD27Cl11BcQAyUvFGOKBtxm1n0nnfzn/SNdP911rFuUTeW7XkCH6a6fc636Go1xjpXyRdW0nQHQY5xvUl/wpaXpif1YeyVSbqtgCAvNY4Jm7I0zUqIvEn+47FR2q1NlXnmYQx8BvV50caq5vVC+fm53aJ+JlfX86eRJThx4iribfkr9kS4cTvk3ji4sLxWSglhqqW1VpW3PC8irYF8XTqeT5s1xwiemq//eXUebqVqRorh6EOJzKNlt4eB/Hekvf1cHzdvzRHkiYWU9XW7hUxa3+DH2vmsbdt1AlOnHL/6WI8c+5OTJkxGVy7AkOO/2fSXkrK7H5nRy4thu/wDg8+exbDOQs74Wi03RfvI9Asuk8tnLraLL7SY3UaQab5NlL/uyDOwb05/XU6qUoDrYLFTdFSSdAFJWVPHb9//Ehx+dELJyOuhqraVkycC/U5O7/mZSJHC9t5dX1YkYyFm7k+ajirLJMu54pyq0j5dar5wOuo7UU7KkgPouN253F/UrlT8Y+B53qho9lIxFXBf1K1PI295Mh6JfOGwWah+PYIFH9o8syRBrj7qMElkv6ilQ3uPxEva+28OJEydE3fYV+rMwLClm5zsddCnqEXJMUJX5lvWvB/jRdR1tpGyJATAE1afrSD0lkfon3fYzbk6WAA/mLYvDj3UA2CndeRBXrwdXr8RVvmhfH5floCbQR05u49uMIjExF6eqDyLrbkB7h9Vduc901VMwK4+qdzo4+K5Cr1prB5TFkMZIWW8DfDXDjDv+cWR7Hj8/+CdOnBB9sKu1ihz5mqA+rRiXBpLnyDjFWfnc44ui+0sdqs8IQoyDA/VtCL5eLSNZX8KNkYK44HzC3df/jKkib7vF37ecthaeWSJf013EG+96QWciZ6Nah84vmrE3zrC65bf22JkUx6tTfdhZlXEpMTPiSL2jpj86uwLLW7KvX9RZv++L6wyyz8RWareFeLjo5/PrynsxxcKnnTZsDi9IOowLitm9rxbLjgKy4lVpS8v4ZQiH+Yuu2snWlSYMU1zYOmzY3aCLTSFnYyOWUPdWE19A/dtVFMw38s+T/oqr04at0wVT9aQsLaOxpWJo/g/677Lv6XwyvjaCusUXUP9WFQ8sSGb6/+cVZZLrJulEuepVviiG1bU0bisgK1GH5JVl8TcdhowCqtbOIZzLUMy8RrauzMI4xSP7LXlBvkfz3gGG4P/r8Lc1gNch+8x0OdVXRoxhdT2Nz8p1OCN8cuwYyVlfS0WYCmRts9C4MYfkWB2c7hG/8UjoErMoeLaR+tWRDni5LEzVAy6sv3pdlWagYG8jVQ8tJCVWx1mXXNceD0g69LNyKNtTT4Gy/8QXUPurrbJe/a9oQ8dZdHEmCp4tZs5UxbUQ0T3W1+xmZdg+qmQKM++tp2xpCvpeWY5uuU+u3smh8kFmOuz9+gZK/yg7/a2rY87dBWR87Sw9xzuxe+CUsw387VjIwll6dLIu2hxevx9V495QflRTSLmvkUcWxDPFLfte9YIuNo28bS9Su6+ZsqUp6M4o0uJMFDzXOMC41U/BLXPQA7gOU7NdnRqCV5aRFJPAv17zA7aq0yLCKcZDh1f894yLzj920vnHHr8MfbqbEqsDj9xOg+lu1ExWvV5Gziw9OLuFLJB/s8NCxTz1D0CX/KAYI6MiGCMV46Fukifi8dCw6AmWJE3h5J86RZ3dx6kbwbg0Ym4zMVPO3H50MIeMLCpaLFStzMIYLcn+qXY8k+S+/XqwjunSisX1IcbNet+4Kfeb8GNkHPf+8rf995XTXb3yfd+yUBHKgI+7kSeWGpnyF9E2XjzY9vYnl7dY8QIp83/MID19TNGMvbEiPo+qFvGW5XY6aN8tzyQNgvmJBqxeYGoahYfETrTCRaYQg7EaAyWP3IxRAm9nDcsUvi9JcZmUtnoACeOCguC3tmnT0Z82s26u/JvkWNbsdwGgz8jC+LfAtGX77AAY0vP8b4s+pn8jETrryL82ifSMdFKNqRTts+NFwrikJOTg14+JipfF0o63u4GN37+OpLnppM9NInZ5JW1ukJJy2bprCJ6KOj3TTx/i8QzjsOuWu34VJj3wFzNPzLuCf73mWn/d8veI63UZuRT6B6BcfnZvFnoJPC2lZMapZCEpNt2o0MXqOav4TXpyLMv898ihRP0DH2/+lOyMdH7jEP+1HxipT1cBFQ8I31FPSymZCan+Oqxri+Hm6+UZEiUr66m6zYiEh7ZnbuXylGu49rpr++sdpce09kVKIjAGWJnDHD3gOU7La6q0237Gqnl6MSv0eCoJybJ/0OwEUu+uw94LRJvILezvNbnrV5EVK4HbTOUd/yb0anYCqT9qwP655P8GrZ9I7nHxtdy+Jk71w1BI6GOnYNuTT6pRIccWuU9efy+L1T9Rsmk56RnpVHcIvye/f9SCNShbV5LsvPkDI9d8J5NUYyypd5sDfICVupieHEvmBjOuXtDPK6Z2i/oxJKHTQ/e+1cQmy75Xc6ux9gJSClkZU7C9skyRVi6W6aamMT9PlVUQJubEiSe/x2YOqMPYUceaBemkHxB9CcdvyPj3DDJv+pG4v1J3ty0jVtFOA+ruVD36KTbq7k7lugU3ybJYh9kDSEa+u0I9QgI6HXTWsEw9LiBhXPJjHvOftBA4HhbNTYh4PJQkaNt8DbPnZXLtty4lYUH5iMalYTMri7zHamnflCUb901UP6q+KBDTcz8jN0kCr5Cr8E9NJWFuEQ09gC6Ngmf6Z61BVFit30Hj5p41A46R15bt5McZOvDaafhRf59PiltG5bsekIzkbqkN9pOXJHi3nPQk0TZxxgWBLyQbDnO8F4hPI3fA59/Yohl7Y4KB4p8/QU6S/CoTJWGYX8yLz6kH1BB0r+PORxvkTRhiJ1rxjnranQ66jlpo3F1GYXYoszGXObHg7XVxcOsaAvctWinfeRgXgC6G4Me0l7bnbgpYSqnZfxzxaPHS9kLgMkvTS0exA+gNwW8qvR9Qc2s+df7r7VTf9TBNPQMMfj5uK+C7SRL02njtoeXs/liR1riO/Bfa8AJ6Uy6qrj4AXv6w4xa2D7tuCzFdrsPb6+Xo6/dTJT75ImOnbmWDeAASg8H31rc+jyy98LvcvKi83+dSKYtwnGnjmYDfQJPvHlEGUgKWGceQ9TmYdKHKY6dy0ToO/iXgasBA2S0mdICnZTM3/HS/Ik2pAyksXBukNUGY0uLELIPDjnriZ+E8AzoveI/WsWab/PCWse/Np6FD/B0Tt1COLSFvvmy4bVnML44prt+xnIcbA/NgCPfQxy0ISAtL9xsUrawTugVCjrvkPqmPGx0/tE4zj/8mMCpnxXeFD3BPA/kqvbJuWsx9b9qFwZldEPwQ636DjY+3KP5fhLVT/runiaLVilGmuxRzh5g1MyQHvU6qSEEnD43OnsFmec4Hgbqb/bhy9Bxcd+0NReTvVehIdyU1FvmF8vLg6znTRuWtyjE68B7fe0jWBtV4WK1c6h5sPPQcpmGjaqAZybg0CH7XAnV4p5ay+7MwSODpqKPohmUo1qJCkEuBSbykWV9appJrNct3teHt9ULCdYF1Dhqnhjpu3k5+ViISYNu7huU7lH2+iXX3yD6H+uvIfUiRBICHw/Wlir6tpokeB4AB43x12vlDM/bGhFxMScFvSYbUXGaoI0Ng37Gc1GsXs+4lszh+AGEw6mKNpM3Po3hXMx9advP495WzCqVkG2OJjUli2SuKaB97nIR36+7BtlkV9bxvicjO8Q2qtAOnkBdDgvBaf0tRkP9NE784IrqCfmZW2FnKnAXfEm9/H1spP6BOBbvvDWmqketWqFPDYcf2tCpqSHVrIH9uLLExsXx7bajR0IlHXhbwUZw2EwDP0aYQO0ibWNcaflig5zjl6rgQ9xhrCpJFK3k7zCHKU0Ndu3iY9ZNHWhKAB+v+4FpDE28cE78xXDGAwS+TlSDu73Hb1Ek03J1ObGw0sfOKQg6wTo/cZ3ysncPMKMBjpUltOQJNT7QF5TPkewyCx34YszpywD45dDyfWAnUUBM3XqEHwH7kF6oXQIG/7vpvsXBpYJrnEyvqg11sbnl2sSe4PqfOnlXFhMNIzJitFw6Hkeiuh542tSSg7i/hW9bbYaZ0gDEyLknM845oPHTYeVYVNaJxaTBUR6/4XQ7wYm8sZ9l3oknIyA80WEMxLwujHsCGtSpEeTZlExsTS2zS4sBxaaTj5tKFJE8H6MFaHtyedJdyuAvxYpSunrp2Yg8xrvRjxuaSX4SS1L89f2jG3nil20zlA4tJT04gOjqTZY+UU7O/DbtbKI102bWsrHgltA8BBkyLcijcWEXVjnqaWzvocuSGmNGTOe0i+JE6PJyOQ+ooAMydLmFEXRyDb75FTcoM8WBiWhq1LRZef+11LC0WRVgoG4o6YkJNbobC4+RP6rgRcGXWYvKKn6Zqey2NLe10OUrEDJgCvU4Y+uFmLezWHnlmMZhQxs2FwCg/jT/95KA6CYA6l+phttTIJVEI/7RbLBw6eIjmd5o5dPCQv/0eTJEFFWsIdiVQoZsi/g0nQz+zsshZUUzF9ipq37TQbnP4NzL4idUhIW96CkwRdFvpCdcgRHiPQXA6qtVRo07wPXwzaB56joR4gKGsu46LLg9MGlT2w8Y16EM43GG9J0+epFn9YjpSVLobOOYMprtO7M8HRAxKuD5l9r3Yfy2OlSHGQ3WZBhoPQ40jIxmXBkN99EqqMZV1+12AhCE7jx8vC+VZGIIkHRchxm3bYIahglD1HRLJMUwH6NWR9rJaziIsjBWX6maohe0c9PnpexHSRYeb6hh7NGNvTKjxL2kosbfX8Ik6MiKsND1fyppbskk1xpK5uoYPTgNSIrnrq/qXUuNzKHuzA4eznfodVRSvyCFnkYmURD1T/uYJOxs3mnjPhDb2OHWWwd77fQ94og0Yk4zEfyMeY5JREcb+IMzQpFD4koU//fkkjS88w8b7bydnaRZpSQZ0Zz145F1mggIM8hj9ZcB7JoyRYHMGPhiipwiDCgm93F6JMxMD2y82eLY7NIPLMOWhnVhsYpmoamMhuUtzyJprxKA7i3rSrSAuJjAiQoZyj3FPgI6GQkInP8zGnuOcko29mNgLN9PhJ4TuBoWIdXdwwvapTzwBfUo9HgaHoYyHg/epIHxfyXG7xc7lEyfk/0fy1SM7lbfcR02nODInZcXP2BlyYkLFFTFjt0lkIGRDmCgdhiA5i2CIVv9oGEy5ILUDYOLEiRMZaZgwYUJQXGRhgr8gEyYKu3P4efUHJeq0oYbh5fMxG+79CXtlh2p6vfS88yQ/uOfQwPVbvpMjDjdu9xGeuzxEuhw+qH2Au3d9IIy3y2by3YkTmTjxu2x9dSt5c/VIeHF1mGnYU82TBT/gpjnTufSbDf7lqAm+vPrFD0F1DGybwdJ8MVJUXFB5J06cyMT/MwXf2CV+EyIP+YHkafkJ06dPJzU1lenTp4cM164JcQ9lUNUtUO7B9w6f9nVW7auneIERXRSc/vgP7N+ziy1r7+HWrOlM/0Y5Vt8sxYSJTJz4Ji6fP9sEdd7BZVPLD0LpR8APguImKPqgP1Z173Dx6ryQZeWLmfJP/x7iemV7yuX93PdrG7vkNrr00kuD2m369OlM/8ZNbFfnF648E4L74Nfvq6d+7UKM0cBfemh7Zy+7nn6Ee3K/zfSvfYPyo75Hpijbm74ZE/n/wX0wWL5DvcfEMDIOFRfyvjLB14TIS6Ujynv4CMp/cnB+gdd4cHYG56eWVbgyDJaGrFfi/6/T1i1ePXWXX8e/B5VpIg9co9abn4hNDwpC9aNBy9NfOX9qKN0NG/y6q8jddz+lrBT3UZdnStTXg8o6ceJEJl56kTB0esE7YULQeDhQ8I2HyjorGda4FJhFAJGNW+/wwE8b6OkFMLBw4075WTXAeNXR/xIZqk3VoZ9Q9w+okD8+6J4TJ/a/DHnM/CSEfAPCNQ+I36nlpSqTsiwDy2ngoO6Dww6SJDHSMHHixKC4yIJPCBOYKO8EioqKCnHd0AMQFDecMHny5OHl5ahhTda/cumll3Lp1y/nmuXPYhtMVnv+ilcCiGPmysTgdEXocckzdVFT+D+ShLRqFTcmSkAPv15xOalZt3JP4U94dl8Thx0S0j1f5xKFrCVJQorqV8KooHsEts1gaVGy5l/0te8FlVWSJL49M0a8PX96guoweXScPA2A7pJvkjiYrAYLvrrJD8BAvQq+d9i0mQ+Rm6ETGz2evoYr0hdxZ+HDbH65AXOHhCR9k0t08vVREpLk5JP/Kx5klxjuCy6XJJE4y+B/e/XJ3Se/CRND6X+UPLD47hFcTp+sfAPQhImBeYSLlyQJaVW/biDLqktui5hL5wVfr2zPCXIbvXxCbDbgEr6+SlzDcPqNJCFJ1Zw42V/ewD6YyEO3C2d6b/tWrkm5hu8vX8PDm2poOGBDkiS+OV1I1ydLp+Ok6CsxX+e+UHo1c7b8+SyffIdwD1/9w8g4VFx/6G/D/vqFD+F0RHmPQFn9kb+dBtBhuOrbQflJkrLu/8tnfwnOTy2rcGUYLA1VH3x2zyFxMPxl/8aqO0KUKyj4+oBAkgL7ePD4JfFN0TEDy9NfuX5ZhdDdwUPwGBIgK8V9fHH+MfLSxSHyk7jlctELOdnDy1FRQeOh+vpQQd0G+HVhCOOST54/+rZ4fgWFb/Ow/Jv+aga3uSRJSAfWsK1Z7syXZVH8pHiuhR2vTn/G/wLoLuGb6rwkCUlaT/OJk5z46PdsTe+fbQ19/1DjZoh7ShKS7SSiq1zCN2eq8wkTwuhfKJvB1y7879+C8xkkqPvgcMNEr9fLSMO5c+eC4iIL5+gDoI9zXqGIvb29Ia4begCC4oYTPvvss1HLyzuorDZx8AOhE1cu+hn3JqnTfSGG/KxkpgF8fJzXvF68xuni/x47rQ3q672Y0i4T6bKsvV4v3l6f/KE36B6BbTNYWu85ETPtWzdwb9D1Jv7zW2IzSc9/vxY2j6rfHxcP5W9cy4/nhZBVegW/P3GCD4+38+IP1PdQBV/d+s6J+gXoVfC9w6ZlXiqcpLHzx1KxFVF5fcwD30DUrI9zvSLuicPCg2Pav84jLyj/GPJm9m+s8cndJ7++c6H0vxeR3H8PdTl9spKzoe9cYB7nhBqju2hhUP5zkvt1A1lWWw+KtpBmpvNgrLo8c1j6r3Id+nxt9BrWboBpXL3gQWJC9MF7937IiY8+5MPGn5ESVMfA8Okp8Xv9jDxVH8zi0uni1vbjT9Cp/m3sg3zjUl/RZFmW/he2XmDalcz7QbBexdx5uaoNh3APf/1Dyz5UXH/ob0MiGGPC6YjyHoGy+i375I0Fcd/6T0wh8jQVpYq6e/7I714Jzk8tq3BlGCwNdR986Ue89oEXmM63i18lL0jH1MHXBwRerxfvWVl+/980ooOuv5dvfE1cG1Ce/sopZBWsu+r7B+tu8BgSICvFfXxx/jEy5LiQw+JvCaXr6aint7c3aDxUlynUeKhuA1E/kRbxuNR3Luh5EO452F/N4Db3hRdve0aelZW4cunPyBtovHrld/zRA5DIlY/HBOXlfSCVRAmk3k/5o0XUL/z9Q42bIe7p9eL9+e/oPCPue22RKURec6gwn+DEhx/SvjNPxCmeMUp5hZJV9DQxwnpOdofIe+Cg7oPDDRPPnTvHSENfX19QXGShv/f2nRMP5eHn1R+UqNOGGkYrH18YuH4fUbRBXm692MSPG/6bd15cyw++e6WcfiXfyVvLCwd/y2PXTAO8WBvW8btz5zj3kTzTp0thfsFlAfleWfg6P/+PfgOjz5emGDwJqmNg2wyW5o+ZehUFv7yfK/3XXsbKVytYeJnYHl/35O/C5nHuqc3y9v84sspeIS9JISvDTWx/ciFxgHTmfd54Vl0mVVDVLVDuIe4dLu2Yb8ekEVNl/775c+fOcdn3t/PqqjTZ30d0+nPnznGu+Bc0uQCdiUKVLG6qfJXcK/3ZBMuPUPqhqIzvHqpy+up33CkWQS76PzcF5PGaTd4NPTeP+1P64y/7/nY2Lgg8K66vr49zT9Vw0CXOTbt31xa+E1CHjSz0nzfmK+/vKN0rjoKQrr6LF8uWyAaUkNWVha9T8G8SRMFx82b+K6iOgeF3n3wKgC5aPu7er5/v45SXo4xztyvKJevIrntJ8x+Q7CvbY/xivwvQYbr/9QC9uuz723n1P5P99xDyHc49FG3ob6PQcf1BpaRBfTAwhNMR5T18+NJee+432LzAZQv5eYAunuPKwleouF60kv3tSp4JkZ96vApXhsHS8OmVP+4jHruzFLNbjHU/bTrE9oJruUz1u3PnznHlsrW8cLAwaCPUuefasJ0BopJZUHmT4rdXcv8vC0K20bnj8jKhTs9NvnxUuvvCz5R5hdPd4DEkoH79QvTH+aOCxoUruf+XP0WcDmRm56ZDch8MHA+V/TbceKhsAyXnzg1vXPKFgHwUYaA27w/PsOYVcbAwOhMFL9/ml1Vw/3iGzfvFWJX8n6+y/fuKZ1nK/bx+pxhv7QeEvvYT6v4KGSj6X6gxErZQ0Sz2ssddX8Erhb5n7rnAMU/y8H79MyI+IPv+/H30//4mEmV/SXvH8yHKOXBQ98HhBm2DxnijcTl3yoedIulJWVBI2a5m2TG2mdqNhSxMEsuKPb96nDsflT3xNm3mjW7EA+3xdrqOiB1EHV1umteamOKwYvcgzoMb9MyhEeD1ossoprmnA0uLhXZbOyXz9dDrwvxUfogjB5Q0sXxtNVYPSLFZFLz0X3S0WrC0tIvP/SSKgzZrHhjsrKZR5MCT7G0Vg0Pc0lf5sE3sMG23OWh/LgfjWStWB4COmCt8P6rh4WdFG6plUbXUCPIbN66e0LtDR4DVKUxT/fwy2lssNG4RR0X4D+vWpVH8dhftLRYsR7pEHf5mk3VDSQ3LHqjB5gUpMZdaVR2kEA7/9g35lDa68KIj+Qc/5/fW34vduEcdNK/1nWNW2q+zA2ButImltVgDgepq5sm9beKBHZ/jL5flSBeO1ipyEs9iPSpms3Qx/fvPax59BrNLHLbs1ytf/fHKm5d8RygM4R76sHvcxwcH1rBMHk+UuijaRD5g991KHl4Z6mCWMaa7ksXXF1HX4QGdkZzH62l3dMl9Xpa3w03zNnnM6/Vge+dZKvyf1iqlxiwfibK0CstReczraaY4Y4r40oSao/LLmz6Lje+20Pz6U+SodDflrirabe0KOQ1NdwfD4/aItugS92i3NVOcoQOvi6YtaxRneQaOh8VvO0Y4HkY6LoXZtT4C7I8+6T/HTz+/gJ/MVV/Rj/nuh6k+Kg4xznnO9yxrp+tt+YDpzhoevmv4+hpujPztPY9S/YEHJD1Za5txyPrkH/PwYnvlvtBHmw1EvEneHGPDqt4wfx7RjL1xiHXTYpKuX0P1fhsujxev8sHq9eB6r4GtqzJJW7FDcQZYE/k3F1H3nkv+dJHYQaTrtWF+qYjs5Exx+jg6Zs4LOj511Dj9hwqK9tjwROnFDiadF09nE5X3ZrNYdThtSBqLyPxOPpX7bfz1839AnyjvOvvcg+u9OopuSGdNo/pHY4md0gWiPB4vSF8TO0wvifJgfbOc/O9kUmkVDxVjcpn/DEH7tsVk31tJU6cHryTL4p882PZXslx5UOgoY95QKR6e8q6ytDR5r3b3OjLvKqWhw4MXecdZLNhbqym6vkZ1PptM4xrSb5B1ylcHndwOr4c6bMBO5e1JZD9Sx1GHB++0OP9ORq/bRtP2fDIXVYY8ty6IPQ287wJ0M8m4NTDJviGb/G1N2NxemCrKZYwBzwcNlN+dSeaz7wtDMT6FMt8MZHcli29Q6VXsFKGbd70WVKZI7nESID65/x7jlFC6aIyV8DisNGzKJ/P6dSHP4DsvdFeTn5FA5upyGlrteHqnyH3eiDFOGHiuzjaanl/H4rkJXLvsJ9QrDjavuT2boh1t2D0gxcpj3lkbDRuWk94W4qy7A09SuccmxsjLEkmcc7V8mkG/7lodHrw6eQfscHR3EJxvZ4oxcoq4h3+MXJ3NMvUYqRgPPZ9LIx4PQ+nC+RiXoIl1e8TsKVFGbrg31Cf6fDRRNC+Toh1mbG6v/CwTdbbtKSJ7rvqjAUMj7BjJb3kk89vkbxf93qdPBp0Xj8NK3SPZpCsPEo+UvBRx7FnnYcoHnOwYWyZcfPHFwWsJQyQuLo6enpCPi0GowOLOxYiNmuh0HvnHf+Szzz6jtzfEtMEQ8Dk0euX17pEQFRXF5MmT+fvf/65OGhbDl1Ug/zjOZFWwr4uSDB2nf/8E8TeqTzEeHl9WWbHNIj7IfvxVoq9ZpU4dFl9GWZmea6d+iQHXOw+Quvy1MeyDgePQGkXKQIwnWfnQxqvI0WSlwjcuddQQnRHYCzRZRY5aViUH3BQkg/X5VDIfGbpBPVqy0mb2NDRGm20W3A4HXW+H/pJtsVG8057sCXMmoQYA5g1i6Vk/93buUycOiQosTgeOrsbQ3xZeO1PMMrjsQV+F0ND40hDhuOSya71g1Igvw5QkfxN4GIbeaKIZexoao43FjkuS0M1aSNWSwMWKlIfqybtaAlwcbawPSNNQ0b2O6mYXTL2aG54I3EQyNNqw/0VC0qWxcHtO4CcLZxVS/wPh9O1qb0B8El1D40tIhOPS+29qvWC0yF1/IylRXqx7H47Qr3Ls0Iw9DY3R5pVKftPhhSiDwsFY6eztpfPVB7hjt/qHGmpqbn+Glr/AlQvXM3xP0xoqG214ZUf+huYG0R6tHTgUTt/33X6hh2MNjTEkgnFpWBsQNEITX0Jeph56mnhyFDb2jBTN2NPQGHXMrMnIpuglpYOxEaMev6Nvxv371T/SCEklDzzTwunp36Zwe4Tf1wyB+YF0sh+pwdzp4X//eYZoj0Q9nHFhHQWnbw2N8c/g49KwNiBohKRgUy4pk+zUrV0+LsYWbYPGIKidLUfK8GUVyBfBMXWkaLKKHE1WkaPJKnI0WUWOJqvI0WQVOaMlqws8szeXrwPwdQY4dkdDQ0NDQ0NDQ2OYXGBjrxVxZNJHtKqTNDQ0NDQ0NDQ0RswFNvY0NDQ0NDQ0NDTGEs3Y0yIHzgYAADobSURBVNDQ0NDQ0ND4EqMZe+MY03Pt8jdx3bQ/5/uky1eYbRYhj9YKdYrGuCSOJU+8Tvvbw2mvLCpaHbh7Glk7Sp8jK9jXhdvt5uBz/xkQn7KiCktrLQXKyJX1dLnduLvqA+M1whOfQ8m+dhq3qBOGyDBk72vbrn2R/mIUkeu987HA6IpWMXZb/N/yHQS53ieO7VZ9D1oDwujXit3YnE7c7i7qR1tovueNWg998WGCs6eHY5Z97FybE/KTcKZtFlHe1aFSxw7N2Bu35FBg6lcGQ2qu/A1HDY0vCGU7+fk9Jgw6dcLgmLaUcHOihG1fKRvG8nuSK+qp35iDUT9FnaIxRCperqIgw4AuSp3y5cZX73+epE7RGE2+MPolSUy77CoWPlSFpaUC9YFR5tWVNLl0mB6ooGCUXmQjQTP2xiu35fAtPdBjxXoGiL+OgtvUF2lojGOG+/CLL6HkFiOSq4nK1aP36abKRQlER0dz3d0v90eO9wfHF4nRkuX2xSRERxOdsJhKddp4ZJTrfekVt7BdnaYxenIeLTxm1kVHEx0QMrl91Qbqj58GQErKZeeBEtUMXw0Pv9SGV2di1frhHxU/VCZGRUUx0jBhwoSguMjCRCYAMIGJUaIlJ06cGOK6oYVJk8RTZtKkSUFpQw0TJwp7WB0/3BCprFYvm4Me8Hz8Om9+4AX0XJf7kD/9KymrCUJbYGj1/krKaphhtGU1nPa648mbSZHg6K9+TO1Yy2qiT6fEGDRovCIwyrL6ouuVb+ZgwoTgtLGWVX9zRX6P0ZKVf8ZEJauB5DFQYIxlNZwwWrLyhaHolS+EkidNJ/EA4OHk/uDfRBpCysr/vFGNAeHio6KIijrGb/duZdV3sln7jgsAKfmHPFcUeN0nT72C2QX6+avY9h11HoFhOLIKFSZOnjyZkYZJkyYFxUUWfEKDCZMngyzs4OuGFqLkDhMlH244kuBTAnX8cENk9XuQG2fpAC9/svyCSvMHeAHpqhspka8JlNXTtDidODtfZ9VVK6g62EnPJ06cTifOnk5aaku4OTHwHqt+2YnT6cRckcDin+zmsO1Tcb3TSed771B19+wQ5ZrM5MSbKaltobNHzt/ppKfzA955dgXfUsnKd4+WrZdz8/pXaeno8f/GKf/mcnX+kydz+c0lvHqok9a2dnFtRwtVeZczub+3B/0mOPTLJD/lTra/baXTJ5NPeug89ColN6h/I8Lsu6t45z2FDOXrf5qT0K9X698RaR+8ys2q38+rbpN/946/vXzh8q0tOJ1O/nx4B9dGoFfhylJy8+X9132niob2dpzONl78TnAekxVt0fPrYkV8cLuc+PAY1re3s+IqVR73vk6n04nz0NP+9ukvUycfNFWxwq9jq9hr+5QTtySK9kq8TW7z11kVomwBIbGEvH/XQ+8H/P7xPzN58mQmTXqcxo9O4HR+wKvLVNd/50Xa5LK/s16dl6wDslx8Mvjdc8uZPHkyTx9y4izJQAegy+BxpxOns4WnJ09m8qQJ4kV0wgQmhanvnSmRjVeB/eB12jr7+07ne+/w8xWz+vVK8bvZdz/N64c66VH0tZDtr7jHwWfyeOadY/35H6rq188B+u7sMGXe+9PLgnQkqO/KunGbr7lvle/9y1X+/BjK2O7TtRD6MmvFz2lsO8ann4rxqufd1ym5YTKT5AfwhAkR3mM0xnZVveP/Q4xXvnr3v5vOZsWz7/CBot17Olp4df3NgeOfnN+JY7u5Vymrq1ZQ1fRBRO2mDMHPweD+7uyR+66yv//oLXqcTpxdb1EsxwXK6nLRd5xO2qrn9f9uCPq1/Lnf4Yz02TCAfvHRUT4+DZz+mP8+0Z9/yHFzgOdasKwmBzxvJimvDxcvByGrHl5e/hC//hhA4uqFP1M9617j+d/3QFQiWSvvCMpDnZ86bjiBiy++uG+kYdasWUFxkYWX+4739fX19R3ve/nii/tmzJjRp9frQ1w3tPAv//IvfTNmzOj7l3/5l6C0oQa9Xt83Y8aMoPjhhohk9ez7fX19fX19fzvct/7ii/suvvixvoOnRNT7z83uuzhIVrIcT33Ud/x/xHWn7Mf7jtucfWc/E//vcx7se+yq/ns8ZhYZOm3H+8729fX1nXX2HT92vO8j+fd9fWf7ju+6JbBcVz3Wd9CX/tmpPqct8B5nO3b1/adCVr57nPrEKe7xN3GP45+c9d2k71TzYwH3mP2Tg31OX5lPn+gv09njfS83CG3ps70cLLOgIMvkb84+l0e+l/143/FjH/Wd8uV/9njfyzcF/u6WXbI8+vr6zv7PR4Ey+czZ17I+XejVVa/1fdTXJ3RXIdeLL7647+Vj8vV9p/oOFgemPWMVKc637xlUrwYry8GfCF24+OJFfW/1iOiP6hcF5dOvP2f7Dj/pi5vtb5++vr6+U58c7zt+7Hif629yxNnjfS/fpsij+GDfqb6+vr5Tzj7n2b6+vs/OBrV/3/8c7Hvs4ov7Lr747r6a1uN9Nodcel+7W17uuzuobIFh9nOy7luf8cfp9Vf3/bJbRB/f5auzHHbKOtHX13fKHKhL/n7k/E3f3Qp9PH14c9/FF1/ct77heN/xLlkGn53q++jY8b7jx94Qfc5X38/OivqFqq+7pe8nEYxXkfQ1W+1/BoxXodo+4N6q9vHd4+zZs319fXJZPznbd8qyXlwzWN899nLfLSHKfPrT/xm8797zct/hY8f7nLLunJV16fDOu/35DWls9+uaT59CyMQp7uH8m9C713xjjVoHQoSXbf4qDEJw/w0Iqnp7P+0KqLfvPqJN+vr61H2472zf8Z2K/uqrt0ehV1c90/e+r9Kn5DZQtpstsN2UIfA5GLq/+8oeqE/r+w7/rU+MF0+JuIDn4FW+5/ZHfa/5xs8h6tfmw6flckTwbBhAv2bMSO/b29XX19f1Wt9sOe/Zz77v1xNfPfvzDfFcC5KVHL9LHltUehg2Xg5KWS2qF0+Jvr8d7tusvvamN8QzxP+cDx0ishkiCJrP3lgRn0dVi9gh5nY6aN9dSIr6mpAYKMsQV7osNZQDUEldm5gSTpn/4/AbNXQGjNEezBsySZidTvrcJGKXV9LmBvQmHtwUvFNNn2iEP9Vzj+lfSc9IJ9WYStE+O14kjEtKqJjnu9JExcvyR+O7Gyiam0DS3MB7SN+8jc0v3Bp4A0AXq+dsSymZcUmkZ6STnhzLsj3iw9C6jBxK/FcWUPGACX0UeFpKufW6hf4yrWuL4ebrjYpcI2SqnulSJ6/fkyZkkpFKwtx1mD2AZOS7K3L6r11ZT9VtRiQ8tG1bRqwxNVAmUXqufeg5fhoPdDdhcwEYSclT3I9iZsb5/tYRl6ZsrQJS4gA82FpeV8SHIIKymNa+SEk8gJnKdrGLwTD7h8H6sTKLFB1wxspvNoko05ZaijN04LXT8KNUEpLTSc9IZ/bMO9j+Bw9IRnK31BLkUaLTo/+bmdLrYxXtX4e9F4g2kbMeoI77F15L5kH5Ez+O34h2X7CGOlV2gRgonCd033a0WhHfw/7OkwAYkwOETfEV/d4wurg5AXUvSBZpHps55H3L70gnvdoqloHOWKnOSCc9Y7nc52SiJCRPmPpefC1L+pV3UPSJRuisI/9a0Q+UfS1x8WM87etr8SX8eIkRCS+2V/rbPn1uErHXl9Im6+6NK4P7syTBH57OFGVNjiVhQXlkfTcpl627glqbf46JHrzv7llDdkY6v3GI39gPCF3KfiCU1IfJvApKlgqZdO5dxTX/ei3pGekkxS2j5i9zyJk7jF1AI0VV709abwpZb0kC2558UhV9eF2LB5AwZhegGIGCyFkvXBq875aTmiC3gUIHpcSbefAh9a+CCdffk+KWUfmuur+X88YRUb6UecXqrDAUzsEI0N1GzQFGpF8RPRsG1K8eVs6NIfrqfMSvcvjZkhQkvLRt6q9nf74SxkUPUqgow1hibusR48tUA8lLVYkH3hDPkKkpfDeCNhwpmrE3Jhgo/vkT5CTJA1CUhGF+MS9GcnxKfCGmZAAX7++r8UfX7HsfF4Nv1HDtX8fiTdb+iMZ15L/QhjfIsJLpPcqrd65ir3/Ho53qux6mqUdlDN1WwHeTJOi18dpDy6lW7pBU3GP6NcuCO9KZNp5ZVI6iVDStbMDaC0QZSPFtmV+fg0nXf/0f/VfbqVy0joN/8UcMiZ5fP8rKXyq+LdhdSY1FGM/6y31tYqDsFhM6wNOymezHlZ+ulmXyMSBdycJHTEAdZpvwFjEkKx66S5MxTAVcLjyAIUGxF2upiZk64IyNd6v6o4OJoCw9gJTCwrWi/J9UHxbyjEvmh34DXVCQnYIO8B79jWzI5FKQbUQCbHvXsHyHGCYFv+XxghdoOwPoryM3aBDy0vbcYsrfU0Q15tPQIf4MkMWQyWVmLIAHp1VZJqj/vU0MmnEpimMQckiOk6DXhcsDxMYpdr7lYDIKVwhb60jc/Aeub9yVQzjvoddKza351Kn72seAlEjWD5eI6Nw5GHq94DpIpfrD9O+V8wtZd3UxIV5+PG28tUn1Hc0I+67elBvcd/+fNbK+O8bkrPguxiigu4FH19TTX8Mm1txaE1C+wVgzVzjTx8TEcOmll6oc7JUhgcWjsVOi+w2KVtbJxghiPNt1WIznekPwy5kC0+V6AD7tqlH8Xujg3ve84AWdcaEyJQS3D9Dfm1h3T3VQf6/cLconJZkINPcMFKYJvbO312BmhPoV6bMhYkwY9ACfYq8NHEOaVu6l7Qx40TFzQUDS2LHdjhMAiSnR6sQ6jvZ4AQnD7IFM/tFBM/bGhFxMSZI6EkNqLjPUkSpMa03ircn1PnWvKBJeqeRwD2Kjxu1BXUbGzuHt/QaiP3aDWezojTKQsjowzfvefh4V36xT0MQvjoiOop+ZhQHIWfAt9AAfWyk/oL4e7BsOY+sFpiZy3QpVYs/xwNkSAJx4zgTG+GZivB3mENfXUNcuHnJDw8PHfzikjqTuL6dUMXmkJQF4sO4PZRw00XBM3D8uSTyUK1ttwog2mvxv54ZMI3rAfuA3opMrjBNTtkij6zAb5LjQDF6WN+SyGK6Q7/zxy7R1ABhIvi1wNjErWQd4ONwgS3XpQrHTGzvW8hC7Xbs3cLgL8RacHjiTBnaOy7ODSpweYfiOCJ+hjBP786q05/+A7Qygm4nJ94Ycn4VRD3x8ULz1K/V73o0irfc4hwcW9iCMXn297+2nKOgYmSZ2HBGmi94o+hpPZJMQF0t00jKCe3Mo3VXw5x7U7xGR9N3jvcBUY3DfdXSF6IvBfXdsMZA1Uxg9PUd3EdSbu4swy8b3eMRjPyyMIiV7nAzQin7MH8r9fFEjjVsKyRLunQCUXh9LdGws6Xc39EeGYtD+Xhrc319p4H151smkfOGLL2ROIoAN8waR14j0K8JnQ+SYsbsADNz4q0Yq7s9SrKiVkh0XTWxcOvlvKn9z4Tj4yacA6A0Dmfyjg2bsjStM/DBNGDx2S6Vq6cnML9qEASYlf5f7AtJkzriwhehscBCnG0CHejLA6QjR+QFzpwsvwMUxLARSZojBlmlp1LZYsASFhYjVy2nEqNarPW5bYEQYjDFiJvTTTw6qkwCoc0UyPKpx0vOCOi4ES41cEgUwhZm3qOsmQmGyPFMbGycMON8gpjdgks9LyksyAC5szfKg4zdODOTIS472DuUSZQgiKMuDKb6yGGRj8hMqW8X7ccCZjLfJs4keK02+WYqUGDE4915E2suB+Ta/00zL71pYGCsu1c1QN6aTyFpzGERPQSLcPcrkB5Ieg+/8yTwjBsB1vAmzEDYz5wrj17BEpPGxjUGkPTAhyzI8wum1udMp9zU9QXM08SYWLi2kbHsVO/c1YznahWNpiBk9mVB9LZK+KySqC+q7f/2/XYERF4SFxFwM4MXZGXq8sruHbnyfL5yO4Wtg3fO/weYFJD1pdxRT+44bh62dxt1lFGZH5hhEcvj+7gvB/b2GBqtLLOVm9k8uGPJTxGRE52HK5ReXkehXKH0dGXVUNoqXcCk2jdzHaml2Oug60kjtxkBj+bwQL49pYTCf8Yo/omMGXM4fDTRjb0yowdwhN6ICe3sNn6gjldxWwBzZ38uwqD7oZO76JfJDbmoaNzzhdwzrp/dsmLdFM6eCiwPA2TOhB09OneWs4r8635mz0QaMScYQYfQOu/SGK5PNKW+zHwN8hgYS+qC6ySFW3W2rsXaj8NvLIyUWOGPn6B7fMq/POMkjJR7ZEAxcXghiWGUB+yNmsfwRn0KObHzmLhJv3a62uv4zy3yNGaXDoMo3cWYiid9MxBC05HAeuCJG7IwNQ/VR8WDw+e0Jw9qL/YM66lqP45GX5Q1AXrIwiFzHmwKXvy4gYfX61Flh7CkwLCmj8agD97v17NxeTN7SHBZmpGDUT+Gs7wERIeez744tZzkbeoCj2iEWyyLB92ULp9PJiRMngsbZ/jAGX2UYKgfWkH5DETUtNjxys0vRBtLm51G8qxnHkdrBD+bVyWNFiP7uC6H6e81e4TokJV0nf9EjjoK5wlqzHij396vxpl/mB9LJfqQGc6cHb69wo9LFpZG1opjadxy07yoI+WWLMWFhDBcBcArPQLPP0hRi1HGjjGbsjQl2Su95jLoO2TTp9WLfX8qdd4cZ7GV8D2Z6vXjPhAm94torM4vIUP0+PCYuCrYNAJgyKYTRCHDRFAK+KSDf19OyLoRvS6APTLpqqXioSFPDTGmryzSayPUDGzUh6hYdHc306dO59NJLmf6Nm2TDyU7dMTHkGZILYN51xEUDjuPUAJVH5TRjLqxMwRAFeI5j3uO7VxgiKIs/BBw8u05ezjIyp9AA5LIwRR/k/+nPP8ShoJdeeikxMTH9cXPX9P/uAmPfaxMPmLgUCjBxXYJOLLPWAtusYtNE7ExyFRthjreM4iaBESJFhXnEXKR6+8+uoHZbHmmxkpitb2mg7vlS8u9aTGpMLAlvDtF8jaDv+sJI++7YMoUp4skZhGlqmAHuy8B71axZlE5CbDSZtxdRvseMzS2SpLgsil9QH9qrYoD+HhSU/X1PnVjK1aUwPx/4+t3CvaTXSluVQgfHoX5Zn1/D4rkJxMZksuyRcupabHh6Ef5x2cW8uH5AiY0aptlx4gU27Krb+UMz9saK7mryM8SJ/dExsaTeEuiEGkwhueliOty+7xZi42JDhvQX5Fy+fi0r1RtfdXHy7JGa64iJBuH4Hpiiiw1aOALAlKgXDyCHnUrA6hSGqy5GXh4bA2zyPS6ZcZ06CZRlGgue9znSxmAYwtu8udGGC9lvb5G8rPihWRgl+3uwA1JcMoUZM8Umic62wb8KMMyyAKx7WzhDG9MKMdwm++q43qdB6f95TJ4h1cVgDKkvFwhfucLh272mm4lpaQ7GOMBlx9wN0ESPQ9719lD/Rpi20XCwHyUuCtvXYuS+1kMlULDyRowS0NPAsrgk0hctJ/+Rcur2Cb3Kix3aHMD56LtjSwPOvwBIxCSGfhG8bsYl6qiwnPcNGqOItbGa0pWLSTdG+3etSglzgnfNKxl2f6+j0mIHdCRfv5K4vKtJiQI62qhU+J6Ob/2y0vR8KfmL0kmIWSZvjpKYmTagxEaJXArShUS8R39DqTpZifesPOaPHZqxN1546LukTCXA8TUU9kf2i51TTCflRvW2XANp8u7MgNi1JpH3GRsHVY7vutkLQ/j/ZfHD2UJJ7cfEzEi1RfhBkGiiJDvwagDmVdHmdPLh8SPUDtFA8VFpln0tkkwUBw1KJnJTxnIoqZOXZHXMWVwcctB6oOEEJz76kBPNT5Pmi9xj5rgH0BspSDGI2aRWeTbpwEF63ID+W6xIEYb88bYBu7zM4GUpfNOB2+nAcaCivywAvs048Sn8WHacdrXXBTr6P39QbHbAiOkx9ZcbATKoeteN2+GgY/dIdtcOkQ6PcEPQxQi/oCD6l8aN+SkYUB6rYuZgl0j71nJ5hrzr8MAD7HlGN/vG4N2IZHHXbDG73tOxFxS+q56ew6j24gJZ8oxm5ETSd9vdbhw9HcPuu2OLnZp2YdjEzb6Lb6uTKQy5Ie6LTyH1HQ4cztDLyU1W+ViPwfiFeZD+bgrb380vHcUO6BIzKJpzJQDWlqIA14hxpV/319PR48DdVa/Yte+jCesnEUlsFIgj56VCsvQALg7uCt6GApBzsTxV7XaGPB5qNNGMvXFCycI08XZ/1Ox3fA1NKb85Kpw39HNvD3p4GBaWUeXz7QPILuPFlSJv+/7NwTufpqZxz577SPZHGCjYvZWFcWJb/F6f4blpszjuAwNZT9VSqHR0jc+hauONxAHS/ztKw3DfhjfVcNAlylTwaoVimdpAzvYybgwyAEcTM0/uFbNi0tV5vPhUToCRlfJQPQX/JkEU2FrKafOnVNLW6QUMpMySoNeOdZsvrZq2bi+gRx8LYMMaka/24GVZNVeU5XhAWejXj6iZ3GjyLeGqh5FyNu+Xl5izt1L7kNJrOo6bntkoZC15eH/foPOQ4fmTOH4GXYTOxwdsuM4gZjTVu/ZkfDugDbNShE4f7S9f9bsiTR8rDOvAs/rC0CjvipyqG3OfGaamsWqf8rxNua9dBpz5A3s3ir5md4v+rUvOUvljpVC4r0r0zaEQQd81ANKZ94ffdxUz8xddHFFrDwnzhgasXuCyhTyzJ1/eDIYsk1WkTQ24/Lziq/e0i76nThohe7E6QYrSMWd5ld8PV5BCSc4csUTYZQ25a7ufLQP0d8XYGqq/H/gFbd2A3sT3vi6WcM2PBl4yrvRrn5VPoyTQzSF3e+C4yawScmaLF6XjRwaW2PBJYf4P1/L8O41ULRB397Q8w8PKlRUFvs0tLnv4CZ7RQjP2xgPxZZiSxJ/W1spBHcrLGw5zGmDq1dy4UanOXrwYyXmuna4jFiytHTh25pEyFbwdNTx8V/A8AV4v064p4rcf/TeWFgvttnZK5uuh14X5qXxK/YZnE8vXVmP1gBSbRfHbDjpaLVha2ulqrSInUQJvJ68W3THIwDMQNSx7oAabF6TEXLYd2u8vU9VSI5Lfl21ssG/Ip7TRhRcdKXdV0W5rF7vJjjpoXivOvTv9+zLufCzwHLPStuP9/3H0BMzG1NgUrdljU5yxNjCRlMXTUsqdjwZrS3mzFS8S0lSg5zCVIXwEm+56mOqjHpD0ZK1txnFU7Jz7vfX3bL85UT7Q9z6WhRmkIuK/5e9W6rMoO2LB8mbFIEaf7wgIHXGpoeYzFTugAbDTs1+RVns84Cwz295g2QTRfVwYmFEp/LDDgqVlZ9AL1Kjh9aLLKKa5pyOorx16ejVPyrpRvu0N4X+oM1HS2kV7i+jLXc5mijOm4Dpql+Xq24k9GJH0XRs1D4Q+6iVSrE6xe0I/v4z2FguNWwZu7SHRvY47N5hx9cK0ax7jD8f/gKXFQkdPszgseIzHhoHw1Ts6Y+0o19vOuo2vyeNhDlWtXXK7iXoXzJLbbWPgTFsowvV3/9gatr+b5VlVMZ5439vPOvUl40m/utfx5F6b+CjA0irau0Rfs7R24Hi7QDwLO2t48pHBJBYBOhMlQZt6mtlVej/fmzkNAM/RavIXhXumn1/fYs3YGweY1s4XvhBqx9dwbK/jXfFBAdUXNey8sboSc48HXZwRY6Ie6YwL654isjPWhFgSAk/bZh7d24knSi92Zem8eDqbqLw3m8XbVGVpLCLzO/lU7rfh+VxCnyjvtPrcg+u9Otb+RwY/CnWTodAodp/Vvefir1K0XCaRf9Hro71NX42dytuTyH6kDqvDg1cn7y6LlfC6bez/+T1kL61SHOgqUy1vHAA8XQcDztSym+3i8FTAdeyN4PO2wjJwWZq255MZbhDZ9AaH5dUK+5FfhLlnE0XzMsnf3oTN7UWKFTvn4qZ58TiOUvdINunqA32HysEynt0jHKN1cUaMcwO/cBGKat/xMUnhdsxVY/tY/tPdw0Gl03O374wtwGXjjYgcosvZvMOM/QxIeiPGJFPwWWCjhKdtE/9/e/cf3USZNnz821Ke6MtKPPSQLgVbYG3c8kAfcIGlQn0twlpdXLrSBVQWxD5Y2SKwqBXkh8oP0SJggYKVxVVE+bHghhWlWrSsLZYHFB+LUkl3WxNLtOXUYzjLq7Mt4f1jJm0ySWGSFoFwfc65jzL3zJ37vmYmuTq5Z5K3wx5wrq3PvZ0JG3yOquIcfjtP3e8td1D2MUNtGVvmZpB8yx4tGbyBNP1Mjrac59zNuyOVWcX6jUJTtrxQvSlN6/MQv1+PaT/H2kxuz13P+/84hdI1AWuyFUuMG/u+QgoP/lhfzwVqGXenazp+3D7vh+4zZm2/qeMObb8FP98TzQpuV+U5z/ey5WVUA6BQub+NiRGX0PFV8lBq6/tmF/VcsyZZwPtZOCz4Z2GHUdycPH6ALU9mkn5LXtuv5X3Ivu9jsS6gqG7dup3VLwxVQkICTmfAR6ABBVQ0TsKKnS2xqcy9+mqamppobm7fn2nR0dGYTCYURcHj8eirQ+L9YeTvv/9eXxWW8GPl72q/WPnH0cj9k7m7a1g8woy7/An+c+KmKyhW4bvyjqvwhR+rORQ75zPEVMmmYenk1V7+sWo91xbRd2zg1+LhxyrQ5R6r85FYGSexMu5ixCrrtSqKMiw07JtF8oS2r3l2VKzkyp4Q4hKyii1lDRCTwqggNxsJIcTlbxJZN1qguZI357ad6HUkSfaEEJeULQv+QqUCiWm5536khBBCXIYSl2ZzswUa9m0K8hOKF4Yke0KIS0vtIhZtt6NYRpPtdwOSuJzk7q5pmbheV1dHfX19kF+p0JWgj8wQIpJM4tlxKZhOH2bLgh/nqh6S7AkhLkVlf1zEX6oVUsYXMP2CPnJHXCiV+3ayc4dabLtsvPGXN1r+3WbZVXKeh88LcXlLW53LzRa37mkXF57coHEeRidbGhV+rPxdzhNTjZJYGSexMk5iZZzEyjiJlXESK+M6KlZRAwcObHey95Of/IR//etf+sUG2Dj0SSKdacIxaChZMTGcOXOGs2fb16WoqCiio6PxeDwd0lanTp3afTB5hR8rfzESK8MkVsZJrIyTWBknsTJOYmWcxMo4ubJ3Hpdqli5/0RgnsTJOYmWcxMo4iZVxEivjJFbGyZw9IYQQQogIJsmeEEIIIUQEk2RPCCGEECKCSbInhBBCCBHBJNkTQgghhIhgkuwJIYQQQkQwSfaEEEIIISKYJHtCCCGEEBFMkj0hhBBCiAgmyZ4QQgghRASTZE8IIYQQIoJJsieEEEIIEcEk2RNCCCGEiGCS7AkhhBBCRDBJ9oQQQgghIpgke0IIIYQQESyqZ8+eZ/ULQ9WjRw++/vpr/WIDVlBadzdJVLO1VzqP6qsjUPixuvJIrIyTWBknsTJOYmWcxMo4iZVxHRWrKIvF0u5kr2fPnpw4cUK/2IDVlNffQxLVvB43grzOnTlz5gwej0e/Ysg6d+5Mc3MzZ8+2b3jR0dF06tSJpqYmfVVYwo+Vv84SK8MkVsZJrIyTWBknsTJOYmWcxMq4qG7durVvZEBCQgJOp1O/2IACKhonYcXOlthU5l59NU1NTTQ3N+tXDEl0dDQmkwlFUdp9EMTExNC5c2e+//57fVVYwo+Vv6slVoZJrIyTWBknsTJOYmWcxMo4iZVxMmdPCCGEECKCSbInhBBCCBHBJNkTQgghhIhgkuwJIYQQQkQwSfaEEEIIISKYJHtCCCGEEBHsEkn24rizsZG6ulJW66uEEEIIIUTYLnKyN4vU2FhiY9+kXl8lhBBCCCHa7SIne0IIIYQQ4kKSZE8IIYQQIoJJstdRptuoaWyk8Tzlfw58QNV7RWQP1DcgDMvIp/hoTWtc66t4ZbJ+pQuozzgW7z5CsW6CacFBtT8Va/2XX7lG8syez6mpbz3+qzZPgj5ZQeN3MeXuVo+nmt25+qqLw/t+UmPjEumREOIyJsleh1NoqLJjD1Zcbv7j/1yDZWAW+W9XUJCh31acXxavrMhmSLwZTjeoca0+xKeb9etdOM+/8gK5IxIxx+hrhK/MP60k+5cWzCg0VKvnwKHKLRS8WiTxE0KIH5Ekex3OwbsjUkkNVgb0Zcy8vdgVwGTld3MXk6jfXJxHGtZ4AAd7JidrsZ3CKv1qF5IkKYYMv747AI63JpA8TD0Hpjwn8RNCiB+bJHs/shPFj5NX7ADA1Hcok/QrCIMUvtuvXyYuRcrpMv0iIYQQPyJJ9i6CstOK+j9dzFj0lQOzKXqvihpX6zwnl72CbUuz2rgKmEjW0m1U2F2tc9hcNQHzAs89JymHN/5xksbGGmzTvcsKqNDmDC1+0sYRZ2vbtkfUNVKmFVF6tAaXNier/oSTY4eLKZqW4tO2j5DH5isXW00jjY2TsAJgZZLWhu8cucRx83nlvSq/eWL/rCzltcV3BbyGOseuBtuTi7F9osWv3kXN7jm6NTUPvsGxujruTVL/ab1HbT8wpilkbyilqsbgOEOKS5D9Xe/ig7+uZfG4wLUJsp8a613UHNzW5vptGphNwe4Kapw+rx2kr7m7azh58iR3X6/+2xunxi8+p6axkUnnjF/g+Oqddj55e13gPFfvvLaDRWRvqGjd5zUVFI0P3tb5YgUEblNTRemGbIIe1QPvV2Piu+/Otb7P/vCuf/LrOo7t38xTdyXoVw3UJxebXXstu43cPt7lWSzeXoHdWU9dXZ1a76qhYvtisrzrCCGuWNHR0dG0t0RFRQUsC61Etfao3W3556/6ulCL4XZ8h6Cv8ylRUb3IT1HTFRqclPvW376GirfzyRpowYwbZ5Ud+1duTLFWRk8vonjXDHpr6wJERY1iTXkFRdNHY4014f7Kjr3KibuTWZ0X+EYxC36mvW5r7/z6EyDKW6dt0WUo//1QGonNTrVt3DQciab3sv0UP5NFSryZHxrU+VjVDdC1R3+ynimmYt2v/McewthaY+Xb1wacX9ixVzWgpso+cyOd6jq9Z9ooXj+HMQMtmBVtPp9LwdQtiVE5GwJeQx2hmaEP5JIW/wPOKjvOU+Bu+Ni/795Yfeuk+ng1DafV0Cgu7fVrG3zag8RxxeSPT8Fyxom9yo7zW7RxrmHb8/9XbUsTalx+v7lY3d9mtP1tx3nKxDW9R5D7Yim2mb39+vyrdRUt+4lTWn9OmTAnjSZ3fXHA+kDw81nr56QRVswxaqzsVXYaTvuMTdvnDbVq3Ul9nE7Ut2zjt1yLX3R0b2bsLm09nrX6hmYz3VMyyX+7gjW3+/TJG/CEO1ky3spV39qxVzeg4Ma+M7RYeZsyD5mvbnOVu+X4wWwhZXw+tl0z/GM1egXlf1uuxqSTz77T1i8uX8Ov/OLYmxm7qijV9od3/A2Kia7Xj+QPa/7Ki/fqxub3fvIr1mydT1os8G0ZT9x+Fxsc0URH/55X/lZE7iiregwdr255H7COyqXoXRsztPeBUEvQYyGMQlvHVYjFl74u1NJR7XhLR4wvWmIVUkFiZbhE9ezZ86zfSMPw05/+lG+++Ua/OAQrKK27mySq2dornUf11ZeDads59sRwurY5hgSGj8nknpnZjO0XCyh8tjGdjKecWn0O2ysXMrwbnDpSxIzfLOF975aTN7LtidtJMPlvM3zdh2zPTAClGtvDU5hh09rqfR8bty7l9utAOZTPz+5aQ86OYyy8qSunPlxCv/FFWsteOWw/tpDhXU9x4Kl+TNiIzz4BvtrL5NRpLf2BTDZ/so6R3RU+fj6dsc95xwAjCz5k87gEOP0x+TeMZY23/RDHRpvHVRvHys0rKP3z3SSZ4NSH+Ywfv4bPtKr+s7fz6uzhdI9RqH59Mul5B9SW9tdpV5+c7J16E9NKvI2dm3e76u29SH84cDkoVO96mCmzbKijSSBnRzELb+oKJ99nxqDJ2CCMuCyk+Msc+sfo+5vAI7Z3mD34GvjSxoQRMziA7zF5io83zGDsspbWue+FbSwck4BJ+YyiWzNY8qW3rWASWPhOKTn/aUL5x1am3fKoz7HQn5lv7CBvaFc4dYAl/SbgPbrOFyf98uH5pWy+JwmT4mTvUxOZttl7LIxk4d/WkXOjGr9HB01mK77jA+XIGtJ/k6/Fm5Bj5T0/IPD4aTmmmz+jqHcGS8Bv3yn/sPHwfTOwaTFMyFzKi8/eR/8ucOqDJfS7R4vI7N3885FfYOIUB54bz4TnW16BhW+vIyela2ufvGNrielIVry3kbtvMMGpz3h5VgYLvGN6opi6af0Dz9PeOWx/eyHDu4LTNoGbZqjHfSiCn4MiGImVcRIr4zoqVtGKotDe4vF4ApaFVjx4M86zzc1B6kMvQMCycEpTU5Oxtpq9Y0ji7ro66gLKh2x/IU9N9BQnZevuI/3x6pbt457MZHg3wF3GytsWsNen7eqNk3nsHSdgov+ohxmqKMDdPHCT+rXP0VcnMm17a1vK8SImv3YYpVmB3qn8QVFo9qi9O+sJjC+AWn0WT7N3ees+sZf790dRUunVHaCeL19vfd2mpiben2Xj8GlQuIafjQpvbN664MeVt19n8fgsHzPlVpJMwFd7yBm7go996j57fgKz96qvkTRqGlne9r0DrC5jwR796wQvrbGCsx7/upb2avfw2IPbqW6pq2bNa4doAOjei1QtVglLfhtaXKb247oYwO3goF9/q9n80mGcgNK1J8MUBUWJ46lxaiLkLl9JxqK9fusXTX2Mkq8AU39unzPUb3zNAefg77ixByjNDZStmak7Fj5mxSva2Lp2p69PnVdbcfJfnsW0UUmYAPsbs5m80fe4eoclM1/m8Gmg+3DGz9C2aTnn3Bz66xKfeIcaq9bzg9OHWac7fvY+uIejzUDMdfSbqi1foB3Tpz9i/T3T2H68df3q7Y8y5YXDKEDXmzJ5Kl5R90fGLzABDe8tIvPZj336tJclz7yPsxmU7v34zQCfsZ310KzEkb1trZroKXZe+0M6j/qMKTv5OjUKjoO84/t+dXwNK/c7oVnB3GOYz+sZL8HPwdALQY+r8ErL+NpZDL+3GywSK+NFYmW8dFSsoj0eD+0tZ8+eDVgWWvG5uNjutjytbUFAXajFcDstQ9A9eqW6AaVZq2qsxPZsDjfGDyLziXf9tr//lwMAcB8tYZ2+bY+Hd/ceVz9Q+wzgLo8Hbh5JkgXAzqcvfBmwvmdFBvFx8cQnZ7LS05q4gX98A5z11nm3cFP/qb79D3A0ACQwxvY2q2feSv+WtvLJSIglPiGVB94Mb2ze5cGPK5+RtCwbzphkdfaj48ifeFe3DcC+ZR/hALCk8OssrX2tHfeJT/ky4HUCS4CWWOnac/wPf9dvv+0bvmvZTG1rytD+6vpG47K+EkczYE5jzgd/Zt6k4Vznfe2KhxkUG0t8UgZLPR48nvsZ8nMAN5X71gW07fG8y5ufNwCQkHxXy3IgSNyXkpEUT3xcMhNe07cTODZvOy3aiJPf8qxfk2IBcFC58u9+6wPwZT6HagBMWIdNVetaGqrHsV7Xp5Bi5dMn53FW+rbj8eDxfMN32lfP3j7PG6xOxVC+KGfpP/Xre/jy6Tc55AZiBjBkqgeP515S+gC4OV76qt+6AHwwg1/06E58QiozD/mODRL+9AaPjzBDs4Od96cyc6//a607qt7wZR4xh/I/z+PumxJa6v4+dRCxcfH0vWNpQB+NlMBjIbxC0OMq9OJLXxdq6ah2vKUjxueRWIVUkFgZLkEmbV1MSdxTX986MTrMcvLkSerq6jh58mRAXailvr51wrOxh+XqHr0yLJn4KZuoPA3EpnDHfb9nTMCE6Syscer/XdV3EhXlFYFl5n9hBiCOxOnADV3Vf7vrsdf6NdbB6nFs1C/bSWGxHQUwxQ9h0sJtlNa7sH/0FpuXzGS030T6MMYWshTMajBwftLGnZ+1lTjdAGau/Zl/Vb1rk/+CdjLW3l1ash5KXBaxc7+aoJmTxzBntY0j9TVUldt4+qFM0nyPq/FWfhoDcBU3TAjSdnkFD6eorROfGMKDexNJG5vFnGeKKHrJRunBKmpc3ptm2iElTr1Zqflahrzq38/yv5dT+l4pY+LVVc09dbc+uOux+y8JLVY+3I2BLQVjMZsAqK95TV+lKdT+IAJzfBpgwdwF9XzaoFv1XMxpZI9NxAQQcy1xwfq9YCclDQBmku6YzYodH9JYU0XF7iLmT04LcpOPEOJKc4klexGqOI/7VpThBv4jbgTzX5ivewOO4yr1swNTvBVrcrBiUd/wvX5u0RKBi6Psj6lkzN1CWbVbvXIZY8J83WBGTs1j23sujryWq40xjLG1h/cqaptMmLWk4eKKwxRGXAonZJDz3B4qXW51QYwZS3Iat9//BLaDNZQ+M1pdHnuVtq0JS0C7WonXt34OfbLIf6sKV/0RbC8VMX9aFllj00hJsnDVv9zaTTPtYL5K/W+MmURdP5N+nkTSDUkkxuo3OjfDsWoHpbl1lmBbro1NgemJaH/zhMGNw6UAZtJmbgvyuKZCJt6Rw6q3KmnQhorZgnVElprk1pSSLw9wF+KKdokke7NIjY2lV69exMXFERsb267SvXt3evXqRffu3QPqQi1xcXH06tWL2NhYUh/S99s4x9pZrCxX34lNg3Mpmueb7v3QkqTYXw/sg3/pS+YG4IsGvO/rF0vlxllkDutLfFw6E+eu4o0D1ZxqBjCRmDGfl5cmhje29jjvA3vd1Bu7eHOBKWHGxcHO5VNIH9CX2MGZTFmyiZL/beDfZ9RkJmXaGrbd45v02tkS0J6u9M2k0Lt6UKMp2LqG7GEWTCg0VJWxZ8cmlk2fQubgWOKtb6pfkbeHt7/uMhbp+ud7DsbGxhI7bJZu47YYjFU7mGLO/7iU71x7YIODen2FIW7Klmdy46Nvql9LW0YzZ0OQJLV2J8smpzPAGsdN46exbGMJlS4tBTenkL06WJIohLhSXCLJ3pXAQeHsLXzxbwATQyY/6/Pmu6nlK5+4BINfqH2rqFdTzHFtfIW2mFJXIy5nBQWD9XV61xPXrsuElZRsXMb0u0bQr/dkdtYCmLhhyKTwxhayStzaV7QJg9L0lao+KSSYARR+CO9Tt4O9hPOk+n9hx6W2jD3P5zHx1mR++dtVlLkBLFhHpcFGb3IR7lfjPqbncmeSSf3VkinxJI/IZMr0PFbt2ENZLTCtPVetNMfq1T9ezHFYg31V2V7nilUYGtxqIhXX9159lSaXRO1renejA3DzQzPq/pimWxWATLZ+fhKXswrbbJ/F7kpKnquE4hxW7VNPpMSxiym4xWcdHeeHe1k1dyLpA+K58Un1GwUsVkafYxshRGSTZO/HVLuI1Xu1CXaW0eSubf2g2XlMm2Q96E7mB/uwe6QYV2MjLmepmrztOoDdDWAl5Zkgs3LmDeUGE5ia67F/hPZBA2ZzkI/l2dbQ5vXMtlHldLXxI+3vU3nC/5pjyGMLWRlvHtM+CAf9N0GuezDq8cHqGN3HKduhr704bFXqV4BG4zJkbQUuVyONBwsC99dXr7Yk1aqdVNYCmBmaqZ82oJrzlovGeheu/QUM0Vf66henzQ91cqhYXwmjUxPaP6Vg4wfYTwNYSVsYbA8Op+ijRhpdLqq2Bx51eqHFKnTLDh8HwPTzEUH3XeK8OxlqBrBTuQlgU8v+uGFUkGtsN/8aqwVMXb7DsVtfqdpy7zo1STVZ+d2T3p9aHEJBuQtXfSMVawNGimNtuFcUhRCRRJK9H9mhJzdrk6nBOm4xi7UPirLlu9RHS3QZQvaf8/2fej9wDrYHhqhzsGrKWPURQBGr31eThZTJ2yjy/UWAgXOwTVXXd+wvpBDY9JF6QwXJY3Tr/pHt96uPhDBsdyXfxJjAPJRJG3S/8pCykKxB6kf/8U+2QFhjC93Oje+qvzmcMIai3XP8fr2g/+zNrL5N/brN8Y4aj/aw16vJ7LXdsvRVITnwnPqYGqNxOVzhwG0Cku6k4BH/mxR6ZjxHWhJAA/Z9ZUAZT+9SH/9hGpzNyyv891PKIzZmDDNBDBwvX8Vhn7oADm1OnjmF0Q/5JxQpj9goGhuYZJxL8PitYuU+9Y+CxIw1bPMbXwKZBUu5sw9gcvPp7vPvwdBiFYYFOznwLdBlMLlbi/z2XeK4fF6epu47d/kWVtUCOJi1U90fllGLsfn2qc841i0eSQKgfLRHWz+YQmZt1PbpgEkUPJQIHOaww40pBqy3FTDb7+aoRLI2p6lX/hvslMjPCwpxxZJk70dn47HN6hs2phQmPa9dpahdRs6KEhoUMA/IpuhgDUfKK6g4WIXrHe2p+Y1lLJu6qGV+VPmD89h01A0mK1kvHqHmkwoqyo9Qo62vVG/hsfu1J68u38IHDUBMIlnrK6g6qLZdt/dxhnepxu7y9s+A2kU8vcuOggnr+CKO1FSpd02WH+Wff8shpYv62k/P1XoaxthCtn8WE5eX0dAM5hHzKXWqfao46qL4kZFYTOD+qJDHpht8cvI5HNVmwVtG5XOkvILi1WEmfV/mhxaX1x9jXblbnag/rxSX/Yg6xk9q2LP8VhIBd/k6Hntdbd6xPIdlxQ0omEm5v4gj3vWPuiidl4YZcJcv474F54n6cyt5U7sqlfak9ziroKqmkdJ5aVzlqsThxvBXxpX16oNa9PEruf8x7Xi2MHpeKa6j6uscrjrMunFJmFCwvz6Tidr4zinEWIWukAkPb6VaAVNSVuu++6SGIy9mk2IGpXYPy2YXth7Tz7XujzSf8X1e+gKZ15vg2zKWPbjsnOeAY/ky/lKl3azxUAG5wJYF6yhrBGLTmPeWk2MVpVSUV3DEfoSiXyeq8/7WP4b6p5cQ4kokyd5F4Fi+khLtJj7ziGxe0e6Uc6ydSPIdeez83wbcZ7S7EpMsmM64se8rJOe2TAr9/urfR94t6eS9VIa9UcGcYMWanIj5jBv7jjwyhs2iNbXZwsQ78th00IEbE5YkK9Y+Zn6o3kP+g+nqFaYQlDyUSsbcnVS63ChdLOpdk0kW+H8nqQx47XDGFjrH2kwy/lBISbUbxaT2yRpv4tTXn/HWqumk37bIr0/hKntmPTur3C13jg4ZEt68L0KOi4PCsenkbCjB3qhgik1Ux5hg5t/f1VKyIYf0sT7JBQ4K701u3U9mbf14E0qjPcj6bSkh53daH5vRjjMr5mY7ZZvzyBiQzh4n6leUtwT5ilKnbHlhG/ErIe8Wn/FpdykndFU49fVn7JybQepDRvdgqLEKQ8mjjPjNPP99l2BGadTiMngKm/yOaXV/TFmu3iHsHZ8lxo3zwyIezLjLwDlQxqylJWq/Y9OY8dokqC0k87YcCvfZcZ8x0fW6JKzJVhLNCu7qEgofSCdzbbtGKoS4zEV169bN5/Gd4UlISMDpPP8jCM7n6quvpqmpiebm8z4/45yio6MxmUwo2tOn2yMmJobOnTvz/fff66vCIrEyTmJlnMTKOImVcRIr4yRWxkmsjOuoWMmVPSGEEEKICCbJnhBCCCFEBJNkTwghhBAigkmyJ4QQQggRwSTZE0IIIYSIYJLsCSGEEEJEsCiLxdLuR6/07NmTEydO6BeHrHPnzpw5c6bdtz5HRUURExNDc3MzZ8+2b3jR0dF06tSJpqYmfVVYJFbGSayMk1gZJ7EyTmJlnMTKOImVcR0Vq6iePXu2b2RAjx49+Prrr/WLRRASK+MkVsZJrIyTWBknsTJOYmWcxMq4joqVPFT5PC7VByRKrIyTWBknsTJOYmWcxMo4iZVxEivjZM6eEEIIIUQEk2RPCCGEECKCSbInhBBCCBHBJNkTQgghhIhgkuwJIYQQQkQwSfaEEEIIISKYJHtCCCGEEBFMkj0hhBBCiAgmyZ4QQgghRASTZE8IIYQQIoJJsieEEEIIEcEk2RNCCCGEiGD/H/cRSAaAQiyiAAAAAElFTkSuQmCC;clipPath=inset(0.79% 2% 3.44% 1.67%);" vertex="1" parent="1">
          <mxGeometry x="250" y="820" width="350.13" height="219.28557093425604" as="geometry" />
        </mxCell>
        <mxCell id="K5ybPOd9x1aPTzwEkU7R-56" value="(using productivity kernel)" style="text;html=1;align=center;verticalAlign=middle;resizable=0;points=[];autosize=1;strokeColor=none;fillColor=none;" vertex="1" parent="1">
          <mxGeometry x="490" y="875" width="160" height="30" as="geometry" />
        </mxCell>
        <mxCell id="K5ybPOd9x1aPTzwEkU7R-59" value="(using temporal kernel)" style="text;html=1;align=center;verticalAlign=middle;resizable=0;points=[];autosize=1;strokeColor=none;fillColor=none;" vertex="1" parent="1">
          <mxGeometry x="500" y="932" width="150" height="30" as="geometry" />
        </mxCell>
        <mxCell id="K5ybPOd9x1aPTzwEkU7R-61" style="edgeStyle=orthogonalEdgeStyle;rounded=0;orthogonalLoop=1;jettySize=auto;html=1;" edge="1" parent="1" source="K5ybPOd9x1aPTzwEkU7R-60">
          <mxGeometry relative="1" as="geometry">
            <mxPoint x="420" y="360" as="targetPoint" />
          </mxGeometry>
        </mxCell>
        <mxCell id="K5ybPOd9x1aPTzwEkU7R-60" value="&lt;font style=&quot;font-size: 10px;&quot;&gt;estimate the model parameters using Maximum Likelihood estimate&lt;/font&gt;" style="rounded=1;whiteSpace=wrap;html=1;" vertex="1" parent="1">
          <mxGeometry x="340" y="280" width="160" height="50" as="geometry" />
        </mxCell>
        <mxCell id="K5ybPOd9x1aPTzwEkU7R-62" value="&lt;b&gt;&lt;font style=&quot;font-size: 19px;&quot;&gt;&lt;u&gt;EPIDEMIC TYPE AFTERSHOCK SEQUENCE (ETAS) MODEL&lt;/u&gt;&lt;/font&gt;&lt;/b&gt;" style="text;html=1;align=center;verticalAlign=middle;resizable=0;points=[];autosize=1;strokeColor=none;fillColor=none;" vertex="1" parent="1">
          <mxGeometry x="145" y="25" width="560" height="40" as="geometry" />
        </mxCell>
        <mxCell id="K5ybPOd9x1aPTzwEkU7R-64" value="Stop when either:&lt;div&gt;max depth is reached&lt;/div&gt;&lt;div&gt;maximum number of events&amp;nbsp;&lt;/div&gt;&lt;div&gt;max time exceeded&lt;/div&gt;" style="rounded=1;whiteSpace=wrap;html=1;" vertex="1" parent="1">
          <mxGeometry x="285" y="1090" width="270" height="80" as="geometry" />
        </mxCell>
      </root>
    </mxGraphModel>
  </diagram>
</mxfile>
